<svg xmlns="http://www.w3.org/2000/svg" xmlns:xlink="http://www.w3.org/1999/xlink" width="300" zoomAndPan="magnify" viewBox="0 0 224.87999 112.499997" height="150" preserveAspectRatio="xMidYMid meet" version="1.0"><defs><g/><clipPath id="6287028b0d"><path d="M 19.257812 6.257812 L 89.492188 6.257812 L 89.492188 105.605469 L 19.257812 105.605469 Z M 19.257812 6.257812 " clip-rule="nonzero"/></clipPath></defs><g clip-path="url(#6287028b0d)"><path fill="#ffffff" d="M 65.140625 94.394531 C 52.886719 81.558594 74.277344 69.972656 67.84375 56.925781 C 68.050781 61.480469 66.175781 65.417969 61.609375 68.9375 C 49.363281 77.828125 47.285156 87.972656 55.382812 99.574219 C 56.417969 101.019531 57.667969 102.464844 58.914062 104.125 C 62.652344 102.464844 66.390625 100.183594 69.503906 97.914062 C 67.84375 96.878906 66.175781 95.628906 65.140625 94.394531 Z M 48.945312 97.699219 C 45.410156 90.042969 45.214844 83.007812 48.945312 76.382812 C 44.171875 80.523438 41.683594 86.113281 41.886719 93.148438 C 31.300781 84.878906 24.859375 72.242188 24.859375 58.167969 C 24.859375 46.785156 24.859375 35.402344 24.859375 23.8125 C 35.035156 22.980469 46.453125 20.703125 54.347656 14.082031 C 54.964844 14.703125 55.800781 15.324219 56.632812 15.945312 C 54.347656 18.015625 51.851562 19.878906 49.15625 21.121094 C 51.441406 23.191406 52.6875 25.882812 52.6875 28.984375 C 51.226562 26.707031 48.738281 24.847656 46.25 24.015625 C 50.191406 29.605469 50.601562 33.746094 47.285156 36.230469 C 43.753906 38.714844 42.09375 40.992188 42.71875 42.851562 L 30.675781 53.617188 C 35.035156 54.445312 38.5625 54.652344 41.679688 54.238281 C 34.832031 56.105469 32.128906 58.792969 33.789062 62.933594 C 34.832031 64.171875 37.113281 65.417969 40.023438 66.453125 C 42.304688 67.277344 43.753906 68.3125 44.171875 69.347656 C 40.023438 67.488281 36.902344 66.453125 34.832031 66.453125 C 31.710938 70.597656 32.957031 75.148438 38.980469 79.703125 C 41.261719 73.488281 48.121094 69.972656 54.347656 72.042969 C 56.417969 65.828125 54.347656 59.203125 49.15625 55.480469 C 52.6875 56.105469 57.460938 59.414062 59.746094 58.996094 C 62.027344 58.792969 63.894531 56.308594 65.765625 51.960938 C 67.21875 47.820312 62.4375 45.957031 66.175781 40.785156 C 65.140625 46.375 75.933594 53.617188 71.582031 68.523438 C 68.878906 76.792969 60.78125 83.628906 68.460938 91.699219 C 69.914062 93.148438 71.367188 94.183594 72.820312 95.019531 C 75.523438 92.738281 78.011719 90.042969 80.089844 87.148438 C 78.429688 85.914062 77.183594 84.453125 76.355469 82.59375 C 73.035156 74.523438 79.671875 64.382812 74.898438 50.925781 C 71.582031 41.195312 66.800781 40.371094 69.914062 27.742188 C 74.695312 28.984375 79.671875 28.160156 83.828125 25.257812 C 83.828125 26.292969 83.828125 27.125 83.828125 28.160156 C 83.203125 34.160156 79.886719 39.75 74.695312 42.851562 C 85.691406 61.480469 77.390625 64.792969 79.671875 76.792969 C 80.296875 79.078125 81.339844 81.148438 82.792969 82.808594 C 87.148438 75.347656 89.429688 67.078125 89.226562 58.167969 L 89.226562 18.632812 C 87.359375 18.632812 85.691406 18.429688 84.035156 18.429688 C 81.75 20.289062 79.054688 21.945312 76.351562 22.980469 C 74.898438 23.601562 73.238281 24.226562 71.367188 24.433594 C 72.410156 24.015625 73.445312 23.394531 74.480469 22.777344 C 76.558594 21.324219 78.429688 19.667969 80.089844 18.015625 C 77.183594 17.601562 74.695312 17.1875 72.199219 16.566406 C 70.75 18.222656 68.878906 19.464844 67.011719 20.914062 C 64.515625 22.570312 61.820312 24.015625 59.121094 25.257812 C 59.746094 28.570312 58.289062 31.882812 55.589844 33.953125 C 57.253906 30.851562 57.460938 27.125 56.007812 24.015625 C 58.496094 22.570312 60.992188 20.914062 63.0625 19.464844 C 64.933594 18.222656 66.59375 16.773438 68.253906 15.53125 C 62.027344 13.460938 57.253906 10.355469 54.347656 6.214844 C 48.53125 14.082031 36.695312 18.222656 19.257812 18.632812 L 19.257812 58.167969 C 19.257812 75.558594 28.390625 91.503906 42.929688 100.394531 C 46.453125 102.679688 50.191406 104.324219 54.347656 105.785156 C 52.0625 102.878906 50.40625 100.183594 48.945312 97.699219 Z M 72.820312 36.4375 C 76.148438 35.8125 79.054688 33.953125 80.507812 30.851562 C 78.011719 32.089844 75.316406 32.503906 72.617188 32.089844 C 72.199219 33.539062 72.199219 35.195312 72.820312 36.4375 Z M 58.085938 44.71875 C 54.136719 44.71875 49.363281 46.164062 43.753906 48.441406 L 48.53125 44.71875 C 47.910156 41.40625 49.566406 40.785156 52.0625 41.40625 C 54.554688 42.027344 56.632812 43.269531 58.085938 44.71875 Z M 58.085938 44.71875 " fill-opacity="1" fill-rule="evenodd"/></g><g fill="#ffffff" fill-opacity="1"><g transform="translate(92.961485, 30.543959)"><g><path d="M 15.1875 0 L 11.890625 0 L 10.703125 -3.640625 L 4.640625 -3.640625 L 3.453125 0 L 0.234375 0 L 5.703125 -15.828125 L 9.71875 -15.828125 Z M 7.53125 -12.53125 L 5.484375 -6.28125 L 9.84375 -6.28125 L 7.796875 -12.53125 Z M 7.53125 -12.53125 "/></g></g><g transform="translate(108.393801, 30.543959)"><g><path d="M 1.71875 0 L 1.71875 -11.9375 L 4.59375 -11.9375 L 4.59375 -10.34375 L 4.828125 -10.296875 C 5.210938 -10.941406 5.664062 -11.414062 6.1875 -11.71875 C 6.71875 -12.019531 7.390625 -12.171875 8.203125 -12.171875 C 9.109375 -12.171875 9.832031 -11.988281 10.375 -11.625 C 10.925781 -11.269531 11.328125 -10.75 11.578125 -10.0625 L 11.8125 -10.0625 C 12.175781 -10.78125 12.648438 -11.3125 13.234375 -11.65625 C 13.816406 -12 14.539062 -12.171875 15.40625 -12.171875 C 17.882812 -12.171875 19.125 -10.789062 19.125 -8.03125 L 19.125 0 L 16.125 0 L 16.125 -7.65625 C 16.125 -8.351562 15.984375 -8.859375 15.703125 -9.171875 C 15.429688 -9.484375 14.992188 -9.640625 14.390625 -9.640625 C 12.742188 -9.640625 11.921875 -8.535156 11.921875 -6.328125 L 11.921875 0 L 8.921875 0 L 8.921875 -7.65625 C 8.921875 -8.351562 8.78125 -8.859375 8.5 -9.171875 C 8.226562 -9.484375 7.785156 -9.640625 7.171875 -9.640625 C 6.398438 -9.640625 5.796875 -9.378906 5.359375 -8.859375 C 4.929688 -8.347656 4.71875 -7.523438 4.71875 -6.390625 L 4.71875 0 Z M 1.71875 0 "/></g></g><g transform="translate(129.056861, 30.543959)"><g><path d="M 8.34375 0.234375 C 6.820312 0.234375 5.691406 -0.335938 4.953125 -1.484375 L 4.71875 -1.4375 L 4.71875 0 L 1.71875 0 L 1.71875 -16.734375 L 4.71875 -16.734375 L 4.71875 -10.53125 L 4.953125 -10.484375 C 5.359375 -11.054688 5.84375 -11.476562 6.40625 -11.75 C 6.96875 -12.03125 7.632812 -12.171875 8.40625 -12.171875 C 9.375 -12.171875 10.21875 -11.941406 10.9375 -11.484375 C 11.664062 -11.023438 12.226562 -10.332031 12.625 -9.40625 C 13.03125 -8.476562 13.234375 -7.332031 13.234375 -5.96875 C 13.234375 -4.613281 13.023438 -3.46875 12.609375 -2.53125 C 12.191406 -1.601562 11.613281 -0.910156 10.875 -0.453125 C 10.144531 0.00390625 9.300781 0.234375 8.34375 0.234375 Z M 7.4375 -2.3125 C 8.320312 -2.3125 8.992188 -2.601562 9.453125 -3.1875 C 9.910156 -3.78125 10.140625 -4.707031 10.140625 -5.96875 C 10.140625 -7.226562 9.910156 -8.148438 9.453125 -8.734375 C 8.992188 -9.328125 8.320312 -9.625 7.4375 -9.625 C 6.59375 -9.625 5.921875 -9.320312 5.421875 -8.71875 C 4.929688 -8.113281 4.6875 -7.195312 4.6875 -5.96875 C 4.6875 -4.738281 4.929688 -3.820312 5.421875 -3.21875 C 5.921875 -2.613281 6.59375 -2.3125 7.4375 -2.3125 Z M 7.4375 -2.3125 "/></g></g><g transform="translate(143.362889, 30.543959)"><g><path d="M 4.65625 0.234375 C 3.882812 0.234375 3.21875 0.09375 2.65625 -0.1875 C 2.09375 -0.46875 1.660156 -0.878906 1.359375 -1.421875 C 1.054688 -1.972656 0.90625 -2.632812 0.90625 -3.40625 C 0.90625 -4.101562 1.054688 -4.691406 1.359375 -5.171875 C 1.660156 -5.660156 2.128906 -6.054688 2.765625 -6.359375 C 3.398438 -6.671875 4.234375 -6.90625 5.265625 -7.0625 C 5.972656 -7.1875 6.515625 -7.316406 6.890625 -7.453125 C 7.265625 -7.585938 7.515625 -7.738281 7.640625 -7.90625 C 7.773438 -8.082031 7.84375 -8.304688 7.84375 -8.578125 C 7.84375 -8.953125 7.707031 -9.238281 7.4375 -9.4375 C 7.164062 -9.644531 6.722656 -9.75 6.109375 -9.75 C 5.441406 -9.75 4.804688 -9.597656 4.203125 -9.296875 C 3.609375 -9.003906 3.09375 -8.617188 2.65625 -8.140625 L 2.4375 -8.140625 L 1.1875 -10.03125 C 1.789062 -10.707031 2.523438 -11.234375 3.390625 -11.609375 C 4.265625 -11.984375 5.21875 -12.171875 6.25 -12.171875 C 7.832031 -12.171875 8.976562 -11.832031 9.6875 -11.15625 C 10.394531 -10.488281 10.75 -9.535156 10.75 -8.296875 L 10.75 -3.125 C 10.75 -2.582031 10.984375 -2.3125 11.453125 -2.3125 C 11.628906 -2.3125 11.804688 -2.347656 11.984375 -2.421875 L 12.140625 -2.375 L 12.359375 -0.28125 C 12.191406 -0.175781 11.957031 -0.0859375 11.65625 -0.015625 C 11.363281 0.0546875 11.039062 0.09375 10.6875 0.09375 C 9.96875 0.09375 9.40625 -0.0390625 9 -0.3125 C 8.601562 -0.59375 8.320312 -1.023438 8.15625 -1.609375 L 7.921875 -1.640625 C 7.335938 -0.390625 6.25 0.234375 4.65625 0.234375 Z M 5.609375 -2.015625 C 6.296875 -2.015625 6.847656 -2.242188 7.265625 -2.703125 C 7.679688 -3.171875 7.890625 -3.820312 7.890625 -4.65625 L 7.890625 -5.875 L 7.6875 -5.90625 C 7.507812 -5.757812 7.269531 -5.640625 6.96875 -5.546875 C 6.675781 -5.453125 6.257812 -5.359375 5.71875 -5.265625 C 5.0625 -5.148438 4.59375 -4.960938 4.3125 -4.703125 C 4.03125 -4.441406 3.890625 -4.066406 3.890625 -3.578125 C 3.890625 -3.066406 4.039062 -2.675781 4.34375 -2.40625 C 4.644531 -2.144531 5.066406 -2.015625 5.609375 -2.015625 Z M 5.609375 -2.015625 "/></g></g><g transform="translate(155.957826, 30.543959)"><g><path d="M 3.21875 -13.375 C 2.675781 -13.375 2.234375 -13.535156 1.890625 -13.859375 C 1.554688 -14.191406 1.390625 -14.617188 1.390625 -15.140625 C 1.390625 -15.648438 1.554688 -16.066406 1.890625 -16.390625 C 2.234375 -16.722656 2.675781 -16.890625 3.21875 -16.890625 C 3.570312 -16.890625 3.890625 -16.8125 4.171875 -16.65625 C 4.453125 -16.507812 4.671875 -16.300781 4.828125 -16.03125 C 4.984375 -15.769531 5.0625 -15.472656 5.0625 -15.140625 C 5.0625 -14.796875 4.984375 -14.488281 4.828125 -14.21875 C 4.671875 -13.957031 4.453125 -13.75 4.171875 -13.59375 C 3.890625 -13.445312 3.570312 -13.375 3.21875 -13.375 Z M 1.71875 0 L 1.71875 -11.9375 L 4.71875 -11.9375 L 4.71875 0 Z M 1.71875 0 "/></g></g><g transform="translate(162.390665, 30.543959)"><g><path d="M 1.71875 0 L 1.71875 -11.9375 L 4.59375 -11.9375 L 4.59375 -10.1875 L 4.828125 -10.140625 C 5.566406 -11.492188 6.769531 -12.171875 8.4375 -12.171875 C 9.820312 -12.171875 10.835938 -11.796875 11.484375 -11.046875 C 12.128906 -10.296875 12.453125 -9.203125 12.453125 -7.765625 L 12.453125 0 L 9.453125 0 L 9.453125 -7.390625 C 9.453125 -8.179688 9.289062 -8.753906 8.96875 -9.109375 C 8.65625 -9.460938 8.148438 -9.640625 7.453125 -9.640625 C 6.585938 -9.640625 5.914062 -9.359375 5.4375 -8.796875 C 4.957031 -8.242188 4.71875 -7.375 4.71875 -6.1875 L 4.71875 0 Z M 1.71875 0 "/></g></g><g transform="translate(176.382632, 30.543959)"><g><path d="M 6.96875 0.234375 C 5.8125 0.234375 4.785156 -0.00390625 3.890625 -0.484375 C 3.003906 -0.972656 2.3125 -1.679688 1.8125 -2.609375 C 1.320312 -3.535156 1.078125 -4.65625 1.078125 -5.96875 C 1.078125 -7.28125 1.320312 -8.398438 1.8125 -9.328125 C 2.3125 -10.265625 3 -10.972656 3.875 -11.453125 C 4.757812 -11.929688 5.769531 -12.171875 6.90625 -12.171875 C 9.425781 -12.171875 11.039062 -11.253906 11.75 -9.421875 L 9.6875 -7.953125 L 9.46875 -7.953125 C 9.21875 -8.515625 8.894531 -8.929688 8.5 -9.203125 C 8.101562 -9.484375 7.570312 -9.625 6.90625 -9.625 C 6.039062 -9.625 5.363281 -9.320312 4.875 -8.71875 C 4.394531 -8.125 4.15625 -7.207031 4.15625 -5.96875 C 4.15625 -4.738281 4.398438 -3.820312 4.890625 -3.21875 C 5.378906 -2.613281 6.070312 -2.3125 6.96875 -2.3125 C 7.613281 -2.3125 8.160156 -2.484375 8.609375 -2.828125 C 9.054688 -3.179688 9.378906 -3.691406 9.578125 -4.359375 L 9.8125 -4.375 L 11.9375 -3.203125 C 11.632812 -2.191406 11.070312 -1.363281 10.25 -0.71875 C 9.4375 -0.0820312 8.34375 0.234375 6.96875 0.234375 Z M 6.96875 0.234375 "/></g></g><g transform="translate(188.695996, 30.543959)"><g><path d="M 3.21875 -13.375 C 2.675781 -13.375 2.234375 -13.535156 1.890625 -13.859375 C 1.554688 -14.191406 1.390625 -14.617188 1.390625 -15.140625 C 1.390625 -15.648438 1.554688 -16.066406 1.890625 -16.390625 C 2.234375 -16.722656 2.675781 -16.890625 3.21875 -16.890625 C 3.570312 -16.890625 3.890625 -16.8125 4.171875 -16.65625 C 4.453125 -16.507812 4.671875 -16.300781 4.828125 -16.03125 C 4.984375 -15.769531 5.0625 -15.472656 5.0625 -15.140625 C 5.0625 -14.796875 4.984375 -14.488281 4.828125 -14.21875 C 4.671875 -13.957031 4.453125 -13.75 4.171875 -13.59375 C 3.890625 -13.445312 3.570312 -13.375 3.21875 -13.375 Z M 1.71875 0 L 1.71875 -11.9375 L 4.71875 -11.9375 L 4.71875 0 Z M 1.71875 0 "/></g></g><g transform="translate(195.128835, 30.543959)"><g><path d="M 1.71875 4.84375 L 1.71875 -11.9375 L 4.71875 -11.9375 L 4.71875 -10.375 L 4.953125 -10.34375 C 5.304688 -10.945312 5.773438 -11.398438 6.359375 -11.703125 C 6.953125 -12.015625 7.644531 -12.171875 8.4375 -12.171875 C 9.40625 -12.171875 10.242188 -11.941406 10.953125 -11.484375 C 11.671875 -11.023438 12.226562 -10.332031 12.625 -9.40625 C 13.03125 -8.476562 13.234375 -7.332031 13.234375 -5.96875 C 13.234375 -4.601562 13.019531 -3.457031 12.59375 -2.53125 C 12.175781 -1.601562 11.59375 -0.910156 10.84375 -0.453125 C 10.09375 0.00390625 9.226562 0.234375 8.25 0.234375 C 7.507812 0.234375 6.867188 0.109375 6.328125 -0.140625 C 5.785156 -0.390625 5.328125 -0.78125 4.953125 -1.3125 L 4.71875 -1.265625 L 4.71875 4.84375 Z M 7.421875 -2.3125 C 8.316406 -2.3125 8.992188 -2.601562 9.453125 -3.1875 C 9.910156 -3.78125 10.140625 -4.707031 10.140625 -5.96875 C 10.140625 -7.226562 9.910156 -8.148438 9.453125 -8.734375 C 8.992188 -9.328125 8.316406 -9.625 7.421875 -9.625 C 6.578125 -9.625 5.910156 -9.320312 5.421875 -8.71875 C 4.929688 -8.113281 4.6875 -7.195312 4.6875 -5.96875 C 4.6875 -4.75 4.929688 -3.832031 5.421875 -3.21875 C 5.910156 -2.613281 6.578125 -2.3125 7.421875 -2.3125 Z M 7.421875 -2.3125 "/></g></g></g><g fill="#ffffff" fill-opacity="1"><g transform="translate(92.365886, 51.408166)"><g><path d="M 6.234375 0.203125 C 5.265625 0.203125 4.398438 0.0820312 3.640625 -0.15625 C 2.878906 -0.394531 2.242188 -0.707031 1.734375 -1.09375 C 1.222656 -1.488281 0.832031 -1.921875 0.5625 -2.390625 L 2.09375 -4.265625 L 2.34375 -4.265625 C 2.757812 -3.640625 3.296875 -3.140625 3.953125 -2.765625 C 4.609375 -2.390625 5.367188 -2.203125 6.234375 -2.203125 C 6.984375 -2.203125 7.546875 -2.359375 7.921875 -2.671875 C 8.296875 -2.992188 8.484375 -3.425781 8.484375 -3.96875 C 8.484375 -4.3125 8.421875 -4.59375 8.296875 -4.8125 C 8.179688 -5.039062 7.984375 -5.234375 7.703125 -5.390625 C 7.421875 -5.546875 7.039062 -5.6875 6.5625 -5.8125 L 4.75 -6.21875 C 3.476562 -6.507812 2.53125 -6.988281 1.90625 -7.65625 C 1.289062 -8.332031 0.984375 -9.203125 0.984375 -10.265625 C 0.984375 -11.066406 1.179688 -11.769531 1.578125 -12.375 C 1.984375 -12.976562 2.566406 -13.445312 3.328125 -13.78125 C 4.085938 -14.113281 5 -14.28125 6.0625 -14.28125 C 7.144531 -14.28125 8.070312 -14.132812 8.84375 -13.84375 C 9.613281 -13.5625 10.265625 -13.125 10.796875 -12.53125 L 9.421875 -10.65625 L 9.1875 -10.65625 C 8.789062 -11.070312 8.332031 -11.382812 7.8125 -11.59375 C 7.300781 -11.800781 6.71875 -11.90625 6.0625 -11.90625 C 5.289062 -11.90625 4.707031 -11.769531 4.3125 -11.5 C 3.914062 -11.226562 3.71875 -10.851562 3.71875 -10.375 C 3.71875 -9.9375 3.851562 -9.582031 4.125 -9.3125 C 4.40625 -9.050781 4.890625 -8.847656 5.578125 -8.703125 L 7.4375 -8.3125 C 8.800781 -8.03125 9.789062 -7.539062 10.40625 -6.84375 C 11.019531 -6.15625 11.328125 -5.257812 11.328125 -4.15625 C 11.328125 -3.269531 11.140625 -2.5 10.765625 -1.84375 C 10.390625 -1.195312 9.816406 -0.691406 9.046875 -0.328125 C 8.285156 0.0234375 7.347656 0.203125 6.234375 0.203125 Z M 6.234375 0.203125 "/></g></g></g><g fill="#ffffff" fill-opacity="1"><g transform="translate(104.453688, 51.408166)"><g><path d="M 6.1875 0.203125 C 5.164062 0.203125 4.257812 -0.0078125 3.46875 -0.4375 C 2.675781 -0.863281 2.054688 -1.488281 1.609375 -2.3125 C 1.171875 -3.144531 0.953125 -4.144531 0.953125 -5.3125 C 0.953125 -6.476562 1.171875 -7.472656 1.609375 -8.296875 C 2.054688 -9.128906 2.671875 -9.757812 3.453125 -10.1875 C 4.234375 -10.613281 5.128906 -10.828125 6.140625 -10.828125 C 8.378906 -10.828125 9.816406 -10.015625 10.453125 -8.390625 L 8.625 -7.078125 L 8.421875 -7.078125 C 8.203125 -7.578125 7.914062 -7.945312 7.5625 -8.1875 C 7.207031 -8.4375 6.734375 -8.5625 6.140625 -8.5625 C 5.367188 -8.5625 4.769531 -8.296875 4.34375 -7.765625 C 3.914062 -7.234375 3.703125 -6.414062 3.703125 -5.3125 C 3.703125 -4.21875 3.914062 -3.398438 4.34375 -2.859375 C 4.78125 -2.328125 5.394531 -2.0625 6.1875 -2.0625 C 6.769531 -2.0625 7.257812 -2.21875 7.65625 -2.53125 C 8.0625 -2.84375 8.347656 -3.289062 8.515625 -3.875 L 8.71875 -3.890625 L 10.625 -2.84375 C 10.351562 -1.945312 9.851562 -1.210938 9.125 -0.640625 C 8.394531 -0.078125 7.414062 0.203125 6.1875 0.203125 Z M 6.1875 0.203125 "/></g></g></g><g fill="#ffffff" fill-opacity="1"><g transform="translate(115.396228, 51.408166)"><g><path d="M 1.53125 0 L 1.53125 -14.890625 L 4.203125 -14.890625 L 4.203125 -9.234375 L 4.40625 -9.1875 C 4.757812 -9.707031 5.191406 -10.109375 5.703125 -10.390625 C 6.210938 -10.679688 6.832031 -10.828125 7.5625 -10.828125 C 9.90625 -10.828125 11.078125 -9.5 11.078125 -6.84375 L 11.078125 0 L 8.40625 0 L 8.40625 -6.5 C 8.40625 -7.226562 8.257812 -7.753906 7.96875 -8.078125 C 7.675781 -8.398438 7.226562 -8.5625 6.625 -8.5625 C 5.875 -8.5625 5.28125 -8.3125 4.84375 -7.8125 C 4.414062 -7.320312 4.203125 -6.550781 4.203125 -5.5 L 4.203125 0 Z M 1.53125 0 "/></g></g></g><g fill="#ffffff" fill-opacity="1"><g transform="translate(127.830496, 51.408166)"><g><path d="M 6.171875 0.203125 C 5.128906 0.203125 4.210938 -0.0078125 3.421875 -0.4375 C 2.640625 -0.863281 2.03125 -1.488281 1.59375 -2.3125 C 1.164062 -3.132812 0.953125 -4.132812 0.953125 -5.3125 C 0.953125 -6.476562 1.164062 -7.472656 1.59375 -8.296875 C 2.03125 -9.128906 2.640625 -9.757812 3.421875 -10.1875 C 4.210938 -10.613281 5.128906 -10.828125 6.171875 -10.828125 C 7.210938 -10.828125 8.125 -10.613281 8.90625 -10.1875 C 9.695312 -9.757812 10.3125 -9.128906 10.75 -8.296875 C 11.1875 -7.472656 11.40625 -6.476562 11.40625 -5.3125 C 11.40625 -4.132812 11.1875 -3.132812 10.75 -2.3125 C 10.3125 -1.488281 9.695312 -0.863281 8.90625 -0.4375 C 8.125 -0.0078125 7.210938 0.203125 6.171875 0.203125 Z M 6.171875 -2.0625 C 7.816406 -2.0625 8.640625 -3.144531 8.640625 -5.3125 C 8.640625 -6.425781 8.425781 -7.242188 8 -7.765625 C 7.582031 -8.296875 6.972656 -8.5625 6.171875 -8.5625 C 4.523438 -8.5625 3.703125 -7.476562 3.703125 -5.3125 C 3.703125 -3.144531 4.523438 -2.0625 6.171875 -2.0625 Z M 6.171875 -2.0625 "/></g></g></g><g fill="#ffffff" fill-opacity="1"><g transform="translate(140.168523, 51.408166)"><g><path d="M 6.171875 0.203125 C 5.128906 0.203125 4.210938 -0.0078125 3.421875 -0.4375 C 2.640625 -0.863281 2.03125 -1.488281 1.59375 -2.3125 C 1.164062 -3.132812 0.953125 -4.132812 0.953125 -5.3125 C 0.953125 -6.476562 1.164062 -7.472656 1.59375 -8.296875 C 2.03125 -9.128906 2.640625 -9.757812 3.421875 -10.1875 C 4.210938 -10.613281 5.128906 -10.828125 6.171875 -10.828125 C 7.210938 -10.828125 8.125 -10.613281 8.90625 -10.1875 C 9.695312 -9.757812 10.3125 -9.128906 10.75 -8.296875 C 11.1875 -7.472656 11.40625 -6.476562 11.40625 -5.3125 C 11.40625 -4.132812 11.1875 -3.132812 10.75 -2.3125 C 10.3125 -1.488281 9.695312 -0.863281 8.90625 -0.4375 C 8.125 -0.0078125 7.210938 0.203125 6.171875 0.203125 Z M 6.171875 -2.0625 C 7.816406 -2.0625 8.640625 -3.144531 8.640625 -5.3125 C 8.640625 -6.425781 8.425781 -7.242188 8 -7.765625 C 7.582031 -8.296875 6.972656 -8.5625 6.171875 -8.5625 C 4.523438 -8.5625 3.703125 -7.476562 3.703125 -5.3125 C 3.703125 -3.144531 4.523438 -2.0625 6.171875 -2.0625 Z M 6.171875 -2.0625 "/></g></g></g><g fill="#ffffff" fill-opacity="1"><g transform="translate(152.50655, 51.408166)"><g><path d="M 4.40625 0.203125 C 3.445312 0.203125 2.71875 -0.0507812 2.21875 -0.5625 C 1.71875 -1.082031 1.46875 -1.867188 1.46875 -2.921875 L 1.46875 -14.890625 L 4.125 -14.890625 L 4.125 -3.03125 C 4.125 -2.382812 4.394531 -2.0625 4.9375 -2.0625 C 5.09375 -2.0625 5.257812 -2.085938 5.4375 -2.140625 L 5.5625 -2.09375 L 5.8125 -0.046875 C 5.65625 0.0234375 5.457031 0.0820312 5.21875 0.125 C 4.976562 0.175781 4.707031 0.203125 4.40625 0.203125 Z M 4.40625 0.203125 "/></g></g></g><g fill="#ffffff" fill-opacity="1"><g transform="translate(158.608196, 51.408166)"><g/></g></g><g fill="#ffffff" fill-opacity="1"><g transform="translate(163.25661, 51.408166)"><g><path d="M 6.171875 0.203125 C 5.128906 0.203125 4.210938 -0.0078125 3.421875 -0.4375 C 2.640625 -0.863281 2.03125 -1.488281 1.59375 -2.3125 C 1.164062 -3.132812 0.953125 -4.132812 0.953125 -5.3125 C 0.953125 -6.476562 1.164062 -7.472656 1.59375 -8.296875 C 2.03125 -9.128906 2.640625 -9.757812 3.421875 -10.1875 C 4.210938 -10.613281 5.128906 -10.828125 6.171875 -10.828125 C 7.210938 -10.828125 8.125 -10.613281 8.90625 -10.1875 C 9.695312 -9.757812 10.3125 -9.128906 10.75 -8.296875 C 11.1875 -7.472656 11.40625 -6.476562 11.40625 -5.3125 C 11.40625 -4.132812 11.1875 -3.132812 10.75 -2.3125 C 10.3125 -1.488281 9.695312 -0.863281 8.90625 -0.4375 C 8.125 -0.0078125 7.210938 0.203125 6.171875 0.203125 Z M 6.171875 -2.0625 C 7.816406 -2.0625 8.640625 -3.144531 8.640625 -5.3125 C 8.640625 -6.425781 8.425781 -7.242188 8 -7.765625 C 7.582031 -8.296875 6.972656 -8.5625 6.171875 -8.5625 C 4.523438 -8.5625 3.703125 -7.476562 3.703125 -5.3125 C 3.703125 -3.144531 4.523438 -2.0625 6.171875 -2.0625 Z M 6.171875 -2.0625 "/></g></g></g><g fill="#ffffff" fill-opacity="1"><g transform="translate(175.594637, 51.408166)"><g><path d="M 1.859375 0 L 1.859375 -8.515625 L 0.359375 -8.515625 L 0.359375 -10.625 L 1.859375 -10.625 C 1.742188 -11.070312 1.6875 -11.492188 1.6875 -11.890625 C 1.6875 -12.566406 1.84375 -13.144531 2.15625 -13.625 C 2.46875 -14.101562 2.910156 -14.46875 3.484375 -14.71875 C 4.066406 -14.96875 4.753906 -15.09375 5.546875 -15.09375 C 6.722656 -15.09375 7.597656 -14.890625 8.171875 -14.484375 L 7.546875 -12.515625 L 7.34375 -12.484375 C 6.945312 -12.765625 6.4375 -12.90625 5.8125 -12.90625 C 5.332031 -12.90625 4.972656 -12.785156 4.734375 -12.546875 C 4.492188 -12.316406 4.375 -12 4.375 -11.59375 C 4.375 -11.414062 4.382812 -11.253906 4.40625 -11.109375 C 4.425781 -10.972656 4.46875 -10.8125 4.53125 -10.625 L 7.5625 -10.625 L 7.5625 -8.515625 L 4.53125 -8.515625 L 4.53125 0 Z M 1.859375 0 "/></g></g></g><g fill="#ffffff" fill-opacity="1"><g transform="translate(183.255916, 51.408166)"><g/></g></g><g fill="#ffffff" fill-opacity="1"><g transform="translate(92.365886, 70.814981)"><g><path d="M 1.828125 0 L 1.828125 -14.078125 L 7.84375 -14.078125 C 8.707031 -14.078125 9.4375 -13.941406 10.03125 -13.671875 C 10.632812 -13.398438 11.085938 -13.007812 11.390625 -12.5 C 11.703125 -12 11.859375 -11.40625 11.859375 -10.71875 C 11.859375 -10.09375 11.707031 -9.539062 11.40625 -9.0625 C 11.101562 -8.59375 10.671875 -8.210938 10.109375 -7.921875 L 10.109375 -7.71875 C 10.992188 -7.488281 11.675781 -7.066406 12.15625 -6.453125 C 12.632812 -5.847656 12.875 -5.101562 12.875 -4.21875 C 12.875 -2.863281 12.46875 -1.820312 11.65625 -1.09375 C 10.851562 -0.363281 9.648438 0 8.046875 0 Z M 7.265625 -8.46875 C 8.554688 -8.46875 9.203125 -9.050781 9.203125 -10.21875 C 9.203125 -10.8125 9.039062 -11.253906 8.71875 -11.546875 C 8.394531 -11.835938 7.910156 -11.984375 7.265625 -11.984375 L 4.609375 -11.984375 L 4.609375 -8.46875 Z M 7.765625 -2.203125 C 9.304688 -2.203125 10.078125 -2.898438 10.078125 -4.296875 C 10.078125 -5.691406 9.304688 -6.390625 7.765625 -6.390625 L 4.609375 -6.390625 L 4.609375 -2.203125 Z M 7.765625 -2.203125 "/></g></g></g><g fill="#ffffff" fill-opacity="1"><g transform="translate(106.128272, 70.814981)"><g><path d="M 4.859375 0.203125 C 3.671875 0.203125 2.789062 -0.117188 2.21875 -0.765625 C 1.65625 -1.421875 1.375 -2.359375 1.375 -3.578125 L 1.375 -10.625 L 4.03125 -10.625 L 4.03125 -3.921875 C 4.03125 -3.273438 4.171875 -2.800781 4.453125 -2.5 C 4.734375 -2.195312 5.164062 -2.046875 5.75 -2.046875 C 6.488281 -2.046875 7.0625 -2.285156 7.46875 -2.765625 C 7.882812 -3.253906 8.09375 -4.019531 8.09375 -5.0625 L 8.09375 -10.625 L 10.75 -10.625 L 10.75 0 L 8.1875 0 L 8.1875 -1.5625 L 7.984375 -1.609375 C 7.648438 -0.992188 7.238281 -0.535156 6.75 -0.234375 C 6.257812 0.0546875 5.628906 0.203125 4.859375 0.203125 Z M 4.859375 0.203125 "/></g></g></g><g fill="#ffffff" fill-opacity="1"><g transform="translate(118.408555, 70.814981)"><g><path d="M 4.96875 0.203125 C 4.238281 0.203125 3.570312 0.117188 2.96875 -0.046875 C 2.363281 -0.222656 1.847656 -0.457031 1.421875 -0.75 C 1.003906 -1.050781 0.691406 -1.394531 0.484375 -1.78125 L 1.96875 -3.375 L 2.171875 -3.375 C 2.523438 -2.90625 2.941406 -2.550781 3.421875 -2.3125 C 3.898438 -2.070312 4.421875 -1.953125 4.984375 -1.953125 C 5.503906 -1.953125 5.894531 -2.046875 6.15625 -2.234375 C 6.425781 -2.421875 6.5625 -2.6875 6.5625 -3.03125 C 6.5625 -3.300781 6.460938 -3.523438 6.265625 -3.703125 C 6.078125 -3.890625 5.773438 -4.035156 5.359375 -4.140625 L 3.953125 -4.484375 C 2.898438 -4.734375 2.128906 -5.113281 1.640625 -5.625 C 1.160156 -6.144531 0.921875 -6.800781 0.921875 -7.59375 C 0.921875 -8.257812 1.085938 -8.832031 1.421875 -9.3125 C 1.753906 -9.800781 2.226562 -10.175781 2.84375 -10.4375 C 3.457031 -10.695312 4.171875 -10.828125 4.984375 -10.828125 C 5.941406 -10.828125 6.734375 -10.6875 7.359375 -10.40625 C 7.992188 -10.132812 8.488281 -9.765625 8.84375 -9.296875 L 7.40625 -7.765625 L 7.21875 -7.765625 C 6.925781 -8.097656 6.59375 -8.335938 6.21875 -8.484375 C 5.851562 -8.640625 5.441406 -8.71875 4.984375 -8.71875 C 3.929688 -8.71875 3.40625 -8.390625 3.40625 -7.734375 C 3.40625 -7.460938 3.503906 -7.238281 3.703125 -7.0625 C 3.898438 -6.894531 4.242188 -6.753906 4.734375 -6.640625 L 6.046875 -6.359375 C 7.128906 -6.128906 7.914062 -5.757812 8.40625 -5.25 C 8.90625 -4.738281 9.15625 -4.050781 9.15625 -3.1875 C 9.15625 -2.507812 8.988281 -1.914062 8.65625 -1.40625 C 8.320312 -0.894531 7.835938 -0.5 7.203125 -0.21875 C 6.578125 0.0625 5.832031 0.203125 4.96875 0.203125 Z M 4.96875 0.203125 "/></g></g></g><g fill="#ffffff" fill-opacity="1"><g transform="translate(128.196209, 70.814981)"><g><path d="M 2.859375 -11.890625 C 2.378906 -11.890625 1.988281 -12.035156 1.6875 -12.328125 C 1.382812 -12.617188 1.234375 -12.992188 1.234375 -13.453125 C 1.234375 -13.910156 1.382812 -14.285156 1.6875 -14.578125 C 1.988281 -14.867188 2.378906 -15.015625 2.859375 -15.015625 C 3.179688 -15.015625 3.46875 -14.945312 3.71875 -14.8125 C 3.96875 -14.675781 4.160156 -14.488281 4.296875 -14.25 C 4.429688 -14.019531 4.5 -13.753906 4.5 -13.453125 C 4.5 -13.160156 4.429688 -12.894531 4.296875 -12.65625 C 4.160156 -12.414062 3.96875 -12.226562 3.71875 -12.09375 C 3.46875 -11.957031 3.179688 -11.890625 2.859375 -11.890625 Z M 1.53125 0 L 1.53125 -10.625 L 4.203125 -10.625 L 4.203125 0 Z M 1.53125 0 "/></g></g></g><g fill="#ffffff" fill-opacity="1"><g transform="translate(133.912893, 70.814981)"><g><path d="M 1.53125 0 L 1.53125 -10.625 L 4.09375 -10.625 L 4.09375 -9.0625 L 4.296875 -9.015625 C 4.953125 -10.222656 6.023438 -10.828125 7.515625 -10.828125 C 8.734375 -10.828125 9.628906 -10.488281 10.203125 -9.8125 C 10.785156 -9.144531 11.078125 -8.175781 11.078125 -6.90625 L 11.078125 0 L 8.40625 0 L 8.40625 -6.578125 C 8.40625 -7.285156 8.265625 -7.789062 7.984375 -8.09375 C 7.703125 -8.40625 7.25 -8.5625 6.625 -8.5625 C 5.863281 -8.5625 5.269531 -8.316406 4.84375 -7.828125 C 4.414062 -7.335938 4.203125 -6.5625 4.203125 -5.5 L 4.203125 0 Z M 1.53125 0 "/></g></g></g><g fill="#ffffff" fill-opacity="1"><g transform="translate(146.34716, 70.814981)"><g><path d="M 10.5 -4.703125 L 3.671875 -4.703125 C 3.742188 -3.785156 4.003906 -3.113281 4.453125 -2.6875 C 4.898438 -2.269531 5.515625 -2.0625 6.296875 -2.0625 C 6.910156 -2.0625 7.40625 -2.175781 7.78125 -2.40625 C 8.15625 -2.632812 8.457031 -2.976562 8.6875 -3.4375 L 8.890625 -3.4375 L 10.671875 -2.296875 C 10.316406 -1.554688 9.789062 -0.953125 9.09375 -0.484375 C 8.394531 -0.0234375 7.460938 0.203125 6.296875 0.203125 C 5.203125 0.203125 4.253906 -0.00390625 3.453125 -0.421875 C 2.648438 -0.835938 2.03125 -1.457031 1.59375 -2.28125 C 1.164062 -3.113281 0.953125 -4.125 0.953125 -5.3125 C 0.953125 -6.507812 1.179688 -7.519531 1.640625 -8.34375 C 2.097656 -9.175781 2.710938 -9.796875 3.484375 -10.203125 C 4.265625 -10.617188 5.140625 -10.828125 6.109375 -10.828125 C 7.609375 -10.828125 8.753906 -10.425781 9.546875 -9.625 C 10.347656 -8.832031 10.75 -7.664062 10.75 -6.125 C 10.75 -5.5625 10.734375 -5.128906 10.703125 -4.828125 Z M 8.203125 -6.4375 C 8.179688 -7.238281 7.992188 -7.820312 7.640625 -8.1875 C 7.285156 -8.5625 6.773438 -8.75 6.109375 -8.75 C 4.753906 -8.75 3.957031 -7.976562 3.71875 -6.4375 Z M 8.203125 -6.4375 "/></g></g></g><g fill="#ffffff" fill-opacity="1"><g transform="translate(157.886392, 70.814981)"><g><path d="M 4.96875 0.203125 C 4.238281 0.203125 3.570312 0.117188 2.96875 -0.046875 C 2.363281 -0.222656 1.847656 -0.457031 1.421875 -0.75 C 1.003906 -1.050781 0.691406 -1.394531 0.484375 -1.78125 L 1.96875 -3.375 L 2.171875 -3.375 C 2.523438 -2.90625 2.941406 -2.550781 3.421875 -2.3125 C 3.898438 -2.070312 4.421875 -1.953125 4.984375 -1.953125 C 5.503906 -1.953125 5.894531 -2.046875 6.15625 -2.234375 C 6.425781 -2.421875 6.5625 -2.6875 6.5625 -3.03125 C 6.5625 -3.300781 6.460938 -3.523438 6.265625 -3.703125 C 6.078125 -3.890625 5.773438 -4.035156 5.359375 -4.140625 L 3.953125 -4.484375 C 2.898438 -4.734375 2.128906 -5.113281 1.640625 -5.625 C 1.160156 -6.144531 0.921875 -6.800781 0.921875 -7.59375 C 0.921875 -8.257812 1.085938 -8.832031 1.421875 -9.3125 C 1.753906 -9.800781 2.226562 -10.175781 2.84375 -10.4375 C 3.457031 -10.695312 4.171875 -10.828125 4.984375 -10.828125 C 5.941406 -10.828125 6.734375 -10.6875 7.359375 -10.40625 C 7.992188 -10.132812 8.488281 -9.765625 8.84375 -9.296875 L 7.40625 -7.765625 L 7.21875 -7.765625 C 6.925781 -8.097656 6.59375 -8.335938 6.21875 -8.484375 C 5.851562 -8.640625 5.441406 -8.71875 4.984375 -8.71875 C 3.929688 -8.71875 3.40625 -8.390625 3.40625 -7.734375 C 3.40625 -7.460938 3.503906 -7.238281 3.703125 -7.0625 C 3.898438 -6.894531 4.242188 -6.753906 4.734375 -6.640625 L 6.046875 -6.359375 C 7.128906 -6.128906 7.914062 -5.757812 8.40625 -5.25 C 8.90625 -4.738281 9.15625 -4.050781 9.15625 -3.1875 C 9.15625 -2.507812 8.988281 -1.914062 8.65625 -1.40625 C 8.320312 -0.894531 7.835938 -0.5 7.203125 -0.21875 C 6.578125 0.0625 5.832031 0.203125 4.96875 0.203125 Z M 4.96875 0.203125 "/></g></g></g><g fill="#ffffff" fill-opacity="1"><g transform="translate(167.674046, 70.814981)"><g><path d="M 4.96875 0.203125 C 4.238281 0.203125 3.570312 0.117188 2.96875 -0.046875 C 2.363281 -0.222656 1.847656 -0.457031 1.421875 -0.75 C 1.003906 -1.050781 0.691406 -1.394531 0.484375 -1.78125 L 1.96875 -3.375 L 2.171875 -3.375 C 2.523438 -2.90625 2.941406 -2.550781 3.421875 -2.3125 C 3.898438 -2.070312 4.421875 -1.953125 4.984375 -1.953125 C 5.503906 -1.953125 5.894531 -2.046875 6.15625 -2.234375 C 6.425781 -2.421875 6.5625 -2.6875 6.5625 -3.03125 C 6.5625 -3.300781 6.460938 -3.523438 6.265625 -3.703125 C 6.078125 -3.890625 5.773438 -4.035156 5.359375 -4.140625 L 3.953125 -4.484375 C 2.898438 -4.734375 2.128906 -5.113281 1.640625 -5.625 C 1.160156 -6.144531 0.921875 -6.800781 0.921875 -7.59375 C 0.921875 -8.257812 1.085938 -8.832031 1.421875 -9.3125 C 1.753906 -9.800781 2.226562 -10.175781 2.84375 -10.4375 C 3.457031 -10.695312 4.171875 -10.828125 4.984375 -10.828125 C 5.941406 -10.828125 6.734375 -10.6875 7.359375 -10.40625 C 7.992188 -10.132812 8.488281 -9.765625 8.84375 -9.296875 L 7.40625 -7.765625 L 7.21875 -7.765625 C 6.925781 -8.097656 6.59375 -8.335938 6.21875 -8.484375 C 5.851562 -8.640625 5.441406 -8.71875 4.984375 -8.71875 C 3.929688 -8.71875 3.40625 -8.390625 3.40625 -7.734375 C 3.40625 -7.460938 3.503906 -7.238281 3.703125 -7.0625 C 3.898438 -6.894531 4.242188 -6.753906 4.734375 -6.640625 L 6.046875 -6.359375 C 7.128906 -6.128906 7.914062 -5.757812 8.40625 -5.25 C 8.90625 -4.738281 9.15625 -4.050781 9.15625 -3.1875 C 9.15625 -2.507812 8.988281 -1.914062 8.65625 -1.40625 C 8.320312 -0.894531 7.835938 -0.5 7.203125 -0.21875 C 6.578125 0.0625 5.832031 0.203125 4.96875 0.203125 Z M 4.96875 0.203125 "/></g></g></g><g fill="#ffffff" fill-opacity="1"><g transform="translate(94.072809, 81.846101)"><g><path d="M 5.640625 -7.03125 L 5.640625 -5.875 L 3.609375 -5.875 L 3.609375 0 L 2.21875 0 L 2.21875 -5.875 L 0.1875 -5.875 L 0.1875 -7.03125 Z M 5.640625 -7.03125 "/></g></g></g><g fill="#ffffff" fill-opacity="1"><g transform="translate(99.904981, 81.846101)"><g><path d="M 0.765625 0 L 0.765625 -7.4375 L 2.09375 -7.4375 L 2.09375 -4.609375 L 2.203125 -4.59375 C 2.378906 -4.851562 2.59375 -5.050781 2.84375 -5.1875 C 3.101562 -5.332031 3.414062 -5.40625 3.78125 -5.40625 C 4.945312 -5.40625 5.53125 -4.742188 5.53125 -3.421875 L 5.53125 0 L 4.203125 0 L 4.203125 -3.25 C 4.203125 -3.613281 4.128906 -3.875 3.984375 -4.03125 C 3.835938 -4.195312 3.613281 -4.28125 3.3125 -4.28125 C 2.9375 -4.28125 2.640625 -4.15625 2.421875 -3.90625 C 2.203125 -3.65625 2.09375 -3.269531 2.09375 -2.75 L 2.09375 0 Z M 0.765625 0 "/></g></g></g><g fill="#ffffff" fill-opacity="1"><g transform="translate(106.122115, 81.846101)"><g><path d="M 5.25 -2.359375 L 1.828125 -2.359375 C 1.867188 -1.890625 2 -1.550781 2.21875 -1.34375 C 2.445312 -1.132812 2.757812 -1.03125 3.15625 -1.03125 C 3.457031 -1.03125 3.703125 -1.085938 3.890625 -1.203125 C 4.078125 -1.316406 4.226562 -1.488281 4.34375 -1.71875 L 4.453125 -1.71875 L 5.328125 -1.15625 C 5.160156 -0.78125 4.898438 -0.476562 4.546875 -0.25 C 4.203125 -0.0195312 3.738281 0.09375 3.15625 0.09375 C 2.601562 0.09375 2.125 -0.0078125 1.71875 -0.21875 C 1.320312 -0.425781 1.015625 -0.734375 0.796875 -1.140625 C 0.585938 -1.554688 0.484375 -2.0625 0.484375 -2.65625 C 0.484375 -3.257812 0.59375 -3.765625 0.8125 -4.171875 C 1.039062 -4.585938 1.347656 -4.894531 1.734375 -5.09375 C 2.128906 -5.300781 2.566406 -5.40625 3.046875 -5.40625 C 3.796875 -5.40625 4.367188 -5.207031 4.765625 -4.8125 C 5.171875 -4.414062 5.375 -3.832031 5.375 -3.0625 C 5.375 -2.78125 5.363281 -2.5625 5.34375 -2.40625 Z M 4.109375 -3.21875 C 4.085938 -3.625 3.988281 -3.914062 3.8125 -4.09375 C 3.644531 -4.28125 3.390625 -4.375 3.046875 -4.375 C 2.378906 -4.375 1.984375 -3.988281 1.859375 -3.21875 Z M 4.109375 -3.21875 "/></g></g></g><g fill="#ffffff" fill-opacity="1"><g transform="translate(111.891734, 81.846101)"><g/></g></g><g fill="#ffffff" fill-opacity="1"><g transform="translate(114.215945, 81.846101)"><g><path d="M 3.640625 -7.03125 C 4.140625 -7.03125 4.566406 -6.9375 4.921875 -6.75 C 5.285156 -6.570312 5.554688 -6.316406 5.734375 -5.984375 C 5.921875 -5.648438 6.015625 -5.265625 6.015625 -4.828125 C 6.015625 -4.390625 5.921875 -4.003906 5.734375 -3.671875 C 5.554688 -3.335938 5.285156 -3.078125 4.921875 -2.890625 C 4.566406 -2.710938 4.140625 -2.625 3.640625 -2.625 L 2.3125 -2.625 L 2.3125 0 L 0.921875 0 L 0.921875 -7.03125 Z M 3.453125 -3.71875 C 4.222656 -3.71875 4.609375 -4.085938 4.609375 -4.828125 C 4.609375 -5.566406 4.222656 -5.9375 3.453125 -5.9375 L 2.3125 -5.9375 L 2.3125 -3.71875 Z M 3.453125 -3.71875 "/></g></g></g><g fill="#ffffff" fill-opacity="1"><g transform="translate(120.644808, 81.846101)"><g><path d="M 0.765625 0 L 0.765625 -5.3125 L 2.0625 -5.3125 L 2.0625 -4.515625 L 2.15625 -4.5 C 2.289062 -4.789062 2.460938 -5.003906 2.671875 -5.140625 C 2.878906 -5.285156 3.128906 -5.359375 3.421875 -5.359375 C 3.722656 -5.359375 3.953125 -5.304688 4.109375 -5.203125 L 3.890625 -4.046875 L 3.78125 -4.03125 C 3.695312 -4.070312 3.613281 -4.097656 3.53125 -4.109375 C 3.457031 -4.128906 3.363281 -4.140625 3.25 -4.140625 C 2.875 -4.140625 2.585938 -4.003906 2.390625 -3.734375 C 2.191406 -3.472656 2.09375 -3.054688 2.09375 -2.484375 L 2.09375 0 Z M 0.765625 0 "/></g></g></g><g fill="#ffffff" fill-opacity="1"><g transform="translate(124.807211, 81.846101)"><g><path d="M 1.4375 -5.953125 C 1.1875 -5.953125 0.984375 -6.023438 0.828125 -6.171875 C 0.679688 -6.316406 0.609375 -6.503906 0.609375 -6.734375 C 0.609375 -6.960938 0.679688 -7.148438 0.828125 -7.296875 C 0.984375 -7.441406 1.1875 -7.515625 1.4375 -7.515625 C 1.59375 -7.515625 1.734375 -7.476562 1.859375 -7.40625 C 1.984375 -7.34375 2.078125 -7.25 2.140625 -7.125 C 2.210938 -7.007812 2.25 -6.878906 2.25 -6.734375 C 2.25 -6.578125 2.210938 -6.4375 2.140625 -6.3125 C 2.078125 -6.195312 1.984375 -6.109375 1.859375 -6.046875 C 1.734375 -5.984375 1.59375 -5.953125 1.4375 -5.953125 Z M 0.765625 0 L 0.765625 -5.3125 L 2.09375 -5.3125 L 2.09375 0 Z M 0.765625 0 "/></g></g></g><g fill="#ffffff" fill-opacity="1"><g transform="translate(127.665553, 81.846101)"><g><path d="M 3.65625 0 L 2.0625 0 L 0.09375 -5.3125 L 1.5 -5.3125 L 2.8125 -1.53125 L 2.921875 -1.53125 L 4.25 -5.3125 L 5.609375 -5.3125 Z M 3.65625 0 "/></g></g></g><g fill="#ffffff" fill-opacity="1"><g transform="translate(133.372612, 81.846101)"><g><path d="M 2.0625 0.09375 C 1.726562 0.09375 1.4375 0.03125 1.1875 -0.09375 C 0.9375 -0.21875 0.742188 -0.398438 0.609375 -0.640625 C 0.472656 -0.878906 0.40625 -1.171875 0.40625 -1.515625 C 0.40625 -1.828125 0.472656 -2.085938 0.609375 -2.296875 C 0.742188 -2.515625 0.953125 -2.691406 1.234375 -2.828125 C 1.515625 -2.960938 1.882812 -3.066406 2.34375 -3.140625 C 2.65625 -3.191406 2.894531 -3.25 3.0625 -3.3125 C 3.226562 -3.375 3.335938 -3.441406 3.390625 -3.515625 C 3.453125 -3.597656 3.484375 -3.695312 3.484375 -3.8125 C 3.484375 -3.976562 3.421875 -4.109375 3.296875 -4.203125 C 3.179688 -4.296875 2.988281 -4.34375 2.71875 -4.34375 C 2.414062 -4.34375 2.128906 -4.273438 1.859375 -4.140625 C 1.597656 -4.003906 1.367188 -3.832031 1.171875 -3.625 L 1.078125 -3.625 L 0.53125 -4.46875 C 0.789062 -4.757812 1.113281 -4.988281 1.5 -5.15625 C 1.894531 -5.320312 2.320312 -5.40625 2.78125 -5.40625 C 3.488281 -5.40625 4 -5.253906 4.3125 -4.953125 C 4.625 -4.660156 4.78125 -4.238281 4.78125 -3.6875 L 4.78125 -1.390625 C 4.78125 -1.148438 4.882812 -1.03125 5.09375 -1.03125 C 5.175781 -1.03125 5.253906 -1.046875 5.328125 -1.078125 L 5.390625 -1.046875 L 5.5 -0.125 C 5.414062 -0.0703125 5.304688 -0.03125 5.171875 0 C 5.046875 0.0195312 4.90625 0.03125 4.75 0.03125 C 4.4375 0.03125 4.1875 -0.0234375 4 -0.140625 C 3.820312 -0.265625 3.695312 -0.457031 3.625 -0.71875 L 3.53125 -0.734375 C 3.269531 -0.179688 2.78125 0.09375 2.0625 0.09375 Z M 2.5 -0.890625 C 2.800781 -0.890625 3.046875 -0.992188 3.234375 -1.203125 C 3.421875 -1.410156 3.515625 -1.695312 3.515625 -2.0625 L 3.515625 -2.609375 L 3.421875 -2.625 C 3.335938 -2.5625 3.226562 -2.507812 3.09375 -2.46875 C 2.96875 -2.425781 2.785156 -2.382812 2.546875 -2.34375 C 2.253906 -2.289062 2.046875 -2.207031 1.921875 -2.09375 C 1.796875 -1.976562 1.734375 -1.8125 1.734375 -1.59375 C 1.734375 -1.363281 1.796875 -1.1875 1.921875 -1.0625 C 2.054688 -0.945312 2.25 -0.890625 2.5 -0.890625 Z M 2.5 -0.890625 "/></g></g></g><g fill="#ffffff" fill-opacity="1"><g transform="translate(138.968998, 81.846101)"><g><path d="M 3.65625 -1.265625 L 4.015625 -0.28125 C 3.867188 -0.15625 3.6875 -0.0625 3.46875 0 C 3.25 0.0625 3 0.09375 2.71875 0.09375 C 2.144531 0.09375 1.707031 -0.0625 1.40625 -0.375 C 1.113281 -0.6875 0.96875 -1.140625 0.96875 -1.734375 L 0.96875 -4.25 L 0.15625 -4.25 L 0.15625 -5.3125 L 0.96875 -5.3125 L 0.96875 -6.34375 L 2.296875 -6.5625 L 2.296875 -5.3125 L 3.8125 -5.3125 L 3.8125 -4.25 L 2.296875 -4.25 L 2.296875 -1.828125 C 2.296875 -1.566406 2.347656 -1.375 2.453125 -1.25 C 2.566406 -1.132812 2.726562 -1.078125 2.9375 -1.078125 C 3.175781 -1.078125 3.382812 -1.140625 3.5625 -1.265625 Z M 3.65625 -1.265625 "/></g></g></g><g fill="#ffffff" fill-opacity="1"><g transform="translate(143.092906, 81.846101)"><g><path d="M 5.25 -2.359375 L 1.828125 -2.359375 C 1.867188 -1.890625 2 -1.550781 2.21875 -1.34375 C 2.445312 -1.132812 2.757812 -1.03125 3.15625 -1.03125 C 3.457031 -1.03125 3.703125 -1.085938 3.890625 -1.203125 C 4.078125 -1.316406 4.226562 -1.488281 4.34375 -1.71875 L 4.453125 -1.71875 L 5.328125 -1.15625 C 5.160156 -0.78125 4.898438 -0.476562 4.546875 -0.25 C 4.203125 -0.0195312 3.738281 0.09375 3.15625 0.09375 C 2.601562 0.09375 2.125 -0.0078125 1.71875 -0.21875 C 1.320312 -0.425781 1.015625 -0.734375 0.796875 -1.140625 C 0.585938 -1.554688 0.484375 -2.0625 0.484375 -2.65625 C 0.484375 -3.257812 0.59375 -3.765625 0.8125 -4.171875 C 1.039062 -4.585938 1.347656 -4.894531 1.734375 -5.09375 C 2.128906 -5.300781 2.566406 -5.40625 3.046875 -5.40625 C 3.796875 -5.40625 4.367188 -5.207031 4.765625 -4.8125 C 5.171875 -4.414062 5.375 -3.832031 5.375 -3.0625 C 5.375 -2.78125 5.363281 -2.5625 5.34375 -2.40625 Z M 4.109375 -3.21875 C 4.085938 -3.625 3.988281 -3.914062 3.8125 -4.09375 C 3.644531 -4.28125 3.390625 -4.375 3.046875 -4.375 C 2.378906 -4.375 1.984375 -3.988281 1.859375 -3.21875 Z M 4.109375 -3.21875 "/></g></g></g><g fill="#ffffff" fill-opacity="1"><g transform="translate(148.862525, 81.846101)"><g/></g></g><g fill="#ffffff" fill-opacity="1"><g transform="translate(151.186736, 81.846101)"><g><path d="M 5.453125 -4.390625 L 5.453125 -7.03125 L 6.84375 -7.03125 L 6.84375 0 L 5.453125 0 L 5.453125 -3.203125 L 2.3125 -3.203125 L 2.3125 0 L 0.921875 0 L 0.921875 -7.03125 L 2.3125 -7.03125 L 2.3125 -4.390625 Z M 5.453125 -4.390625 "/></g></g></g><g fill="#ffffff" fill-opacity="1"><g transform="translate(158.948532, 81.846101)"><g><path d="M 1.4375 -5.953125 C 1.1875 -5.953125 0.984375 -6.023438 0.828125 -6.171875 C 0.679688 -6.316406 0.609375 -6.503906 0.609375 -6.734375 C 0.609375 -6.960938 0.679688 -7.148438 0.828125 -7.296875 C 0.984375 -7.441406 1.1875 -7.515625 1.4375 -7.515625 C 1.59375 -7.515625 1.734375 -7.476562 1.859375 -7.40625 C 1.984375 -7.34375 2.078125 -7.25 2.140625 -7.125 C 2.210938 -7.007812 2.25 -6.878906 2.25 -6.734375 C 2.25 -6.578125 2.210938 -6.4375 2.140625 -6.3125 C 2.078125 -6.195312 1.984375 -6.109375 1.859375 -6.046875 C 1.734375 -5.984375 1.59375 -5.953125 1.4375 -5.953125 Z M 0.765625 0 L 0.765625 -5.3125 L 2.09375 -5.3125 L 2.09375 0 Z M 0.765625 0 "/></g></g></g><g fill="#ffffff" fill-opacity="1"><g transform="translate(161.806874, 81.846101)"><g><path d="M 2.75 2.25 C 1.875 2.25 1.226562 2.117188 0.8125 1.859375 C 0.394531 1.609375 0.1875 1.253906 0.1875 0.796875 C 0.1875 0.515625 0.273438 0.285156 0.453125 0.109375 C 0.628906 -0.0664062 0.882812 -0.1875 1.21875 -0.25 L 1.21875 -0.34375 C 1.039062 -0.457031 0.910156 -0.582031 0.828125 -0.71875 C 0.753906 -0.851562 0.71875 -1.003906 0.71875 -1.171875 C 0.71875 -1.597656 0.992188 -1.890625 1.546875 -2.046875 L 1.546875 -2.140625 C 1.265625 -2.304688 1.050781 -2.507812 0.90625 -2.75 C 0.757812 -2.988281 0.6875 -3.28125 0.6875 -3.625 C 0.6875 -3.976562 0.765625 -4.289062 0.921875 -4.5625 C 1.085938 -4.832031 1.328125 -5.039062 1.640625 -5.1875 C 1.953125 -5.332031 2.328125 -5.40625 2.765625 -5.40625 C 3.210938 -5.40625 3.566406 -5.332031 3.828125 -5.1875 C 3.992188 -5.414062 4.085938 -5.6875 4.109375 -6 L 4.21875 -6.0625 L 5.171875 -5.828125 C 5.140625 -5.578125 5.0625 -5.363281 4.9375 -5.1875 C 4.820312 -5.019531 4.640625 -4.867188 4.390625 -4.734375 L 4.390625 -4.625 C 4.691406 -4.363281 4.84375 -4 4.84375 -3.53125 C 4.84375 -3.195312 4.757812 -2.898438 4.59375 -2.640625 C 4.4375 -2.378906 4.195312 -2.171875 3.875 -2.015625 C 3.5625 -1.867188 3.191406 -1.796875 2.765625 -1.796875 L 2.5625 -1.8125 C 2.4375 -1.8125 2.347656 -1.8125 2.296875 -1.8125 C 2.171875 -1.8125 2.070312 -1.78125 2 -1.71875 C 1.9375 -1.65625 1.90625 -1.570312 1.90625 -1.46875 C 1.90625 -1.351562 1.945312 -1.265625 2.03125 -1.203125 C 2.125 -1.140625 2.257812 -1.101562 2.4375 -1.09375 L 3.625 -1.046875 C 4.800781 -1.015625 5.390625 -0.507812 5.390625 0.46875 C 5.390625 0.8125 5.300781 1.113281 5.125 1.375 C 4.945312 1.644531 4.660156 1.859375 4.265625 2.015625 C 3.878906 2.171875 3.375 2.25 2.75 2.25 Z M 2.765625 -2.734375 C 3.023438 -2.734375 3.226562 -2.804688 3.375 -2.953125 C 3.519531 -3.109375 3.59375 -3.328125 3.59375 -3.609375 C 3.59375 -3.890625 3.519531 -4.101562 3.375 -4.25 C 3.226562 -4.394531 3.023438 -4.46875 2.765625 -4.46875 C 2.503906 -4.46875 2.300781 -4.394531 2.15625 -4.25 C 2.019531 -4.101562 1.953125 -3.890625 1.953125 -3.609375 C 1.953125 -3.328125 2.019531 -3.109375 2.15625 -2.953125 C 2.300781 -2.804688 2.503906 -2.734375 2.765625 -2.734375 Z M 2.75 1.28125 C 3.207031 1.28125 3.539062 1.21875 3.75 1.09375 C 3.957031 0.96875 4.0625 0.800781 4.0625 0.59375 C 4.0625 0.425781 4.003906 0.300781 3.890625 0.21875 C 3.785156 0.144531 3.617188 0.101562 3.390625 0.09375 L 2.34375 0.046875 C 2.3125 0.046875 2.28125 0.0390625 2.25 0.03125 C 2.21875 0.03125 2.1875 0.03125 2.15625 0.03125 C 1.925781 0.03125 1.753906 0.078125 1.640625 0.171875 C 1.523438 0.273438 1.46875 0.410156 1.46875 0.578125 C 1.46875 0.804688 1.570312 0.976562 1.78125 1.09375 C 2 1.21875 2.320312 1.28125 2.75 1.28125 Z M 2.75 1.28125 "/></g></g></g><g fill="#ffffff" fill-opacity="1"><g transform="translate(167.326268, 81.846101)"><g><path d="M 0.765625 0 L 0.765625 -7.4375 L 2.09375 -7.4375 L 2.09375 -4.609375 L 2.203125 -4.59375 C 2.378906 -4.851562 2.59375 -5.050781 2.84375 -5.1875 C 3.101562 -5.332031 3.414062 -5.40625 3.78125 -5.40625 C 4.945312 -5.40625 5.53125 -4.742188 5.53125 -3.421875 L 5.53125 0 L 4.203125 0 L 4.203125 -3.25 C 4.203125 -3.613281 4.128906 -3.875 3.984375 -4.03125 C 3.835938 -4.195312 3.613281 -4.28125 3.3125 -4.28125 C 2.9375 -4.28125 2.640625 -4.15625 2.421875 -3.90625 C 2.203125 -3.65625 2.09375 -3.269531 2.09375 -2.75 L 2.09375 0 Z M 0.765625 0 "/></g></g></g><g fill="#ffffff" fill-opacity="1"><g transform="translate(173.543402, 81.846101)"><g><path d="M 5.25 -2.359375 L 1.828125 -2.359375 C 1.867188 -1.890625 2 -1.550781 2.21875 -1.34375 C 2.445312 -1.132812 2.757812 -1.03125 3.15625 -1.03125 C 3.457031 -1.03125 3.703125 -1.085938 3.890625 -1.203125 C 4.078125 -1.316406 4.226562 -1.488281 4.34375 -1.71875 L 4.453125 -1.71875 L 5.328125 -1.15625 C 5.160156 -0.78125 4.898438 -0.476562 4.546875 -0.25 C 4.203125 -0.0195312 3.738281 0.09375 3.15625 0.09375 C 2.601562 0.09375 2.125 -0.0078125 1.71875 -0.21875 C 1.320312 -0.425781 1.015625 -0.734375 0.796875 -1.140625 C 0.585938 -1.554688 0.484375 -2.0625 0.484375 -2.65625 C 0.484375 -3.257812 0.59375 -3.765625 0.8125 -4.171875 C 1.039062 -4.585938 1.347656 -4.894531 1.734375 -5.09375 C 2.128906 -5.300781 2.566406 -5.40625 3.046875 -5.40625 C 3.796875 -5.40625 4.367188 -5.207031 4.765625 -4.8125 C 5.171875 -4.414062 5.375 -3.832031 5.375 -3.0625 C 5.375 -2.78125 5.363281 -2.5625 5.34375 -2.40625 Z M 4.109375 -3.21875 C 4.085938 -3.625 3.988281 -3.914062 3.8125 -4.09375 C 3.644531 -4.28125 3.390625 -4.375 3.046875 -4.375 C 2.378906 -4.375 1.984375 -3.988281 1.859375 -3.21875 Z M 4.109375 -3.21875 "/></g></g></g><g fill="#ffffff" fill-opacity="1"><g transform="translate(179.313021, 81.846101)"><g><path d="M 0.765625 0 L 0.765625 -5.3125 L 2.0625 -5.3125 L 2.0625 -4.515625 L 2.15625 -4.5 C 2.289062 -4.789062 2.460938 -5.003906 2.671875 -5.140625 C 2.878906 -5.285156 3.128906 -5.359375 3.421875 -5.359375 C 3.722656 -5.359375 3.953125 -5.304688 4.109375 -5.203125 L 3.890625 -4.046875 L 3.78125 -4.03125 C 3.695312 -4.070312 3.613281 -4.097656 3.53125 -4.109375 C 3.457031 -4.128906 3.363281 -4.140625 3.25 -4.140625 C 2.875 -4.140625 2.585938 -4.003906 2.390625 -3.734375 C 2.191406 -3.472656 2.09375 -3.054688 2.09375 -2.484375 L 2.09375 0 Z M 0.765625 0 "/></g></g></g><g fill="#ffffff" fill-opacity="1"><g transform="translate(94.072809, 91.549508)"><g><path d="M 6.75 0 L 5.296875 0 L 4.765625 -1.625 L 2.0625 -1.625 L 1.53125 0 L 0.109375 0 L 2.53125 -7.03125 L 4.328125 -7.03125 Z M 3.34375 -5.5625 L 2.4375 -2.796875 L 4.375 -2.796875 L 3.46875 -5.5625 Z M 3.34375 -5.5625 "/></g></g></g><g fill="#ffffff" fill-opacity="1"><g transform="translate(100.929946, 91.549508)"><g><path d="M 1.4375 -5.953125 C 1.1875 -5.953125 0.984375 -6.023438 0.828125 -6.171875 C 0.679688 -6.316406 0.609375 -6.503906 0.609375 -6.734375 C 0.609375 -6.960938 0.679688 -7.148438 0.828125 -7.296875 C 0.984375 -7.441406 1.1875 -7.515625 1.4375 -7.515625 C 1.59375 -7.515625 1.734375 -7.476562 1.859375 -7.40625 C 1.984375 -7.34375 2.078125 -7.25 2.140625 -7.125 C 2.210938 -7.007812 2.25 -6.878906 2.25 -6.734375 C 2.25 -6.578125 2.210938 -6.4375 2.140625 -6.3125 C 2.078125 -6.195312 1.984375 -6.109375 1.859375 -6.046875 C 1.734375 -5.984375 1.59375 -5.953125 1.4375 -5.953125 Z M 0.765625 0 L 0.765625 -5.3125 L 2.09375 -5.3125 L 2.09375 0 Z M 0.765625 0 "/></g></g></g><g fill="#ffffff" fill-opacity="1"><g transform="translate(103.788287, 91.549508)"><g/></g></g><g fill="#ffffff" fill-opacity="1"><g transform="translate(106.112498, 91.549508)"><g><path d="M 0.921875 0 L 0.921875 -7.03125 L 3.921875 -7.03125 C 4.347656 -7.03125 4.710938 -6.960938 5.015625 -6.828125 C 5.316406 -6.691406 5.546875 -6.5 5.703125 -6.25 C 5.859375 -6 5.9375 -5.703125 5.9375 -5.359375 C 5.9375 -5.046875 5.859375 -4.769531 5.703125 -4.53125 C 5.554688 -4.289062 5.34375 -4.101562 5.0625 -3.96875 L 5.0625 -3.859375 C 5.5 -3.742188 5.835938 -3.53125 6.078125 -3.21875 C 6.316406 -2.914062 6.4375 -2.546875 6.4375 -2.109375 C 6.4375 -1.429688 6.234375 -0.910156 5.828125 -0.546875 C 5.421875 -0.179688 4.820312 0 4.03125 0 Z M 3.625 -4.234375 C 4.28125 -4.234375 4.609375 -4.523438 4.609375 -5.109375 C 4.609375 -5.410156 4.523438 -5.632812 4.359375 -5.78125 C 4.203125 -5.925781 3.957031 -6 3.625 -6 L 2.3125 -6 L 2.3125 -4.234375 Z M 3.890625 -1.109375 C 4.648438 -1.109375 5.03125 -1.453125 5.03125 -2.140625 C 5.03125 -2.847656 4.648438 -3.203125 3.890625 -3.203125 L 2.3125 -3.203125 L 2.3125 -1.109375 Z M 3.890625 -1.109375 "/></g></g></g><g fill="#ffffff" fill-opacity="1"><g transform="translate(112.993691, 91.549508)"><g><path d="M 2.4375 0.09375 C 1.832031 0.09375 1.390625 -0.0664062 1.109375 -0.390625 C 0.828125 -0.710938 0.6875 -1.179688 0.6875 -1.796875 L 0.6875 -5.3125 L 2.015625 -5.3125 L 2.015625 -1.953125 C 2.015625 -1.628906 2.082031 -1.394531 2.21875 -1.25 C 2.363281 -1.101562 2.582031 -1.03125 2.875 -1.03125 C 3.238281 -1.03125 3.523438 -1.148438 3.734375 -1.390625 C 3.941406 -1.628906 4.046875 -2.007812 4.046875 -2.53125 L 4.046875 -5.3125 L 5.375 -5.3125 L 5.375 0 L 4.09375 0 L 4.09375 -0.78125 L 4 -0.796875 C 3.820312 -0.492188 3.609375 -0.269531 3.359375 -0.125 C 3.117188 0.0195312 2.8125 0.09375 2.4375 0.09375 Z M 2.4375 0.09375 "/></g></g></g><g fill="#ffffff" fill-opacity="1"><g transform="translate(119.133832, 91.549508)"><g><path d="M 2.484375 0.09375 C 2.117188 0.09375 1.785156 0.0507812 1.484375 -0.03125 C 1.179688 -0.113281 0.921875 -0.226562 0.703125 -0.375 C 0.492188 -0.53125 0.335938 -0.703125 0.234375 -0.890625 L 0.984375 -1.6875 L 1.078125 -1.6875 C 1.253906 -1.445312 1.460938 -1.269531 1.703125 -1.15625 C 1.941406 -1.039062 2.207031 -0.984375 2.5 -0.984375 C 2.757812 -0.984375 2.953125 -1.023438 3.078125 -1.109375 C 3.210938 -1.203125 3.28125 -1.335938 3.28125 -1.515625 C 3.28125 -1.648438 3.234375 -1.765625 3.140625 -1.859375 C 3.046875 -1.953125 2.890625 -2.019531 2.671875 -2.0625 L 1.96875 -2.234375 C 1.445312 -2.359375 1.0625 -2.550781 0.8125 -2.8125 C 0.570312 -3.070312 0.453125 -3.398438 0.453125 -3.796875 C 0.453125 -4.128906 0.535156 -4.414062 0.703125 -4.65625 C 0.878906 -4.90625 1.117188 -5.09375 1.421875 -5.21875 C 1.722656 -5.34375 2.082031 -5.40625 2.5 -5.40625 C 2.976562 -5.40625 3.375 -5.335938 3.6875 -5.203125 C 4 -5.066406 4.242188 -4.882812 4.421875 -4.65625 L 3.703125 -3.875 L 3.609375 -3.875 C 3.460938 -4.039062 3.296875 -4.160156 3.109375 -4.234375 C 2.921875 -4.316406 2.71875 -4.359375 2.5 -4.359375 C 1.96875 -4.359375 1.703125 -4.195312 1.703125 -3.875 C 1.703125 -3.726562 1.75 -3.613281 1.84375 -3.53125 C 1.945312 -3.445312 2.125 -3.378906 2.375 -3.328125 L 3.015625 -3.171875 C 3.554688 -3.054688 3.953125 -2.867188 4.203125 -2.609375 C 4.453125 -2.359375 4.578125 -2.019531 4.578125 -1.59375 C 4.578125 -1.257812 4.492188 -0.960938 4.328125 -0.703125 C 4.160156 -0.441406 3.921875 -0.242188 3.609375 -0.109375 C 3.296875 0.0234375 2.921875 0.09375 2.484375 0.09375 Z M 2.484375 0.09375 "/></g></g></g><g fill="#ffffff" fill-opacity="1"><g transform="translate(124.027663, 91.549508)"><g><path d="M 1.4375 -5.953125 C 1.1875 -5.953125 0.984375 -6.023438 0.828125 -6.171875 C 0.679688 -6.316406 0.609375 -6.503906 0.609375 -6.734375 C 0.609375 -6.960938 0.679688 -7.148438 0.828125 -7.296875 C 0.984375 -7.441406 1.1875 -7.515625 1.4375 -7.515625 C 1.59375 -7.515625 1.734375 -7.476562 1.859375 -7.40625 C 1.984375 -7.34375 2.078125 -7.25 2.140625 -7.125 C 2.210938 -7.007812 2.25 -6.878906 2.25 -6.734375 C 2.25 -6.578125 2.210938 -6.4375 2.140625 -6.3125 C 2.078125 -6.195312 1.984375 -6.109375 1.859375 -6.046875 C 1.734375 -5.984375 1.59375 -5.953125 1.4375 -5.953125 Z M 0.765625 0 L 0.765625 -5.3125 L 2.09375 -5.3125 L 2.09375 0 Z M 0.765625 0 "/></g></g></g><g fill="#ffffff" fill-opacity="1"><g transform="translate(126.886005, 91.549508)"><g><path d="M 0.765625 0 L 0.765625 -5.3125 L 2.046875 -5.3125 L 2.046875 -4.53125 L 2.140625 -4.5 C 2.472656 -5.101562 3.007812 -5.40625 3.75 -5.40625 C 4.363281 -5.40625 4.8125 -5.238281 5.09375 -4.90625 C 5.382812 -4.570312 5.53125 -4.085938 5.53125 -3.453125 L 5.53125 0 L 4.203125 0 L 4.203125 -3.28125 C 4.203125 -3.632812 4.128906 -3.890625 3.984375 -4.046875 C 3.847656 -4.203125 3.625 -4.28125 3.3125 -4.28125 C 2.925781 -4.28125 2.625 -4.15625 2.40625 -3.90625 C 2.195312 -3.664062 2.09375 -3.28125 2.09375 -2.75 L 2.09375 0 Z M 0.765625 0 "/></g></g></g><g fill="#ffffff" fill-opacity="1"><g transform="translate(133.103139, 91.549508)"><g><path d="M 5.25 -2.359375 L 1.828125 -2.359375 C 1.867188 -1.890625 2 -1.550781 2.21875 -1.34375 C 2.445312 -1.132812 2.757812 -1.03125 3.15625 -1.03125 C 3.457031 -1.03125 3.703125 -1.085938 3.890625 -1.203125 C 4.078125 -1.316406 4.226562 -1.488281 4.34375 -1.71875 L 4.453125 -1.71875 L 5.328125 -1.15625 C 5.160156 -0.78125 4.898438 -0.476562 4.546875 -0.25 C 4.203125 -0.0195312 3.738281 0.09375 3.15625 0.09375 C 2.601562 0.09375 2.125 -0.0078125 1.71875 -0.21875 C 1.320312 -0.425781 1.015625 -0.734375 0.796875 -1.140625 C 0.585938 -1.554688 0.484375 -2.0625 0.484375 -2.65625 C 0.484375 -3.257812 0.59375 -3.765625 0.8125 -4.171875 C 1.039062 -4.585938 1.347656 -4.894531 1.734375 -5.09375 C 2.128906 -5.300781 2.566406 -5.40625 3.046875 -5.40625 C 3.796875 -5.40625 4.367188 -5.207031 4.765625 -4.8125 C 5.171875 -4.414062 5.375 -3.832031 5.375 -3.0625 C 5.375 -2.78125 5.363281 -2.5625 5.34375 -2.40625 Z M 4.109375 -3.21875 C 4.085938 -3.625 3.988281 -3.914062 3.8125 -4.09375 C 3.644531 -4.28125 3.390625 -4.375 3.046875 -4.375 C 2.378906 -4.375 1.984375 -3.988281 1.859375 -3.21875 Z M 4.109375 -3.21875 "/></g></g></g><g fill="#ffffff" fill-opacity="1"><g transform="translate(138.872758, 91.549508)"><g><path d="M 2.484375 0.09375 C 2.117188 0.09375 1.785156 0.0507812 1.484375 -0.03125 C 1.179688 -0.113281 0.921875 -0.226562 0.703125 -0.375 C 0.492188 -0.53125 0.335938 -0.703125 0.234375 -0.890625 L 0.984375 -1.6875 L 1.078125 -1.6875 C 1.253906 -1.445312 1.460938 -1.269531 1.703125 -1.15625 C 1.941406 -1.039062 2.207031 -0.984375 2.5 -0.984375 C 2.757812 -0.984375 2.953125 -1.023438 3.078125 -1.109375 C 3.210938 -1.203125 3.28125 -1.335938 3.28125 -1.515625 C 3.28125 -1.648438 3.234375 -1.765625 3.140625 -1.859375 C 3.046875 -1.953125 2.890625 -2.019531 2.671875 -2.0625 L 1.96875 -2.234375 C 1.445312 -2.359375 1.0625 -2.550781 0.8125 -2.8125 C 0.570312 -3.070312 0.453125 -3.398438 0.453125 -3.796875 C 0.453125 -4.128906 0.535156 -4.414062 0.703125 -4.65625 C 0.878906 -4.90625 1.117188 -5.09375 1.421875 -5.21875 C 1.722656 -5.34375 2.082031 -5.40625 2.5 -5.40625 C 2.976562 -5.40625 3.375 -5.335938 3.6875 -5.203125 C 4 -5.066406 4.242188 -4.882812 4.421875 -4.65625 L 3.703125 -3.875 L 3.609375 -3.875 C 3.460938 -4.039062 3.296875 -4.160156 3.109375 -4.234375 C 2.921875 -4.316406 2.71875 -4.359375 2.5 -4.359375 C 1.96875 -4.359375 1.703125 -4.195312 1.703125 -3.875 C 1.703125 -3.726562 1.75 -3.613281 1.84375 -3.53125 C 1.945312 -3.445312 2.125 -3.378906 2.375 -3.328125 L 3.015625 -3.171875 C 3.554688 -3.054688 3.953125 -2.867188 4.203125 -2.609375 C 4.453125 -2.359375 4.578125 -2.019531 4.578125 -1.59375 C 4.578125 -1.257812 4.492188 -0.960938 4.328125 -0.703125 C 4.160156 -0.441406 3.921875 -0.242188 3.609375 -0.109375 C 3.296875 0.0234375 2.921875 0.09375 2.484375 0.09375 Z M 2.484375 0.09375 "/></g></g></g><g fill="#ffffff" fill-opacity="1"><g transform="translate(143.766589, 91.549508)"><g><path d="M 2.484375 0.09375 C 2.117188 0.09375 1.785156 0.0507812 1.484375 -0.03125 C 1.179688 -0.113281 0.921875 -0.226562 0.703125 -0.375 C 0.492188 -0.53125 0.335938 -0.703125 0.234375 -0.890625 L 0.984375 -1.6875 L 1.078125 -1.6875 C 1.253906 -1.445312 1.460938 -1.269531 1.703125 -1.15625 C 1.941406 -1.039062 2.207031 -0.984375 2.5 -0.984375 C 2.757812 -0.984375 2.953125 -1.023438 3.078125 -1.109375 C 3.210938 -1.203125 3.28125 -1.335938 3.28125 -1.515625 C 3.28125 -1.648438 3.234375 -1.765625 3.140625 -1.859375 C 3.046875 -1.953125 2.890625 -2.019531 2.671875 -2.0625 L 1.96875 -2.234375 C 1.445312 -2.359375 1.0625 -2.550781 0.8125 -2.8125 C 0.570312 -3.070312 0.453125 -3.398438 0.453125 -3.796875 C 0.453125 -4.128906 0.535156 -4.414062 0.703125 -4.65625 C 0.878906 -4.90625 1.117188 -5.09375 1.421875 -5.21875 C 1.722656 -5.34375 2.082031 -5.40625 2.5 -5.40625 C 2.976562 -5.40625 3.375 -5.335938 3.6875 -5.203125 C 4 -5.066406 4.242188 -4.882812 4.421875 -4.65625 L 3.703125 -3.875 L 3.609375 -3.875 C 3.460938 -4.039062 3.296875 -4.160156 3.109375 -4.234375 C 2.921875 -4.316406 2.71875 -4.359375 2.5 -4.359375 C 1.96875 -4.359375 1.703125 -4.195312 1.703125 -3.875 C 1.703125 -3.726562 1.75 -3.613281 1.84375 -3.53125 C 1.945312 -3.445312 2.125 -3.378906 2.375 -3.328125 L 3.015625 -3.171875 C 3.554688 -3.054688 3.953125 -2.867188 4.203125 -2.609375 C 4.453125 -2.359375 4.578125 -2.019531 4.578125 -1.59375 C 4.578125 -1.257812 4.492188 -0.960938 4.328125 -0.703125 C 4.160156 -0.441406 3.921875 -0.242188 3.609375 -0.109375 C 3.296875 0.0234375 2.921875 0.09375 2.484375 0.09375 Z M 2.484375 0.09375 "/></g></g></g><g fill="#ffffff" fill-opacity="1"><g transform="translate(148.66042, 91.549508)"><g/></g></g><g fill="#ffffff" fill-opacity="1"><g transform="translate(150.984631, 91.549508)"><g><path d="M 3.125 0.09375 C 2.632812 0.09375 2.195312 0.0351562 1.8125 -0.078125 C 1.4375 -0.203125 1.117188 -0.359375 0.859375 -0.546875 C 0.609375 -0.742188 0.414062 -0.960938 0.28125 -1.203125 L 1.046875 -2.125 L 1.171875 -2.125 C 1.378906 -1.8125 1.644531 -1.5625 1.96875 -1.375 C 2.300781 -1.195312 2.6875 -1.109375 3.125 -1.109375 C 3.488281 -1.109375 3.765625 -1.1875 3.953125 -1.34375 C 4.148438 -1.5 4.25 -1.710938 4.25 -1.984375 C 4.25 -2.148438 4.21875 -2.289062 4.15625 -2.40625 C 4.09375 -2.519531 3.988281 -2.613281 3.84375 -2.6875 C 3.707031 -2.769531 3.519531 -2.84375 3.28125 -2.90625 L 2.375 -3.109375 C 1.738281 -3.253906 1.265625 -3.492188 0.953125 -3.828125 C 0.648438 -4.160156 0.5 -4.597656 0.5 -5.140625 C 0.5 -5.535156 0.597656 -5.882812 0.796875 -6.1875 C 0.992188 -6.488281 1.28125 -6.722656 1.65625 -6.890625 C 2.039062 -7.054688 2.5 -7.140625 3.03125 -7.140625 C 3.570312 -7.140625 4.035156 -7.066406 4.421875 -6.921875 C 4.804688 -6.773438 5.132812 -6.554688 5.40625 -6.265625 L 4.71875 -5.328125 L 4.59375 -5.328125 C 4.394531 -5.535156 4.164062 -5.691406 3.90625 -5.796875 C 3.65625 -5.898438 3.363281 -5.953125 3.03125 -5.953125 C 2.644531 -5.953125 2.351562 -5.882812 2.15625 -5.75 C 1.957031 -5.613281 1.859375 -5.425781 1.859375 -5.1875 C 1.859375 -4.96875 1.925781 -4.789062 2.0625 -4.65625 C 2.207031 -4.53125 2.453125 -4.429688 2.796875 -4.359375 L 3.71875 -4.15625 C 4.394531 -4.007812 4.890625 -3.765625 5.203125 -3.421875 C 5.515625 -3.078125 5.671875 -2.628906 5.671875 -2.078125 C 5.671875 -1.640625 5.570312 -1.253906 5.375 -0.921875 C 5.1875 -0.597656 4.898438 -0.347656 4.515625 -0.171875 C 4.140625 0.00390625 3.675781 0.09375 3.125 0.09375 Z M 3.125 0.09375 "/></g></g></g><g fill="#ffffff" fill-opacity="1"><g transform="translate(157.028532, 91.549508)"><g><path d="M 3.09375 0.09375 C 2.582031 0.09375 2.128906 -0.0078125 1.734375 -0.21875 C 1.335938 -0.4375 1.03125 -0.75 0.8125 -1.15625 C 0.59375 -1.570312 0.484375 -2.070312 0.484375 -2.65625 C 0.484375 -3.238281 0.59375 -3.734375 0.8125 -4.140625 C 1.03125 -4.554688 1.332031 -4.867188 1.71875 -5.078125 C 2.113281 -5.296875 2.566406 -5.40625 3.078125 -5.40625 C 4.191406 -5.40625 4.90625 -5 5.21875 -4.1875 L 4.3125 -3.53125 L 4.203125 -3.53125 C 4.097656 -3.78125 3.957031 -3.96875 3.78125 -4.09375 C 3.601562 -4.21875 3.367188 -4.28125 3.078125 -4.28125 C 2.691406 -4.28125 2.390625 -4.144531 2.171875 -3.875 C 1.953125 -3.613281 1.84375 -3.207031 1.84375 -2.65625 C 1.84375 -2.101562 1.953125 -1.691406 2.171875 -1.421875 C 2.390625 -1.160156 2.695312 -1.03125 3.09375 -1.03125 C 3.382812 -1.03125 3.628906 -1.109375 3.828125 -1.265625 C 4.023438 -1.421875 4.171875 -1.644531 4.265625 -1.9375 L 4.359375 -1.9375 L 5.3125 -1.421875 C 5.175781 -0.972656 4.925781 -0.609375 4.5625 -0.328125 C 4.195312 -0.046875 3.707031 0.09375 3.09375 0.09375 Z M 3.09375 0.09375 "/></g></g></g><g fill="#ffffff" fill-opacity="1"><g transform="translate(162.499805, 91.549508)"><g><path d="M 0.765625 0 L 0.765625 -7.4375 L 2.09375 -7.4375 L 2.09375 -4.609375 L 2.203125 -4.59375 C 2.378906 -4.851562 2.59375 -5.050781 2.84375 -5.1875 C 3.101562 -5.332031 3.414062 -5.40625 3.78125 -5.40625 C 4.945312 -5.40625 5.53125 -4.742188 5.53125 -3.421875 L 5.53125 0 L 4.203125 0 L 4.203125 -3.25 C 4.203125 -3.613281 4.128906 -3.875 3.984375 -4.03125 C 3.835938 -4.195312 3.613281 -4.28125 3.3125 -4.28125 C 2.9375 -4.28125 2.640625 -4.15625 2.421875 -3.90625 C 2.203125 -3.65625 2.09375 -3.269531 2.09375 -2.75 L 2.09375 0 Z M 0.765625 0 "/></g></g></g><g fill="#ffffff" fill-opacity="1"><g transform="translate(168.716939, 91.549508)"><g><path d="M 3.078125 0.09375 C 2.566406 0.09375 2.113281 -0.0078125 1.71875 -0.21875 C 1.320312 -0.4375 1.015625 -0.75 0.796875 -1.15625 C 0.585938 -1.570312 0.484375 -2.070312 0.484375 -2.65625 C 0.484375 -3.238281 0.585938 -3.734375 0.796875 -4.140625 C 1.015625 -4.554688 1.320312 -4.867188 1.71875 -5.078125 C 2.113281 -5.296875 2.566406 -5.40625 3.078125 -5.40625 C 3.597656 -5.40625 4.054688 -5.296875 4.453125 -5.078125 C 4.847656 -4.867188 5.15625 -4.554688 5.375 -4.140625 C 5.59375 -3.734375 5.703125 -3.238281 5.703125 -2.65625 C 5.703125 -2.070312 5.59375 -1.570312 5.375 -1.15625 C 5.15625 -0.75 4.847656 -0.4375 4.453125 -0.21875 C 4.054688 -0.0078125 3.597656 0.09375 3.078125 0.09375 Z M 3.078125 -1.03125 C 3.910156 -1.03125 4.328125 -1.570312 4.328125 -2.65625 C 4.328125 -3.21875 4.21875 -3.628906 4 -3.890625 C 3.789062 -4.148438 3.484375 -4.28125 3.078125 -4.28125 C 2.253906 -4.28125 1.84375 -3.738281 1.84375 -2.65625 C 1.84375 -1.570312 2.253906 -1.03125 3.078125 -1.03125 Z M 3.078125 -1.03125 "/></g></g></g><g fill="#ffffff" fill-opacity="1"><g transform="translate(174.885953, 91.549508)"><g><path d="M 3.078125 0.09375 C 2.566406 0.09375 2.113281 -0.0078125 1.71875 -0.21875 C 1.320312 -0.4375 1.015625 -0.75 0.796875 -1.15625 C 0.585938 -1.570312 0.484375 -2.070312 0.484375 -2.65625 C 0.484375 -3.238281 0.585938 -3.734375 0.796875 -4.140625 C 1.015625 -4.554688 1.320312 -4.867188 1.71875 -5.078125 C 2.113281 -5.296875 2.566406 -5.40625 3.078125 -5.40625 C 3.597656 -5.40625 4.054688 -5.296875 4.453125 -5.078125 C 4.847656 -4.867188 5.15625 -4.554688 5.375 -4.140625 C 5.59375 -3.734375 5.703125 -3.238281 5.703125 -2.65625 C 5.703125 -2.070312 5.59375 -1.570312 5.375 -1.15625 C 5.15625 -0.75 4.847656 -0.4375 4.453125 -0.21875 C 4.054688 -0.0078125 3.597656 0.09375 3.078125 0.09375 Z M 3.078125 -1.03125 C 3.910156 -1.03125 4.328125 -1.570312 4.328125 -2.65625 C 4.328125 -3.21875 4.21875 -3.628906 4 -3.890625 C 3.789062 -4.148438 3.484375 -4.28125 3.078125 -4.28125 C 2.253906 -4.28125 1.84375 -3.738281 1.84375 -2.65625 C 1.84375 -1.570312 2.253906 -1.03125 3.078125 -1.03125 Z M 3.078125 -1.03125 "/></g></g></g><g fill="#ffffff" fill-opacity="1"><g transform="translate(181.054966, 91.549508)"><g><path d="M 2.203125 0.09375 C 1.722656 0.09375 1.359375 -0.03125 1.109375 -0.28125 C 0.859375 -0.539062 0.734375 -0.9375 0.734375 -1.46875 L 0.734375 -7.4375 L 2.0625 -7.4375 L 2.0625 -1.515625 C 2.0625 -1.191406 2.195312 -1.03125 2.46875 -1.03125 C 2.539062 -1.03125 2.625 -1.039062 2.71875 -1.0625 L 2.78125 -1.046875 L 2.90625 -0.03125 C 2.832031 0.0078125 2.734375 0.0390625 2.609375 0.0625 C 2.484375 0.0820312 2.347656 0.09375 2.203125 0.09375 Z M 2.203125 0.09375 "/></g></g></g></svg>