<svg xmlns="http://www.w3.org/2000/svg" xmlns:xlink="http://www.w3.org/1999/xlink" width="250" zoomAndPan="magnify" viewBox="0 0 187.5 66.75" height="89" preserveAspectRatio="xMidYMid meet" version="1.0"><defs><g/><clipPath id="f5f524ebd5"><path d="M 31.554688 0.5625 L 77.710938 0.5625 L 77.710938 65.847656 L 31.554688 65.847656 Z M 31.554688 0.5625 " clip-rule="nonzero"/></clipPath></defs><g clip-path="url(#f5f524ebd5)"><path fill="#990000" d="M 61.707031 58.480469 C 53.65625 50.046875 67.710938 42.429688 63.484375 33.859375 C 63.621094 36.851562 62.390625 39.4375 59.386719 41.75 C 51.339844 47.59375 49.972656 54.257812 55.296875 61.882812 C 55.976562 62.835938 56.796875 63.785156 57.617188 64.875 C 60.074219 63.785156 62.527344 62.285156 64.574219 60.792969 C 63.484375 60.113281 62.390625 59.292969 61.707031 58.480469 Z M 51.0625 60.652344 C 48.742188 55.621094 48.613281 50.996094 51.0625 46.644531 C 47.925781 49.367188 46.292969 53.039062 46.425781 57.660156 C 39.46875 52.226562 35.238281 43.921875 35.238281 34.675781 C 35.238281 27.195312 35.238281 19.714844 35.238281 12.097656 C 41.925781 11.550781 49.429688 10.054688 54.617188 5.703125 C 55.019531 6.109375 55.570312 6.519531 56.117188 6.929688 C 54.617188 8.289062 52.976562 9.511719 51.203125 10.328125 C 52.703125 11.6875 53.523438 13.457031 53.523438 15.496094 C 52.566406 14 50.929688 12.777344 49.292969 12.230469 C 51.882812 15.90625 52.15625 18.625 49.972656 20.257812 C 47.652344 21.890625 46.5625 23.386719 46.972656 24.609375 L 39.058594 31.683594 C 41.925781 32.226562 44.242188 32.363281 46.292969 32.09375 C 41.789062 33.316406 40.015625 35.085938 41.105469 37.804688 C 41.789062 38.617188 43.289062 39.4375 45.203125 40.121094 C 46.703125 40.660156 47.652344 41.339844 47.925781 42.019531 C 45.203125 40.800781 43.152344 40.121094 41.789062 40.121094 C 39.738281 42.839844 40.558594 45.832031 44.515625 48.824219 C 46.015625 44.742188 50.523438 42.429688 54.617188 43.792969 C 55.976562 39.710938 54.617188 35.355469 51.203125 32.90625 C 53.523438 33.316406 56.660156 35.496094 58.160156 35.21875 C 59.664062 35.085938 60.886719 33.453125 62.117188 30.597656 C 63.074219 27.875 59.933594 26.652344 62.390625 23.25 C 61.707031 26.925781 68.800781 31.683594 65.941406 41.480469 C 64.164062 46.914062 58.84375 51.40625 63.890625 56.710938 C 64.84375 57.660156 65.800781 58.339844 66.753906 58.890625 C 68.53125 57.390625 70.167969 55.621094 71.53125 53.71875 C 70.441406 52.90625 69.621094 51.949219 69.078125 50.726562 C 66.894531 45.421875 71.257812 38.757812 68.121094 29.914062 C 65.941406 23.523438 62.800781 22.980469 64.84375 14.679688 C 67.984375 15.496094 71.257812 14.953125 73.988281 13.046875 C 73.988281 13.726562 73.988281 14.273438 73.988281 14.953125 C 73.578125 18.898438 71.398438 22.570312 67.984375 24.609375 C 75.214844 36.851562 69.757812 39.027344 71.257812 46.914062 C 71.667969 48.414062 72.351562 49.777344 73.308594 50.867188 C 76.167969 45.964844 77.671875 40.53125 77.535156 34.675781 L 77.535156 8.695312 C 76.308594 8.695312 75.214844 8.558594 74.125 8.558594 C 72.621094 9.78125 70.851562 10.871094 69.078125 11.550781 C 68.121094 11.960938 67.03125 12.371094 65.800781 12.503906 C 66.484375 12.230469 67.164062 11.824219 67.847656 11.417969 C 69.210938 10.464844 70.441406 9.375 71.53125 8.289062 C 69.621094 8.015625 67.984375 7.746094 66.34375 7.335938 C 65.394531 8.425781 64.164062 9.238281 62.9375 10.191406 C 61.296875 11.28125 59.527344 12.230469 57.75 13.046875 C 58.160156 15.222656 57.207031 17.402344 55.429688 18.761719 C 56.527344 16.722656 56.660156 14.273438 55.707031 12.230469 C 57.339844 11.28125 58.980469 10.191406 60.34375 9.238281 C 61.574219 8.425781 62.664062 7.472656 63.753906 6.65625 C 59.664062 5.296875 56.527344 3.253906 54.617188 0.535156 C 50.792969 5.703125 43.015625 8.425781 31.554688 8.695312 L 31.554688 34.675781 C 31.554688 46.105469 37.558594 56.582031 47.113281 62.425781 C 49.429688 63.925781 51.882812 65.007812 54.617188 65.964844 C 53.113281 64.054688 52.023438 62.285156 51.0625 60.652344 Z M 66.753906 20.394531 C 68.941406 19.984375 70.851562 18.761719 71.808594 16.722656 C 70.167969 17.539062 68.394531 17.808594 66.621094 17.539062 C 66.34375 18.488281 66.34375 19.578125 66.753906 20.394531 Z M 57.070312 25.835938 C 54.476562 25.835938 51.339844 26.785156 47.652344 28.28125 L 50.792969 25.835938 C 50.382812 23.660156 51.472656 23.25 53.113281 23.660156 C 54.75 24.066406 56.117188 24.882812 57.070312 25.835938 Z M 57.070312 25.835938 " fill-opacity="1" fill-rule="evenodd"/></g><g fill="#990000" fill-opacity="1"><g transform="translate(79.990326, 16.521345)"><g><path d="M 9.984375 0 L 7.828125 0 L 7.046875 -2.40625 L 3.046875 -2.40625 L 2.265625 0 L 0.15625 0 L 3.75 -10.40625 L 6.390625 -10.40625 Z M 4.953125 -8.234375 L 3.609375 -4.125 L 6.46875 -4.125 L 5.125 -8.234375 Z M 4.953125 -8.234375 "/></g></g><g transform="translate(90.131647, 16.521345)"><g><path d="M 1.125 0 L 1.125 -7.84375 L 3.03125 -7.84375 L 3.03125 -6.796875 L 3.171875 -6.765625 C 3.429688 -7.191406 3.734375 -7.503906 4.078125 -7.703125 C 4.421875 -7.898438 4.859375 -8 5.390625 -8 C 5.984375 -8 6.460938 -7.878906 6.828125 -7.640625 C 7.191406 -7.410156 7.453125 -7.070312 7.609375 -6.625 L 7.765625 -6.625 C 8.003906 -7.09375 8.316406 -7.4375 8.703125 -7.65625 C 9.085938 -7.882812 9.5625 -8 10.125 -8 C 11.757812 -8 12.578125 -7.09375 12.578125 -5.28125 L 12.578125 0 L 10.59375 0 L 10.59375 -5.03125 C 10.59375 -5.488281 10.503906 -5.816406 10.328125 -6.015625 C 10.148438 -6.222656 9.859375 -6.328125 9.453125 -6.328125 C 8.378906 -6.328125 7.84375 -5.609375 7.84375 -4.171875 L 7.84375 0 L 5.859375 0 L 5.859375 -5.03125 C 5.859375 -5.488281 5.765625 -5.816406 5.578125 -6.015625 C 5.398438 -6.222656 5.113281 -6.328125 4.71875 -6.328125 C 4.207031 -6.328125 3.8125 -6.15625 3.53125 -5.8125 C 3.25 -5.476562 3.109375 -4.941406 3.109375 -4.203125 L 3.109375 0 Z M 1.125 0 "/></g></g><g transform="translate(103.710344, 16.521345)"><g><path d="M 5.484375 0.15625 C 4.484375 0.15625 3.738281 -0.21875 3.25 -0.96875 L 3.109375 -0.953125 L 3.109375 0 L 1.125 0 L 1.125 -11 L 3.109375 -11 L 3.109375 -6.921875 L 3.25 -6.890625 C 3.519531 -7.265625 3.835938 -7.539062 4.203125 -7.71875 C 4.578125 -7.90625 5.019531 -8 5.53125 -8 C 6.164062 -8 6.71875 -7.847656 7.1875 -7.546875 C 7.664062 -7.253906 8.035156 -6.800781 8.296875 -6.1875 C 8.566406 -5.582031 8.703125 -4.828125 8.703125 -3.921875 C 8.703125 -3.023438 8.5625 -2.269531 8.28125 -1.65625 C 8.007812 -1.050781 7.628906 -0.597656 7.140625 -0.296875 C 6.660156 0.00390625 6.109375 0.15625 5.484375 0.15625 Z M 4.890625 -1.515625 C 5.472656 -1.515625 5.914062 -1.707031 6.21875 -2.09375 C 6.519531 -2.488281 6.671875 -3.097656 6.671875 -3.921875 C 6.671875 -4.753906 6.519531 -5.363281 6.21875 -5.75 C 5.914062 -6.132812 5.472656 -6.328125 4.890625 -6.328125 C 4.335938 -6.328125 3.894531 -6.125 3.5625 -5.71875 C 3.238281 -5.320312 3.078125 -4.722656 3.078125 -3.921875 C 3.078125 -3.117188 3.238281 -2.515625 3.5625 -2.109375 C 3.894531 -1.710938 4.335938 -1.515625 4.890625 -1.515625 Z M 4.890625 -1.515625 "/></g></g><g transform="translate(113.111527, 16.521345)"><g><path d="M 3.0625 0.15625 C 2.5625 0.15625 2.125 0.0625 1.75 -0.125 C 1.382812 -0.3125 1.097656 -0.582031 0.890625 -0.9375 C 0.691406 -1.300781 0.59375 -1.734375 0.59375 -2.234375 C 0.59375 -2.703125 0.691406 -3.09375 0.890625 -3.40625 C 1.097656 -3.71875 1.410156 -3.972656 1.828125 -4.171875 C 2.242188 -4.378906 2.785156 -4.535156 3.453125 -4.640625 C 3.929688 -4.722656 4.289062 -4.804688 4.53125 -4.890625 C 4.769531 -4.984375 4.929688 -5.085938 5.015625 -5.203125 C 5.109375 -5.316406 5.15625 -5.460938 5.15625 -5.640625 C 5.15625 -5.890625 5.066406 -6.078125 4.890625 -6.203125 C 4.710938 -6.335938 4.421875 -6.40625 4.015625 -6.40625 C 3.578125 -6.40625 3.160156 -6.304688 2.765625 -6.109375 C 2.367188 -5.921875 2.03125 -5.671875 1.75 -5.359375 L 1.609375 -5.359375 L 0.78125 -6.59375 C 1.175781 -7.039062 1.660156 -7.382812 2.234375 -7.625 C 2.804688 -7.875 3.429688 -8 4.109375 -8 C 5.148438 -8 5.898438 -7.773438 6.359375 -7.328125 C 6.828125 -6.890625 7.0625 -6.265625 7.0625 -5.453125 L 7.0625 -2.046875 C 7.0625 -1.691406 7.21875 -1.515625 7.53125 -1.515625 C 7.644531 -1.515625 7.757812 -1.539062 7.875 -1.59375 L 7.984375 -1.5625 L 8.125 -0.1875 C 8.007812 -0.113281 7.851562 -0.0507812 7.65625 0 C 7.46875 0.0390625 7.257812 0.0625 7.03125 0.0625 C 6.5625 0.0625 6.191406 -0.0234375 5.921875 -0.203125 C 5.660156 -0.390625 5.472656 -0.675781 5.359375 -1.0625 L 5.203125 -1.078125 C 4.828125 -0.253906 4.113281 0.15625 3.0625 0.15625 Z M 3.6875 -1.328125 C 4.144531 -1.328125 4.507812 -1.476562 4.78125 -1.78125 C 5.050781 -2.09375 5.1875 -2.519531 5.1875 -3.0625 L 5.1875 -3.859375 L 5.046875 -3.890625 C 4.929688 -3.796875 4.773438 -3.710938 4.578125 -3.640625 C 4.390625 -3.578125 4.117188 -3.515625 3.765625 -3.453125 C 3.335938 -3.390625 3.03125 -3.269531 2.84375 -3.09375 C 2.65625 -2.914062 2.5625 -2.671875 2.5625 -2.359375 C 2.5625 -2.015625 2.660156 -1.753906 2.859375 -1.578125 C 3.054688 -1.410156 3.332031 -1.328125 3.6875 -1.328125 Z M 3.6875 -1.328125 "/></g></g><g transform="translate(121.388269, 16.521345)"><g><path d="M 2.109375 -8.796875 C 1.753906 -8.796875 1.460938 -8.898438 1.234375 -9.109375 C 1.015625 -9.328125 0.90625 -9.609375 0.90625 -9.953125 C 0.90625 -10.285156 1.015625 -10.5625 1.234375 -10.78125 C 1.460938 -11 1.753906 -11.109375 2.109375 -11.109375 C 2.347656 -11.109375 2.5625 -11.054688 2.75 -10.953125 C 2.9375 -10.859375 3.078125 -10.722656 3.171875 -10.546875 C 3.273438 -10.367188 3.328125 -10.171875 3.328125 -9.953125 C 3.328125 -9.722656 3.273438 -9.519531 3.171875 -9.34375 C 3.078125 -9.175781 2.9375 -9.039062 2.75 -8.9375 C 2.5625 -8.84375 2.347656 -8.796875 2.109375 -8.796875 Z M 1.125 0 L 1.125 -7.84375 L 3.109375 -7.84375 L 3.109375 0 Z M 1.125 0 "/></g></g><g transform="translate(125.615599, 16.521345)"><g><path d="M 1.125 0 L 1.125 -7.84375 L 3.03125 -7.84375 L 3.03125 -6.703125 L 3.171875 -6.65625 C 3.660156 -7.550781 4.453125 -8 5.546875 -8 C 6.453125 -8 7.117188 -7.75 7.546875 -7.25 C 7.972656 -6.757812 8.1875 -6.046875 8.1875 -5.109375 L 8.1875 0 L 6.21875 0 L 6.21875 -4.859375 C 6.21875 -5.378906 6.113281 -5.753906 5.90625 -5.984375 C 5.695312 -6.210938 5.359375 -6.328125 4.890625 -6.328125 C 4.328125 -6.328125 3.890625 -6.144531 3.578125 -5.78125 C 3.265625 -5.414062 3.109375 -4.84375 3.109375 -4.0625 L 3.109375 0 Z M 1.125 0 "/></g></g><g transform="translate(134.810397, 16.521345)"><g><path d="M 4.578125 0.15625 C 3.816406 0.15625 3.144531 0 2.5625 -0.3125 C 1.976562 -0.632812 1.519531 -1.101562 1.1875 -1.71875 C 0.863281 -2.332031 0.703125 -3.066406 0.703125 -3.921875 C 0.703125 -4.785156 0.863281 -5.519531 1.1875 -6.125 C 1.519531 -6.738281 1.972656 -7.203125 2.546875 -7.515625 C 3.128906 -7.835938 3.796875 -8 4.546875 -8 C 6.203125 -8 7.257812 -7.398438 7.71875 -6.203125 L 6.375 -5.234375 L 6.21875 -5.234375 C 6.0625 -5.597656 5.851562 -5.867188 5.59375 -6.046875 C 5.332031 -6.234375 4.984375 -6.328125 4.546875 -6.328125 C 3.972656 -6.328125 3.523438 -6.128906 3.203125 -5.734375 C 2.890625 -5.335938 2.734375 -4.734375 2.734375 -3.921875 C 2.734375 -3.117188 2.894531 -2.515625 3.21875 -2.109375 C 3.539062 -1.710938 3.992188 -1.515625 4.578125 -1.515625 C 5.003906 -1.515625 5.363281 -1.628906 5.65625 -1.859375 C 5.957031 -2.097656 6.171875 -2.429688 6.296875 -2.859375 L 6.453125 -2.875 L 7.84375 -2.109375 C 7.644531 -1.441406 7.273438 -0.894531 6.734375 -0.46875 C 6.203125 -0.0507812 5.484375 0.15625 4.578125 0.15625 Z M 4.578125 0.15625 "/></g></g><g transform="translate(142.902104, 16.521345)"><g><path d="M 2.109375 -8.796875 C 1.753906 -8.796875 1.460938 -8.898438 1.234375 -9.109375 C 1.015625 -9.328125 0.90625 -9.609375 0.90625 -9.953125 C 0.90625 -10.285156 1.015625 -10.5625 1.234375 -10.78125 C 1.460938 -11 1.753906 -11.109375 2.109375 -11.109375 C 2.347656 -11.109375 2.5625 -11.054688 2.75 -10.953125 C 2.9375 -10.859375 3.078125 -10.722656 3.171875 -10.546875 C 3.273438 -10.367188 3.328125 -10.171875 3.328125 -9.953125 C 3.328125 -9.722656 3.273438 -9.519531 3.171875 -9.34375 C 3.078125 -9.175781 2.9375 -9.039062 2.75 -8.9375 C 2.5625 -8.84375 2.347656 -8.796875 2.109375 -8.796875 Z M 1.125 0 L 1.125 -7.84375 L 3.109375 -7.84375 L 3.109375 0 Z M 1.125 0 "/></g></g><g transform="translate(147.129434, 16.521345)"><g><path d="M 1.125 3.1875 L 1.125 -7.84375 L 3.109375 -7.84375 L 3.109375 -6.828125 L 3.25 -6.796875 C 3.488281 -7.191406 3.800781 -7.488281 4.1875 -7.6875 C 4.570312 -7.894531 5.023438 -8 5.546875 -8 C 6.179688 -8 6.734375 -7.847656 7.203125 -7.546875 C 7.679688 -7.253906 8.050781 -6.800781 8.3125 -6.1875 C 8.570312 -5.582031 8.703125 -4.828125 8.703125 -3.921875 C 8.703125 -3.023438 8.5625 -2.269531 8.28125 -1.65625 C 8.007812 -1.050781 7.625 -0.597656 7.125 -0.296875 C 6.632812 0.00390625 6.066406 0.15625 5.421875 0.15625 C 4.929688 0.15625 4.507812 0.0703125 4.15625 -0.09375 C 3.800781 -0.257812 3.5 -0.515625 3.25 -0.859375 L 3.109375 -0.828125 L 3.109375 3.1875 Z M 4.875 -1.515625 C 5.46875 -1.515625 5.914062 -1.707031 6.21875 -2.09375 C 6.519531 -2.476562 6.671875 -3.085938 6.671875 -3.921875 C 6.671875 -4.753906 6.519531 -5.363281 6.21875 -5.75 C 5.914062 -6.132812 5.46875 -6.328125 4.875 -6.328125 C 4.320312 -6.328125 3.882812 -6.125 3.5625 -5.71875 C 3.238281 -5.320312 3.078125 -4.722656 3.078125 -3.921875 C 3.078125 -3.117188 3.238281 -2.515625 3.5625 -2.109375 C 3.882812 -1.710938 4.320312 -1.515625 4.875 -1.515625 Z M 4.875 -1.515625 "/></g></g></g><g fill="#990000" fill-opacity="1"><g transform="translate(79.598931, 30.232222)"><g><path d="M 4.09375 0.140625 C 3.457031 0.140625 2.890625 0.0625 2.390625 -0.09375 C 1.890625 -0.257812 1.472656 -0.46875 1.140625 -0.71875 C 0.804688 -0.976562 0.550781 -1.265625 0.375 -1.578125 L 1.375 -2.796875 L 1.53125 -2.796875 C 1.8125 -2.390625 2.164062 -2.0625 2.59375 -1.8125 C 3.019531 -1.570312 3.519531 -1.453125 4.09375 -1.453125 C 4.582031 -1.453125 4.953125 -1.550781 5.203125 -1.75 C 5.453125 -1.957031 5.578125 -2.242188 5.578125 -2.609375 C 5.578125 -2.828125 5.535156 -3.007812 5.453125 -3.15625 C 5.378906 -3.3125 5.25 -3.441406 5.0625 -3.546875 C 4.875 -3.648438 4.625 -3.738281 4.3125 -3.8125 L 3.125 -4.078125 C 2.289062 -4.273438 1.671875 -4.59375 1.265625 -5.03125 C 0.859375 -5.46875 0.65625 -6.039062 0.65625 -6.75 C 0.65625 -7.269531 0.785156 -7.726562 1.046875 -8.125 C 1.304688 -8.519531 1.6875 -8.828125 2.1875 -9.046875 C 2.6875 -9.265625 3.285156 -9.375 3.984375 -9.375 C 4.691406 -9.375 5.300781 -9.28125 5.8125 -9.09375 C 6.320312 -8.90625 6.75 -8.617188 7.09375 -8.234375 L 6.1875 -7 L 6.03125 -7 C 5.769531 -7.269531 5.46875 -7.472656 5.125 -7.609375 C 4.789062 -7.742188 4.410156 -7.8125 3.984375 -7.8125 C 3.472656 -7.8125 3.085938 -7.722656 2.828125 -7.546875 C 2.566406 -7.367188 2.4375 -7.125 2.4375 -6.8125 C 2.4375 -6.519531 2.523438 -6.285156 2.703125 -6.109375 C 2.890625 -5.941406 3.210938 -5.8125 3.671875 -5.71875 L 4.875 -5.46875 C 5.78125 -5.28125 6.429688 -4.957031 6.828125 -4.5 C 7.234375 -4.039062 7.4375 -3.445312 7.4375 -2.71875 C 7.4375 -2.144531 7.3125 -1.644531 7.0625 -1.21875 C 6.820312 -0.789062 6.445312 -0.457031 5.9375 -0.21875 C 5.4375 0.0195312 4.820312 0.140625 4.09375 0.140625 Z M 4.09375 0.140625 "/></g></g></g><g fill="#990000" fill-opacity="1"><g transform="translate(87.542411, 30.232222)"><g><path d="M 4.0625 0.140625 C 3.394531 0.140625 2.800781 0 2.28125 -0.28125 C 1.757812 -0.5625 1.351562 -0.972656 1.0625 -1.515625 C 0.769531 -2.066406 0.625 -2.722656 0.625 -3.484375 C 0.625 -4.253906 0.769531 -4.910156 1.0625 -5.453125 C 1.351562 -5.992188 1.753906 -6.40625 2.265625 -6.6875 C 2.785156 -6.96875 3.375 -7.109375 4.03125 -7.109375 C 5.507812 -7.109375 6.453125 -6.578125 6.859375 -5.515625 L 5.65625 -4.65625 L 5.53125 -4.65625 C 5.382812 -4.976562 5.195312 -5.21875 4.96875 -5.375 C 4.738281 -5.539062 4.425781 -5.625 4.03125 -5.625 C 3.53125 -5.625 3.132812 -5.445312 2.84375 -5.09375 C 2.5625 -4.75 2.421875 -4.210938 2.421875 -3.484375 C 2.421875 -2.765625 2.5625 -2.226562 2.84375 -1.875 C 3.132812 -1.53125 3.539062 -1.359375 4.0625 -1.359375 C 4.445312 -1.359375 4.769531 -1.457031 5.03125 -1.65625 C 5.289062 -1.863281 5.476562 -2.160156 5.59375 -2.546875 L 5.734375 -2.5625 L 6.96875 -1.875 C 6.789062 -1.28125 6.460938 -0.796875 5.984375 -0.421875 C 5.515625 -0.046875 4.875 0.140625 4.0625 0.140625 Z M 4.0625 0.140625 "/></g></g></g><g fill="#990000" fill-opacity="1"><g transform="translate(94.733283, 30.232222)"><g><path d="M 1 0 L 1 -9.78125 L 2.75 -9.78125 L 2.75 -6.0625 L 2.890625 -6.046875 C 3.117188 -6.378906 3.398438 -6.640625 3.734375 -6.828125 C 4.078125 -7.015625 4.488281 -7.109375 4.96875 -7.109375 C 6.507812 -7.109375 7.28125 -6.234375 7.28125 -4.484375 L 7.28125 0 L 5.515625 0 L 5.515625 -4.265625 C 5.515625 -4.742188 5.421875 -5.085938 5.234375 -5.296875 C 5.046875 -5.515625 4.75 -5.625 4.34375 -5.625 C 3.863281 -5.625 3.476562 -5.460938 3.1875 -5.140625 C 2.894531 -4.816406 2.75 -4.304688 2.75 -3.609375 L 2.75 0 Z M 1 0 "/></g></g></g><g fill="#990000" fill-opacity="1"><g transform="translate(102.904442, 30.232222)"><g><path d="M 4.046875 0.140625 C 3.367188 0.140625 2.769531 0 2.25 -0.28125 C 1.738281 -0.5625 1.335938 -0.972656 1.046875 -1.515625 C 0.765625 -2.054688 0.625 -2.710938 0.625 -3.484375 C 0.625 -4.253906 0.765625 -4.910156 1.046875 -5.453125 C 1.335938 -5.992188 1.738281 -6.40625 2.25 -6.6875 C 2.769531 -6.96875 3.367188 -7.109375 4.046875 -7.109375 C 4.734375 -7.109375 5.332031 -6.96875 5.84375 -6.6875 C 6.363281 -6.40625 6.765625 -5.992188 7.046875 -5.453125 C 7.335938 -4.910156 7.484375 -4.253906 7.484375 -3.484375 C 7.484375 -2.710938 7.335938 -2.054688 7.046875 -1.515625 C 6.765625 -0.972656 6.363281 -0.5625 5.84375 -0.28125 C 5.332031 0 4.734375 0.140625 4.046875 0.140625 Z M 4.046875 -1.359375 C 5.128906 -1.359375 5.671875 -2.066406 5.671875 -3.484375 C 5.671875 -4.222656 5.53125 -4.765625 5.25 -5.109375 C 4.976562 -5.453125 4.578125 -5.625 4.046875 -5.625 C 2.960938 -5.625 2.421875 -4.910156 2.421875 -3.484375 C 2.421875 -2.066406 2.960938 -1.359375 4.046875 -1.359375 Z M 4.046875 -1.359375 "/></g></g></g><g fill="#990000" fill-opacity="1"><g transform="translate(111.012357, 30.232222)"><g><path d="M 4.046875 0.140625 C 3.367188 0.140625 2.769531 0 2.25 -0.28125 C 1.738281 -0.5625 1.335938 -0.972656 1.046875 -1.515625 C 0.765625 -2.054688 0.625 -2.710938 0.625 -3.484375 C 0.625 -4.253906 0.765625 -4.910156 1.046875 -5.453125 C 1.335938 -5.992188 1.738281 -6.40625 2.25 -6.6875 C 2.769531 -6.96875 3.367188 -7.109375 4.046875 -7.109375 C 4.734375 -7.109375 5.332031 -6.96875 5.84375 -6.6875 C 6.363281 -6.40625 6.765625 -5.992188 7.046875 -5.453125 C 7.335938 -4.910156 7.484375 -4.253906 7.484375 -3.484375 C 7.484375 -2.710938 7.335938 -2.054688 7.046875 -1.515625 C 6.765625 -0.972656 6.363281 -0.5625 5.84375 -0.28125 C 5.332031 0 4.734375 0.140625 4.046875 0.140625 Z M 4.046875 -1.359375 C 5.128906 -1.359375 5.671875 -2.066406 5.671875 -3.484375 C 5.671875 -4.222656 5.53125 -4.765625 5.25 -5.109375 C 4.976562 -5.453125 4.578125 -5.625 4.046875 -5.625 C 2.960938 -5.625 2.421875 -4.910156 2.421875 -3.484375 C 2.421875 -2.066406 2.960938 -1.359375 4.046875 -1.359375 Z M 4.046875 -1.359375 "/></g></g></g><g fill="#990000" fill-opacity="1"><g transform="translate(119.120271, 30.232222)"><g><path d="M 2.890625 0.140625 C 2.265625 0.140625 1.785156 -0.03125 1.453125 -0.375 C 1.128906 -0.71875 0.96875 -1.234375 0.96875 -1.921875 L 0.96875 -9.78125 L 2.71875 -9.78125 L 2.71875 -2 C 2.71875 -1.570312 2.894531 -1.359375 3.25 -1.359375 C 3.34375 -1.359375 3.445312 -1.375 3.5625 -1.40625 L 3.65625 -1.375 L 3.8125 -0.03125 C 3.71875 0.0195312 3.585938 0.0625 3.421875 0.09375 C 3.265625 0.125 3.085938 0.140625 2.890625 0.140625 Z M 2.890625 0.140625 "/></g></g></g><g fill="#990000" fill-opacity="1"><g transform="translate(123.129957, 30.232222)"><g/></g></g><g fill="#990000" fill-opacity="1"><g transform="translate(126.184655, 30.232222)"><g><path d="M 4.046875 0.140625 C 3.367188 0.140625 2.769531 0 2.25 -0.28125 C 1.738281 -0.5625 1.335938 -0.972656 1.046875 -1.515625 C 0.765625 -2.054688 0.625 -2.710938 0.625 -3.484375 C 0.625 -4.253906 0.765625 -4.910156 1.046875 -5.453125 C 1.335938 -5.992188 1.738281 -6.40625 2.25 -6.6875 C 2.769531 -6.96875 3.367188 -7.109375 4.046875 -7.109375 C 4.734375 -7.109375 5.332031 -6.96875 5.84375 -6.6875 C 6.363281 -6.40625 6.765625 -5.992188 7.046875 -5.453125 C 7.335938 -4.910156 7.484375 -4.253906 7.484375 -3.484375 C 7.484375 -2.710938 7.335938 -2.054688 7.046875 -1.515625 C 6.765625 -0.972656 6.363281 -0.5625 5.84375 -0.28125 C 5.332031 0 4.734375 0.140625 4.046875 0.140625 Z M 4.046875 -1.359375 C 5.128906 -1.359375 5.671875 -2.066406 5.671875 -3.484375 C 5.671875 -4.222656 5.53125 -4.765625 5.25 -5.109375 C 4.976562 -5.453125 4.578125 -5.625 4.046875 -5.625 C 2.960938 -5.625 2.421875 -4.910156 2.421875 -3.484375 C 2.421875 -2.066406 2.960938 -1.359375 4.046875 -1.359375 Z M 4.046875 -1.359375 "/></g></g></g><g fill="#990000" fill-opacity="1"><g transform="translate(134.29257, 30.232222)"><g><path d="M 1.21875 0 L 1.21875 -5.59375 L 0.234375 -5.59375 L 0.234375 -6.984375 L 1.21875 -6.984375 C 1.144531 -7.273438 1.109375 -7.550781 1.109375 -7.8125 C 1.109375 -8.25 1.207031 -8.625 1.40625 -8.9375 C 1.613281 -9.257812 1.90625 -9.5 2.28125 -9.65625 C 2.664062 -9.820312 3.117188 -9.90625 3.640625 -9.90625 C 4.410156 -9.90625 4.988281 -9.773438 5.375 -9.515625 L 4.953125 -8.21875 L 4.828125 -8.203125 C 4.566406 -8.378906 4.226562 -8.46875 3.8125 -8.46875 C 3.5 -8.46875 3.265625 -8.390625 3.109375 -8.234375 C 2.953125 -8.085938 2.875 -7.878906 2.875 -7.609375 C 2.875 -7.492188 2.878906 -7.390625 2.890625 -7.296875 C 2.910156 -7.203125 2.9375 -7.097656 2.96875 -6.984375 L 4.96875 -6.984375 L 4.96875 -5.59375 L 2.96875 -5.59375 L 2.96875 0 Z M 1.21875 0 "/></g></g></g><g fill="#990000" fill-opacity="1"><g transform="translate(139.327167, 30.232222)"><g/></g></g><g fill="#990000" fill-opacity="1"><g transform="translate(79.598931, 42.985379)"><g><path d="M 1.203125 0 L 1.203125 -9.25 L 5.140625 -9.25 C 5.710938 -9.25 6.195312 -9.15625 6.59375 -8.96875 C 6.988281 -8.789062 7.285156 -8.535156 7.484375 -8.203125 C 7.691406 -7.878906 7.796875 -7.492188 7.796875 -7.046875 C 7.796875 -6.628906 7.695312 -6.265625 7.5 -5.953125 C 7.300781 -5.640625 7.015625 -5.390625 6.640625 -5.203125 L 6.640625 -5.078125 C 7.222656 -4.921875 7.671875 -4.640625 7.984375 -4.234375 C 8.304688 -3.835938 8.46875 -3.347656 8.46875 -2.765625 C 8.46875 -1.878906 8.195312 -1.195312 7.65625 -0.71875 C 7.125 -0.238281 6.332031 0 5.28125 0 Z M 4.765625 -5.5625 C 5.617188 -5.5625 6.046875 -5.941406 6.046875 -6.703125 C 6.046875 -7.097656 5.9375 -7.390625 5.71875 -7.578125 C 5.507812 -7.773438 5.191406 -7.875 4.765625 -7.875 L 3.03125 -7.875 L 3.03125 -5.5625 Z M 5.109375 -1.453125 C 6.109375 -1.453125 6.609375 -1.910156 6.609375 -2.828125 C 6.609375 -3.742188 6.109375 -4.203125 5.109375 -4.203125 L 3.03125 -4.203125 L 3.03125 -1.453125 Z M 5.109375 -1.453125 "/></g></g></g><g fill="#990000" fill-opacity="1"><g transform="translate(88.642861, 42.985379)"><g><path d="M 3.1875 0.140625 C 2.40625 0.140625 1.828125 -0.0703125 1.453125 -0.5 C 1.078125 -0.9375 0.890625 -1.554688 0.890625 -2.359375 L 0.890625 -6.96875 L 2.65625 -6.96875 L 2.65625 -2.578125 C 2.65625 -2.148438 2.742188 -1.835938 2.921875 -1.640625 C 3.109375 -1.441406 3.394531 -1.34375 3.78125 -1.34375 C 4.257812 -1.34375 4.632812 -1.5 4.90625 -1.8125 C 5.175781 -2.132812 5.3125 -2.640625 5.3125 -3.328125 L 5.3125 -6.96875 L 7.0625 -6.96875 L 7.0625 0 L 5.375 0 L 5.375 -1.03125 L 5.25 -1.0625 C 5.03125 -0.65625 4.757812 -0.351562 4.4375 -0.15625 C 4.113281 0.0390625 3.695312 0.140625 3.1875 0.140625 Z M 3.1875 0.140625 "/></g></g></g><g fill="#990000" fill-opacity="1"><g transform="translate(96.712829, 42.985379)"><g><path d="M 3.265625 0.140625 C 2.785156 0.140625 2.347656 0.0820312 1.953125 -0.03125 C 1.554688 -0.144531 1.21875 -0.300781 0.9375 -0.5 C 0.65625 -0.695312 0.445312 -0.921875 0.3125 -1.171875 L 1.296875 -2.21875 L 1.421875 -2.21875 C 1.648438 -1.90625 1.921875 -1.671875 2.234375 -1.515625 C 2.554688 -1.359375 2.90625 -1.28125 3.28125 -1.28125 C 3.613281 -1.28125 3.867188 -1.34375 4.046875 -1.46875 C 4.222656 -1.59375 4.3125 -1.769531 4.3125 -2 C 4.3125 -2.175781 4.25 -2.320312 4.125 -2.4375 C 4 -2.5625 3.796875 -2.65625 3.515625 -2.71875 L 2.59375 -2.9375 C 1.90625 -3.101562 1.398438 -3.351562 1.078125 -3.6875 C 0.753906 -4.03125 0.59375 -4.460938 0.59375 -4.984375 C 0.59375 -5.421875 0.703125 -5.800781 0.921875 -6.125 C 1.148438 -6.445312 1.460938 -6.691406 1.859375 -6.859375 C 2.265625 -7.023438 2.738281 -7.109375 3.28125 -7.109375 C 3.90625 -7.109375 4.421875 -7.015625 4.828125 -6.828125 C 5.242188 -6.648438 5.570312 -6.410156 5.8125 -6.109375 L 4.875 -5.09375 L 4.75 -5.09375 C 4.550781 -5.3125 4.328125 -5.472656 4.078125 -5.578125 C 3.835938 -5.679688 3.570312 -5.734375 3.28125 -5.734375 C 2.582031 -5.734375 2.234375 -5.515625 2.234375 -5.078125 C 2.234375 -4.898438 2.296875 -4.753906 2.421875 -4.640625 C 2.554688 -4.523438 2.785156 -4.429688 3.109375 -4.359375 L 3.96875 -4.171875 C 4.675781 -4.023438 5.191406 -3.78125 5.515625 -3.4375 C 5.847656 -3.101562 6.015625 -2.65625 6.015625 -2.09375 C 6.015625 -1.644531 5.90625 -1.253906 5.6875 -0.921875 C 5.46875 -0.585938 5.148438 -0.328125 4.734375 -0.140625 C 4.328125 0.046875 3.835938 0.140625 3.265625 0.140625 Z M 3.265625 0.140625 "/></g></g></g><g fill="#990000" fill-opacity="1"><g transform="translate(103.14477, 42.985379)"><g><path d="M 1.875 -7.8125 C 1.5625 -7.8125 1.304688 -7.90625 1.109375 -8.09375 C 0.910156 -8.289062 0.8125 -8.539062 0.8125 -8.84375 C 0.8125 -9.144531 0.910156 -9.390625 1.109375 -9.578125 C 1.304688 -9.765625 1.5625 -9.859375 1.875 -9.859375 C 2.082031 -9.859375 2.269531 -9.8125 2.4375 -9.71875 C 2.601562 -9.632812 2.726562 -9.515625 2.8125 -9.359375 C 2.90625 -9.210938 2.953125 -9.039062 2.953125 -8.84375 C 2.953125 -8.644531 2.90625 -8.46875 2.8125 -8.3125 C 2.726562 -8.15625 2.601562 -8.03125 2.4375 -7.9375 C 2.269531 -7.851562 2.082031 -7.8125 1.875 -7.8125 Z M 1 0 L 1 -6.96875 L 2.75 -6.96875 L 2.75 0 Z M 1 0 "/></g></g></g><g fill="#990000" fill-opacity="1"><g transform="translate(106.901479, 42.985379)"><g><path d="M 1 0 L 1 -6.96875 L 2.6875 -6.96875 L 2.6875 -5.953125 L 2.828125 -5.921875 C 3.253906 -6.710938 3.957031 -7.109375 4.9375 -7.109375 C 5.738281 -7.109375 6.328125 -6.890625 6.703125 -6.453125 C 7.085938 -6.015625 7.28125 -5.375 7.28125 -4.53125 L 7.28125 0 L 5.515625 0 L 5.515625 -4.3125 C 5.515625 -4.78125 5.421875 -5.113281 5.234375 -5.3125 C 5.054688 -5.519531 4.757812 -5.625 4.34375 -5.625 C 3.84375 -5.625 3.453125 -5.460938 3.171875 -5.140625 C 2.890625 -4.816406 2.75 -4.304688 2.75 -3.609375 L 2.75 0 Z M 1 0 "/></g></g></g><g fill="#990000" fill-opacity="1"><g transform="translate(115.072638, 42.985379)"><g><path d="M 6.890625 -3.09375 L 2.40625 -3.09375 C 2.457031 -2.488281 2.628906 -2.046875 2.921875 -1.765625 C 3.222656 -1.492188 3.628906 -1.359375 4.140625 -1.359375 C 4.535156 -1.359375 4.859375 -1.429688 5.109375 -1.578125 C 5.359375 -1.722656 5.5625 -1.953125 5.71875 -2.265625 L 5.84375 -2.265625 L 7.015625 -1.515625 C 6.785156 -1.023438 6.4375 -0.625 5.96875 -0.3125 C 5.507812 -0.0078125 4.898438 0.140625 4.140625 0.140625 C 3.421875 0.140625 2.796875 0.00390625 2.265625 -0.265625 C 1.742188 -0.546875 1.335938 -0.957031 1.046875 -1.5 C 0.765625 -2.039062 0.625 -2.703125 0.625 -3.484375 C 0.625 -4.273438 0.773438 -4.941406 1.078125 -5.484375 C 1.378906 -6.035156 1.785156 -6.441406 2.296875 -6.703125 C 2.804688 -6.972656 3.378906 -7.109375 4.015625 -7.109375 C 4.992188 -7.109375 5.742188 -6.847656 6.265625 -6.328125 C 6.796875 -5.804688 7.0625 -5.035156 7.0625 -4.015625 C 7.0625 -3.648438 7.050781 -3.367188 7.03125 -3.171875 Z M 5.390625 -4.21875 C 5.367188 -4.75 5.242188 -5.132812 5.015625 -5.375 C 4.785156 -5.625 4.453125 -5.75 4.015625 -5.75 C 3.128906 -5.75 2.609375 -5.238281 2.453125 -4.21875 Z M 5.390625 -4.21875 "/></g></g></g><g fill="#990000" fill-opacity="1"><g transform="translate(122.655625, 42.985379)"><g><path d="M 3.265625 0.140625 C 2.785156 0.140625 2.347656 0.0820312 1.953125 -0.03125 C 1.554688 -0.144531 1.21875 -0.300781 0.9375 -0.5 C 0.65625 -0.695312 0.445312 -0.921875 0.3125 -1.171875 L 1.296875 -2.21875 L 1.421875 -2.21875 C 1.648438 -1.90625 1.921875 -1.671875 2.234375 -1.515625 C 2.554688 -1.359375 2.90625 -1.28125 3.28125 -1.28125 C 3.613281 -1.28125 3.867188 -1.34375 4.046875 -1.46875 C 4.222656 -1.59375 4.3125 -1.769531 4.3125 -2 C 4.3125 -2.175781 4.25 -2.320312 4.125 -2.4375 C 4 -2.5625 3.796875 -2.65625 3.515625 -2.71875 L 2.59375 -2.9375 C 1.90625 -3.101562 1.398438 -3.351562 1.078125 -3.6875 C 0.753906 -4.03125 0.59375 -4.460938 0.59375 -4.984375 C 0.59375 -5.421875 0.703125 -5.800781 0.921875 -6.125 C 1.148438 -6.445312 1.460938 -6.691406 1.859375 -6.859375 C 2.265625 -7.023438 2.738281 -7.109375 3.28125 -7.109375 C 3.90625 -7.109375 4.421875 -7.015625 4.828125 -6.828125 C 5.242188 -6.648438 5.570312 -6.410156 5.8125 -6.109375 L 4.875 -5.09375 L 4.75 -5.09375 C 4.550781 -5.3125 4.328125 -5.472656 4.078125 -5.578125 C 3.835938 -5.679688 3.570312 -5.734375 3.28125 -5.734375 C 2.582031 -5.734375 2.234375 -5.515625 2.234375 -5.078125 C 2.234375 -4.898438 2.296875 -4.753906 2.421875 -4.640625 C 2.554688 -4.523438 2.785156 -4.429688 3.109375 -4.359375 L 3.96875 -4.171875 C 4.675781 -4.023438 5.191406 -3.78125 5.515625 -3.4375 C 5.847656 -3.101562 6.015625 -2.65625 6.015625 -2.09375 C 6.015625 -1.644531 5.90625 -1.253906 5.6875 -0.921875 C 5.46875 -0.585938 5.148438 -0.328125 4.734375 -0.140625 C 4.328125 0.046875 3.835938 0.140625 3.265625 0.140625 Z M 3.265625 0.140625 "/></g></g></g><g fill="#990000" fill-opacity="1"><g transform="translate(129.087567, 42.985379)"><g><path d="M 3.265625 0.140625 C 2.785156 0.140625 2.347656 0.0820312 1.953125 -0.03125 C 1.554688 -0.144531 1.21875 -0.300781 0.9375 -0.5 C 0.65625 -0.695312 0.445312 -0.921875 0.3125 -1.171875 L 1.296875 -2.21875 L 1.421875 -2.21875 C 1.648438 -1.90625 1.921875 -1.671875 2.234375 -1.515625 C 2.554688 -1.359375 2.90625 -1.28125 3.28125 -1.28125 C 3.613281 -1.28125 3.867188 -1.34375 4.046875 -1.46875 C 4.222656 -1.59375 4.3125 -1.769531 4.3125 -2 C 4.3125 -2.175781 4.25 -2.320312 4.125 -2.4375 C 4 -2.5625 3.796875 -2.65625 3.515625 -2.71875 L 2.59375 -2.9375 C 1.90625 -3.101562 1.398438 -3.351562 1.078125 -3.6875 C 0.753906 -4.03125 0.59375 -4.460938 0.59375 -4.984375 C 0.59375 -5.421875 0.703125 -5.800781 0.921875 -6.125 C 1.148438 -6.445312 1.460938 -6.691406 1.859375 -6.859375 C 2.265625 -7.023438 2.738281 -7.109375 3.28125 -7.109375 C 3.90625 -7.109375 4.421875 -7.015625 4.828125 -6.828125 C 5.242188 -6.648438 5.570312 -6.410156 5.8125 -6.109375 L 4.875 -5.09375 L 4.75 -5.09375 C 4.550781 -5.3125 4.328125 -5.472656 4.078125 -5.578125 C 3.835938 -5.679688 3.570312 -5.734375 3.28125 -5.734375 C 2.582031 -5.734375 2.234375 -5.515625 2.234375 -5.078125 C 2.234375 -4.898438 2.296875 -4.753906 2.421875 -4.640625 C 2.554688 -4.523438 2.785156 -4.429688 3.109375 -4.359375 L 3.96875 -4.171875 C 4.675781 -4.023438 5.191406 -3.78125 5.515625 -3.4375 C 5.847656 -3.101562 6.015625 -2.65625 6.015625 -2.09375 C 6.015625 -1.644531 5.90625 -1.253906 5.6875 -0.921875 C 5.46875 -0.585938 5.148438 -0.328125 4.734375 -0.140625 C 4.328125 0.046875 3.835938 0.140625 3.265625 0.140625 Z M 3.265625 0.140625 "/></g></g></g><g fill="#990000" fill-opacity="1"><g transform="translate(80.720625, 50.234469)"><g><path d="M 0.609375 0 L 0.609375 -4.625 L 2.578125 -4.625 C 2.859375 -4.625 3.097656 -4.578125 3.296875 -4.484375 C 3.492188 -4.398438 3.644531 -4.273438 3.75 -4.109375 C 3.851562 -3.941406 3.90625 -3.75 3.90625 -3.53125 C 3.90625 -3.320312 3.851562 -3.140625 3.75 -2.984375 C 3.65625 -2.828125 3.515625 -2.703125 3.328125 -2.609375 L 3.328125 -2.546875 C 3.617188 -2.460938 3.84375 -2.320312 4 -2.125 C 4.15625 -1.925781 4.234375 -1.679688 4.234375 -1.390625 C 4.234375 -0.941406 4.097656 -0.597656 3.828125 -0.359375 C 3.566406 -0.117188 3.171875 0 2.640625 0 Z M 2.390625 -2.78125 C 2.816406 -2.78125 3.03125 -2.972656 3.03125 -3.359375 C 3.03125 -3.554688 2.972656 -3.703125 2.859375 -3.796875 C 2.753906 -3.890625 2.597656 -3.9375 2.390625 -3.9375 L 1.515625 -3.9375 L 1.515625 -2.78125 Z M 2.5625 -0.71875 C 3.0625 -0.71875 3.3125 -0.945312 3.3125 -1.40625 C 3.3125 -1.875 3.0625 -2.109375 2.5625 -2.109375 L 1.515625 -2.109375 L 1.515625 -0.71875 Z M 2.5625 -0.71875 "/></g></g></g><g fill="#990000" fill-opacity="1"><g transform="translate(85.24259, 50.234469)"><g><path d="M 1.59375 0.0625 C 1.207031 0.0625 0.921875 -0.0390625 0.734375 -0.25 C 0.546875 -0.46875 0.453125 -0.773438 0.453125 -1.171875 L 0.453125 -3.5 L 1.328125 -3.5 L 1.328125 -1.28125 C 1.328125 -1.070312 1.375 -0.914062 1.46875 -0.8125 C 1.5625 -0.71875 1.703125 -0.671875 1.890625 -0.671875 C 2.128906 -0.671875 2.316406 -0.75 2.453125 -0.90625 C 2.585938 -1.070312 2.65625 -1.328125 2.65625 -1.671875 L 2.65625 -3.5 L 3.53125 -3.5 L 3.53125 0 L 2.6875 0 L 2.6875 -0.515625 L 2.625 -0.53125 C 2.507812 -0.332031 2.367188 -0.179688 2.203125 -0.078125 C 2.046875 0.015625 1.84375 0.0625 1.59375 0.0625 Z M 1.59375 0.0625 "/></g></g></g><g fill="#990000" fill-opacity="1"><g transform="translate(89.277574, 50.234469)"><g><path d="M 1.640625 0.0625 C 1.398438 0.0625 1.179688 0.0351562 0.984375 -0.015625 C 0.785156 -0.0664062 0.613281 -0.140625 0.46875 -0.234375 C 0.332031 -0.335938 0.226562 -0.453125 0.15625 -0.578125 L 0.640625 -1.109375 L 0.71875 -1.109375 C 0.832031 -0.953125 0.96875 -0.832031 1.125 -0.75 C 1.28125 -0.675781 1.453125 -0.640625 1.640625 -0.640625 C 1.804688 -0.640625 1.929688 -0.671875 2.015625 -0.734375 C 2.109375 -0.796875 2.15625 -0.882812 2.15625 -1 C 2.15625 -1.082031 2.125 -1.15625 2.0625 -1.21875 C 2 -1.28125 1.898438 -1.328125 1.765625 -1.359375 L 1.296875 -1.46875 C 0.953125 -1.550781 0.695312 -1.675781 0.53125 -1.84375 C 0.375 -2.019531 0.296875 -2.238281 0.296875 -2.5 C 0.296875 -2.71875 0.351562 -2.90625 0.46875 -3.0625 C 0.582031 -3.226562 0.738281 -3.351562 0.9375 -3.4375 C 1.132812 -3.519531 1.367188 -3.5625 1.640625 -3.5625 C 1.953125 -3.5625 2.210938 -3.515625 2.421875 -3.421875 C 2.628906 -3.328125 2.789062 -3.207031 2.90625 -3.0625 L 2.4375 -2.546875 L 2.375 -2.546875 C 2.28125 -2.660156 2.171875 -2.742188 2.046875 -2.796875 C 1.921875 -2.847656 1.785156 -2.875 1.640625 -2.875 C 1.296875 -2.875 1.125 -2.765625 1.125 -2.546875 C 1.125 -2.453125 1.15625 -2.375 1.21875 -2.3125 C 1.28125 -2.257812 1.394531 -2.21875 1.5625 -2.1875 L 1.984375 -2.09375 C 2.335938 -2.007812 2.597656 -1.882812 2.765625 -1.71875 C 2.929688 -1.550781 3.015625 -1.328125 3.015625 -1.046875 C 3.015625 -0.828125 2.957031 -0.628906 2.84375 -0.453125 C 2.738281 -0.285156 2.582031 -0.15625 2.375 -0.0625 C 2.164062 0.0195312 1.921875 0.0625 1.640625 0.0625 Z M 1.640625 0.0625 "/></g></g></g><g fill="#990000" fill-opacity="1"><g transform="translate(92.493547, 50.234469)"><g><path d="M 0.9375 -3.90625 C 0.78125 -3.90625 0.648438 -3.953125 0.546875 -4.046875 C 0.453125 -4.148438 0.40625 -4.273438 0.40625 -4.421875 C 0.40625 -4.578125 0.453125 -4.703125 0.546875 -4.796875 C 0.648438 -4.890625 0.78125 -4.9375 0.9375 -4.9375 C 1.039062 -4.9375 1.132812 -4.914062 1.21875 -4.875 C 1.300781 -4.832031 1.363281 -4.769531 1.40625 -4.6875 C 1.457031 -4.613281 1.484375 -4.523438 1.484375 -4.421875 C 1.484375 -4.328125 1.457031 -4.238281 1.40625 -4.15625 C 1.363281 -4.082031 1.300781 -4.019531 1.21875 -3.96875 C 1.132812 -3.925781 1.039062 -3.90625 0.9375 -3.90625 Z M 0.5 0 L 0.5 -3.5 L 1.375 -3.5 L 1.375 0 Z M 0.5 0 "/></g></g></g><g fill="#990000" fill-opacity="1"><g transform="translate(94.371902, 50.234469)"><g><path d="M 0.5 0 L 0.5 -3.5 L 1.34375 -3.5 L 1.34375 -2.984375 L 1.40625 -2.96875 C 1.625 -3.363281 1.976562 -3.5625 2.46875 -3.5625 C 2.875 -3.5625 3.171875 -3.453125 3.359375 -3.234375 C 3.546875 -3.015625 3.640625 -2.691406 3.640625 -2.265625 L 3.640625 0 L 2.765625 0 L 2.765625 -2.15625 C 2.765625 -2.394531 2.71875 -2.5625 2.625 -2.65625 C 2.53125 -2.757812 2.378906 -2.8125 2.171875 -2.8125 C 1.921875 -2.8125 1.722656 -2.726562 1.578125 -2.5625 C 1.441406 -2.40625 1.375 -2.15625 1.375 -1.8125 L 1.375 0 Z M 0.5 0 "/></g></g></g><g fill="#990000" fill-opacity="1"><g transform="translate(98.457481, 50.234469)"><g><path d="M 3.453125 -1.546875 L 1.203125 -1.546875 C 1.234375 -1.242188 1.320312 -1.019531 1.46875 -0.875 C 1.613281 -0.738281 1.816406 -0.671875 2.078125 -0.671875 C 2.273438 -0.671875 2.4375 -0.707031 2.5625 -0.78125 C 2.6875 -0.863281 2.785156 -0.976562 2.859375 -1.125 L 2.921875 -1.125 L 3.515625 -0.75 C 3.398438 -0.507812 3.222656 -0.3125 2.984375 -0.15625 C 2.753906 -0.0078125 2.453125 0.0625 2.078125 0.0625 C 1.710938 0.0625 1.394531 -0.00390625 1.125 -0.140625 C 0.863281 -0.273438 0.660156 -0.476562 0.515625 -0.75 C 0.378906 -1.019531 0.3125 -1.351562 0.3125 -1.75 C 0.3125 -2.144531 0.382812 -2.476562 0.53125 -2.75 C 0.6875 -3.019531 0.890625 -3.222656 1.140625 -3.359375 C 1.398438 -3.492188 1.6875 -3.5625 2 -3.5625 C 2.5 -3.5625 2.878906 -3.429688 3.140625 -3.171875 C 3.398438 -2.910156 3.53125 -2.523438 3.53125 -2.015625 C 3.53125 -1.828125 3.523438 -1.6875 3.515625 -1.59375 Z M 2.703125 -2.109375 C 2.691406 -2.378906 2.628906 -2.570312 2.515625 -2.6875 C 2.398438 -2.8125 2.226562 -2.875 2 -2.875 C 1.5625 -2.875 1.300781 -2.617188 1.21875 -2.109375 Z M 2.703125 -2.109375 "/></g></g></g><g fill="#990000" fill-opacity="1"><g transform="translate(102.248977, 50.234469)"><g><path d="M 1.640625 0.0625 C 1.398438 0.0625 1.179688 0.0351562 0.984375 -0.015625 C 0.785156 -0.0664062 0.613281 -0.140625 0.46875 -0.234375 C 0.332031 -0.335938 0.226562 -0.453125 0.15625 -0.578125 L 0.640625 -1.109375 L 0.71875 -1.109375 C 0.832031 -0.953125 0.96875 -0.832031 1.125 -0.75 C 1.28125 -0.675781 1.453125 -0.640625 1.640625 -0.640625 C 1.804688 -0.640625 1.929688 -0.671875 2.015625 -0.734375 C 2.109375 -0.796875 2.15625 -0.882812 2.15625 -1 C 2.15625 -1.082031 2.125 -1.15625 2.0625 -1.21875 C 2 -1.28125 1.898438 -1.328125 1.765625 -1.359375 L 1.296875 -1.46875 C 0.953125 -1.550781 0.695312 -1.675781 0.53125 -1.84375 C 0.375 -2.019531 0.296875 -2.238281 0.296875 -2.5 C 0.296875 -2.71875 0.351562 -2.90625 0.46875 -3.0625 C 0.582031 -3.226562 0.738281 -3.351562 0.9375 -3.4375 C 1.132812 -3.519531 1.367188 -3.5625 1.640625 -3.5625 C 1.953125 -3.5625 2.210938 -3.515625 2.421875 -3.421875 C 2.628906 -3.328125 2.789062 -3.207031 2.90625 -3.0625 L 2.4375 -2.546875 L 2.375 -2.546875 C 2.28125 -2.660156 2.171875 -2.742188 2.046875 -2.796875 C 1.921875 -2.847656 1.785156 -2.875 1.640625 -2.875 C 1.296875 -2.875 1.125 -2.765625 1.125 -2.546875 C 1.125 -2.453125 1.15625 -2.375 1.21875 -2.3125 C 1.28125 -2.257812 1.394531 -2.21875 1.5625 -2.1875 L 1.984375 -2.09375 C 2.335938 -2.007812 2.597656 -1.882812 2.765625 -1.71875 C 2.929688 -1.550781 3.015625 -1.328125 3.015625 -1.046875 C 3.015625 -0.828125 2.957031 -0.628906 2.84375 -0.453125 C 2.738281 -0.285156 2.582031 -0.15625 2.375 -0.0625 C 2.164062 0.0195312 1.921875 0.0625 1.640625 0.0625 Z M 1.640625 0.0625 "/></g></g></g><g fill="#990000" fill-opacity="1"><g transform="translate(105.46495, 50.234469)"><g><path d="M 1.640625 0.0625 C 1.398438 0.0625 1.179688 0.0351562 0.984375 -0.015625 C 0.785156 -0.0664062 0.613281 -0.140625 0.46875 -0.234375 C 0.332031 -0.335938 0.226562 -0.453125 0.15625 -0.578125 L 0.640625 -1.109375 L 0.71875 -1.109375 C 0.832031 -0.953125 0.96875 -0.832031 1.125 -0.75 C 1.28125 -0.675781 1.453125 -0.640625 1.640625 -0.640625 C 1.804688 -0.640625 1.929688 -0.671875 2.015625 -0.734375 C 2.109375 -0.796875 2.15625 -0.882812 2.15625 -1 C 2.15625 -1.082031 2.125 -1.15625 2.0625 -1.21875 C 2 -1.28125 1.898438 -1.328125 1.765625 -1.359375 L 1.296875 -1.46875 C 0.953125 -1.550781 0.695312 -1.675781 0.53125 -1.84375 C 0.375 -2.019531 0.296875 -2.238281 0.296875 -2.5 C 0.296875 -2.71875 0.351562 -2.90625 0.46875 -3.0625 C 0.582031 -3.226562 0.738281 -3.351562 0.9375 -3.4375 C 1.132812 -3.519531 1.367188 -3.5625 1.640625 -3.5625 C 1.953125 -3.5625 2.210938 -3.515625 2.421875 -3.421875 C 2.628906 -3.328125 2.789062 -3.207031 2.90625 -3.0625 L 2.4375 -2.546875 L 2.375 -2.546875 C 2.28125 -2.660156 2.171875 -2.742188 2.046875 -2.796875 C 1.921875 -2.847656 1.785156 -2.875 1.640625 -2.875 C 1.296875 -2.875 1.125 -2.765625 1.125 -2.546875 C 1.125 -2.453125 1.15625 -2.375 1.21875 -2.3125 C 1.28125 -2.257812 1.394531 -2.21875 1.5625 -2.1875 L 1.984375 -2.09375 C 2.335938 -2.007812 2.597656 -1.882812 2.765625 -1.71875 C 2.929688 -1.550781 3.015625 -1.328125 3.015625 -1.046875 C 3.015625 -0.828125 2.957031 -0.628906 2.84375 -0.453125 C 2.738281 -0.285156 2.582031 -0.15625 2.375 -0.0625 C 2.164062 0.0195312 1.921875 0.0625 1.640625 0.0625 Z M 1.640625 0.0625 "/></g></g></g><g fill="#990000" fill-opacity="1"><g transform="translate(108.680923, 50.234469)"><g/></g></g><g fill="#990000" fill-opacity="1"><g transform="translate(110.208275, 50.234469)"><g><path d="M 2.046875 0.0625 C 1.734375 0.0625 1.445312 0.0234375 1.1875 -0.046875 C 0.9375 -0.128906 0.726562 -0.234375 0.5625 -0.359375 C 0.394531 -0.492188 0.269531 -0.632812 0.1875 -0.78125 L 0.6875 -1.40625 L 0.765625 -1.40625 C 0.910156 -1.195312 1.085938 -1.03125 1.296875 -0.90625 C 1.515625 -0.78125 1.765625 -0.71875 2.046875 -0.71875 C 2.296875 -0.71875 2.484375 -0.769531 2.609375 -0.875 C 2.734375 -0.976562 2.796875 -1.125 2.796875 -1.3125 C 2.796875 -1.414062 2.773438 -1.503906 2.734375 -1.578125 C 2.691406 -1.648438 2.625 -1.710938 2.53125 -1.765625 C 2.4375 -1.828125 2.3125 -1.875 2.15625 -1.90625 L 1.5625 -2.046875 C 1.144531 -2.140625 0.832031 -2.296875 0.625 -2.515625 C 0.425781 -2.734375 0.328125 -3.019531 0.328125 -3.375 C 0.328125 -3.632812 0.390625 -3.863281 0.515625 -4.0625 C 0.648438 -4.257812 0.84375 -4.414062 1.09375 -4.53125 C 1.34375 -4.644531 1.640625 -4.703125 1.984375 -4.703125 C 2.347656 -4.703125 2.65625 -4.648438 2.90625 -4.546875 C 3.164062 -4.453125 3.378906 -4.3125 3.546875 -4.125 L 3.09375 -3.5 L 3.015625 -3.5 C 2.890625 -3.632812 2.738281 -3.734375 2.5625 -3.796875 C 2.394531 -3.867188 2.203125 -3.90625 1.984375 -3.90625 C 1.734375 -3.90625 1.539062 -3.859375 1.40625 -3.765625 C 1.28125 -3.679688 1.21875 -3.5625 1.21875 -3.40625 C 1.21875 -3.257812 1.265625 -3.144531 1.359375 -3.0625 C 1.453125 -2.976562 1.613281 -2.910156 1.84375 -2.859375 L 2.4375 -2.734375 C 2.894531 -2.640625 3.222656 -2.476562 3.421875 -2.25 C 3.628906 -2.019531 3.734375 -1.722656 3.734375 -1.359375 C 3.734375 -1.078125 3.671875 -0.828125 3.546875 -0.609375 C 3.421875 -0.390625 3.226562 -0.222656 2.96875 -0.109375 C 2.71875 0.00390625 2.410156 0.0625 2.046875 0.0625 Z M 2.046875 0.0625 "/></g></g></g><g fill="#990000" fill-opacity="1"><g transform="translate(114.180014, 50.234469)"><g><path d="M 2.03125 0.0625 C 1.695312 0.0625 1.398438 -0.00390625 1.140625 -0.140625 C 0.878906 -0.285156 0.675781 -0.492188 0.53125 -0.765625 C 0.382812 -1.035156 0.3125 -1.363281 0.3125 -1.75 C 0.3125 -2.132812 0.382812 -2.460938 0.53125 -2.734375 C 0.675781 -3.003906 0.875 -3.207031 1.125 -3.34375 C 1.382812 -3.488281 1.679688 -3.5625 2.015625 -3.5625 C 2.753906 -3.5625 3.226562 -3.289062 3.4375 -2.75 L 2.828125 -2.328125 L 2.765625 -2.328125 C 2.691406 -2.492188 2.597656 -2.613281 2.484375 -2.6875 C 2.367188 -2.769531 2.210938 -2.8125 2.015625 -2.8125 C 1.765625 -2.8125 1.566406 -2.722656 1.421875 -2.546875 C 1.285156 -2.378906 1.21875 -2.113281 1.21875 -1.75 C 1.21875 -1.382812 1.285156 -1.113281 1.421875 -0.9375 C 1.566406 -0.757812 1.769531 -0.671875 2.03125 -0.671875 C 2.226562 -0.671875 2.390625 -0.722656 2.515625 -0.828125 C 2.648438 -0.929688 2.742188 -1.078125 2.796875 -1.265625 L 2.875 -1.28125 L 3.5 -0.9375 C 3.40625 -0.644531 3.238281 -0.40625 3 -0.21875 C 2.757812 -0.03125 2.4375 0.0625 2.03125 0.0625 Z M 2.03125 0.0625 "/></g></g></g><g fill="#990000" fill-opacity="1"><g transform="translate(117.775453, 50.234469)"><g><path d="M 0.5 0 L 0.5 -4.890625 L 1.375 -4.890625 L 1.375 -3.03125 L 1.453125 -3.03125 C 1.566406 -3.195312 1.707031 -3.328125 1.875 -3.421875 C 2.039062 -3.515625 2.242188 -3.5625 2.484375 -3.5625 C 3.253906 -3.5625 3.640625 -3.125 3.640625 -2.25 L 3.640625 0 L 2.765625 0 L 2.765625 -2.140625 C 2.765625 -2.378906 2.71875 -2.550781 2.625 -2.65625 C 2.53125 -2.757812 2.378906 -2.8125 2.171875 -2.8125 C 1.929688 -2.8125 1.738281 -2.726562 1.59375 -2.5625 C 1.445312 -2.40625 1.375 -2.15625 1.375 -1.8125 L 1.375 0 Z M 0.5 0 "/></g></g></g><g fill="#990000" fill-opacity="1"><g transform="translate(121.861032, 50.234469)"><g><path d="M 2.03125 0.0625 C 1.6875 0.0625 1.382812 -0.00390625 1.125 -0.140625 C 0.863281 -0.285156 0.660156 -0.492188 0.515625 -0.765625 C 0.378906 -1.035156 0.3125 -1.363281 0.3125 -1.75 C 0.3125 -2.132812 0.378906 -2.460938 0.515625 -2.734375 C 0.660156 -3.003906 0.863281 -3.207031 1.125 -3.34375 C 1.382812 -3.488281 1.6875 -3.5625 2.03125 -3.5625 C 2.375 -3.5625 2.671875 -3.488281 2.921875 -3.34375 C 3.179688 -3.207031 3.382812 -3.003906 3.53125 -2.734375 C 3.675781 -2.460938 3.75 -2.132812 3.75 -1.75 C 3.75 -1.363281 3.675781 -1.035156 3.53125 -0.765625 C 3.382812 -0.492188 3.179688 -0.285156 2.921875 -0.140625 C 2.671875 -0.00390625 2.375 0.0625 2.03125 0.0625 Z M 2.03125 -0.671875 C 2.570312 -0.671875 2.84375 -1.03125 2.84375 -1.75 C 2.84375 -2.113281 2.769531 -2.378906 2.625 -2.546875 C 2.488281 -2.722656 2.289062 -2.8125 2.03125 -2.8125 C 1.488281 -2.8125 1.21875 -2.457031 1.21875 -1.75 C 1.21875 -1.03125 1.488281 -0.671875 2.03125 -0.671875 Z M 2.03125 -0.671875 "/></g></g></g><g fill="#990000" fill-opacity="1"><g transform="translate(125.91499, 50.234469)"><g><path d="M 2.03125 0.0625 C 1.6875 0.0625 1.382812 -0.00390625 1.125 -0.140625 C 0.863281 -0.285156 0.660156 -0.492188 0.515625 -0.765625 C 0.378906 -1.035156 0.3125 -1.363281 0.3125 -1.75 C 0.3125 -2.132812 0.378906 -2.460938 0.515625 -2.734375 C 0.660156 -3.003906 0.863281 -3.207031 1.125 -3.34375 C 1.382812 -3.488281 1.6875 -3.5625 2.03125 -3.5625 C 2.375 -3.5625 2.671875 -3.488281 2.921875 -3.34375 C 3.179688 -3.207031 3.382812 -3.003906 3.53125 -2.734375 C 3.675781 -2.460938 3.75 -2.132812 3.75 -1.75 C 3.75 -1.363281 3.675781 -1.035156 3.53125 -0.765625 C 3.382812 -0.492188 3.179688 -0.285156 2.921875 -0.140625 C 2.671875 -0.00390625 2.375 0.0625 2.03125 0.0625 Z M 2.03125 -0.671875 C 2.570312 -0.671875 2.84375 -1.03125 2.84375 -1.75 C 2.84375 -2.113281 2.769531 -2.378906 2.625 -2.546875 C 2.488281 -2.722656 2.289062 -2.8125 2.03125 -2.8125 C 1.488281 -2.8125 1.21875 -2.457031 1.21875 -1.75 C 1.21875 -1.03125 1.488281 -0.671875 2.03125 -0.671875 Z M 2.03125 -0.671875 "/></g></g></g><g fill="#990000" fill-opacity="1"><g transform="translate(129.968947, 50.234469)"><g><path d="M 1.453125 0.0625 C 1.140625 0.0625 0.898438 -0.0195312 0.734375 -0.1875 C 0.566406 -0.351562 0.484375 -0.613281 0.484375 -0.96875 L 0.484375 -4.890625 L 1.359375 -4.890625 L 1.359375 -1 C 1.359375 -0.78125 1.445312 -0.671875 1.625 -0.671875 C 1.675781 -0.671875 1.726562 -0.679688 1.78125 -0.703125 L 1.828125 -0.6875 L 1.90625 -0.015625 C 1.863281 0.00390625 1.800781 0.0195312 1.71875 0.03125 C 1.632812 0.0507812 1.546875 0.0625 1.453125 0.0625 Z M 1.453125 0.0625 "/></g></g></g><g fill="#990000" fill-opacity="1"><g transform="translate(80.720625, 56.611047)"><g><path d="M 1.515625 -2.03125 L 1.515625 -0.765625 L 3.734375 -0.765625 L 3.734375 0 L 0.609375 0 L 0.609375 -4.625 L 3.671875 -4.625 L 3.671875 -3.859375 L 1.515625 -3.859375 L 1.515625 -2.78125 L 3.40625 -2.78125 L 3.40625 -2.03125 Z M 1.515625 -2.03125 "/></g></g></g><g fill="#990000" fill-opacity="1"><g transform="translate(84.69553, 56.611047)"><g><path d="M 0.5 0 L 0.5 -3.5 L 1.34375 -3.5 L 1.34375 -3.03125 L 1.40625 -3.015625 C 1.519531 -3.203125 1.65625 -3.335938 1.8125 -3.421875 C 1.96875 -3.515625 2.164062 -3.5625 2.40625 -3.5625 C 2.664062 -3.5625 2.875 -3.507812 3.03125 -3.40625 C 3.195312 -3.300781 3.316406 -3.144531 3.390625 -2.9375 L 3.453125 -2.9375 C 3.554688 -3.15625 3.691406 -3.3125 3.859375 -3.40625 C 4.035156 -3.507812 4.25 -3.5625 4.5 -3.5625 C 5.226562 -3.5625 5.59375 -3.15625 5.59375 -2.34375 L 5.59375 0 L 4.71875 0 L 4.71875 -2.234375 C 4.71875 -2.441406 4.675781 -2.585938 4.59375 -2.671875 C 4.507812 -2.765625 4.378906 -2.8125 4.203125 -2.8125 C 3.722656 -2.8125 3.484375 -2.492188 3.484375 -1.859375 L 3.484375 0 L 2.609375 0 L 2.609375 -2.234375 C 2.609375 -2.441406 2.566406 -2.585938 2.484375 -2.671875 C 2.398438 -2.765625 2.269531 -2.8125 2.09375 -2.8125 C 1.875 -2.8125 1.695312 -2.734375 1.5625 -2.578125 C 1.4375 -2.429688 1.375 -2.195312 1.375 -1.875 L 1.375 0 Z M 0.5 0 "/></g></g></g><g fill="#990000" fill-opacity="1"><g transform="translate(90.729032, 56.611047)"><g><path d="M 0.5 1.421875 L 0.5 -3.5 L 1.375 -3.5 L 1.375 -3.03125 L 1.453125 -3.03125 C 1.554688 -3.207031 1.691406 -3.335938 1.859375 -3.421875 C 2.035156 -3.515625 2.238281 -3.5625 2.46875 -3.5625 C 2.75 -3.5625 2.992188 -3.492188 3.203125 -3.359375 C 3.410156 -3.222656 3.570312 -3.019531 3.6875 -2.75 C 3.8125 -2.476562 3.875 -2.144531 3.875 -1.75 C 3.875 -1.34375 3.8125 -1.003906 3.6875 -0.734375 C 3.5625 -0.460938 3.390625 -0.257812 3.171875 -0.125 C 2.953125 0 2.695312 0.0625 2.40625 0.0625 C 2.195312 0.0625 2.007812 0.0234375 1.84375 -0.046875 C 1.6875 -0.117188 1.554688 -0.234375 1.453125 -0.390625 L 1.375 -0.375 L 1.375 1.421875 Z M 2.171875 -0.671875 C 2.429688 -0.671875 2.628906 -0.753906 2.765625 -0.921875 C 2.898438 -1.097656 2.96875 -1.375 2.96875 -1.75 C 2.96875 -2.113281 2.898438 -2.378906 2.765625 -2.546875 C 2.628906 -2.722656 2.429688 -2.8125 2.171875 -2.8125 C 1.921875 -2.8125 1.722656 -2.722656 1.578125 -2.546875 C 1.441406 -2.367188 1.375 -2.101562 1.375 -1.75 C 1.375 -1.382812 1.441406 -1.113281 1.578125 -0.9375 C 1.722656 -0.757812 1.921875 -0.671875 2.171875 -0.671875 Z M 2.171875 -0.671875 "/></g></g></g><g fill="#990000" fill-opacity="1"><g transform="translate(94.906318, 56.611047)"><g><path d="M 2.03125 0.0625 C 1.6875 0.0625 1.382812 -0.00390625 1.125 -0.140625 C 0.863281 -0.285156 0.660156 -0.492188 0.515625 -0.765625 C 0.378906 -1.035156 0.3125 -1.363281 0.3125 -1.75 C 0.3125 -2.132812 0.378906 -2.460938 0.515625 -2.734375 C 0.660156 -3.003906 0.863281 -3.207031 1.125 -3.34375 C 1.382812 -3.488281 1.6875 -3.5625 2.03125 -3.5625 C 2.375 -3.5625 2.671875 -3.488281 2.921875 -3.34375 C 3.179688 -3.207031 3.382812 -3.003906 3.53125 -2.734375 C 3.675781 -2.460938 3.75 -2.132812 3.75 -1.75 C 3.75 -1.363281 3.675781 -1.035156 3.53125 -0.765625 C 3.382812 -0.492188 3.179688 -0.285156 2.921875 -0.140625 C 2.671875 -0.00390625 2.375 0.0625 2.03125 0.0625 Z M 2.03125 -0.671875 C 2.570312 -0.671875 2.84375 -1.03125 2.84375 -1.75 C 2.84375 -2.113281 2.769531 -2.378906 2.625 -2.546875 C 2.488281 -2.722656 2.289062 -2.8125 2.03125 -2.8125 C 1.488281 -2.8125 1.21875 -2.457031 1.21875 -1.75 C 1.21875 -1.03125 1.488281 -0.671875 2.03125 -0.671875 Z M 2.03125 -0.671875 "/></g></g></g><g fill="#990000" fill-opacity="1"><g transform="translate(98.960276, 56.611047)"><g><path d="M 1.875 0 L 0.953125 0 L 0.125 -3.5 L 0.9375 -3.5 L 1.453125 -1.125 L 1.515625 -1.125 L 2.1875 -3.5 L 2.9375 -3.5 L 3.625 -1.125 L 3.703125 -1.125 L 4.1875 -3.5 L 4.984375 -3.5 L 4.15625 0 L 3.25 0 L 2.578125 -2.375 L 2.515625 -2.375 Z M 1.875 0 "/></g></g></g><g fill="#990000" fill-opacity="1"><g transform="translate(104.060928, 56.611047)"><g><path d="M 3.453125 -1.546875 L 1.203125 -1.546875 C 1.234375 -1.242188 1.320312 -1.019531 1.46875 -0.875 C 1.613281 -0.738281 1.816406 -0.671875 2.078125 -0.671875 C 2.273438 -0.671875 2.4375 -0.707031 2.5625 -0.78125 C 2.6875 -0.863281 2.785156 -0.976562 2.859375 -1.125 L 2.921875 -1.125 L 3.515625 -0.75 C 3.398438 -0.507812 3.222656 -0.3125 2.984375 -0.15625 C 2.753906 -0.0078125 2.453125 0.0625 2.078125 0.0625 C 1.710938 0.0625 1.394531 -0.00390625 1.125 -0.140625 C 0.863281 -0.273438 0.660156 -0.476562 0.515625 -0.75 C 0.378906 -1.019531 0.3125 -1.351562 0.3125 -1.75 C 0.3125 -2.144531 0.382812 -2.476562 0.53125 -2.75 C 0.6875 -3.019531 0.890625 -3.222656 1.140625 -3.359375 C 1.398438 -3.492188 1.6875 -3.5625 2 -3.5625 C 2.5 -3.5625 2.878906 -3.429688 3.140625 -3.171875 C 3.398438 -2.910156 3.53125 -2.523438 3.53125 -2.015625 C 3.53125 -1.828125 3.523438 -1.6875 3.515625 -1.59375 Z M 2.703125 -2.109375 C 2.691406 -2.378906 2.628906 -2.570312 2.515625 -2.6875 C 2.398438 -2.8125 2.226562 -2.875 2 -2.875 C 1.5625 -2.875 1.300781 -2.617188 1.21875 -2.109375 Z M 2.703125 -2.109375 "/></g></g></g><g fill="#990000" fill-opacity="1"><g transform="translate(107.852424, 56.611047)"><g><path d="M 0.5 0 L 0.5 -3.5 L 1.359375 -3.5 L 1.359375 -2.96875 L 1.421875 -2.953125 C 1.503906 -3.148438 1.613281 -3.296875 1.75 -3.390625 C 1.882812 -3.484375 2.050781 -3.53125 2.25 -3.53125 C 2.445312 -3.53125 2.597656 -3.492188 2.703125 -3.421875 L 2.5625 -2.671875 L 2.484375 -2.65625 C 2.429688 -2.675781 2.378906 -2.691406 2.328125 -2.703125 C 2.273438 -2.710938 2.210938 -2.71875 2.140625 -2.71875 C 1.890625 -2.71875 1.695312 -2.628906 1.5625 -2.453125 C 1.4375 -2.285156 1.375 -2.015625 1.375 -1.640625 L 1.375 0 Z M 0.5 0 "/></g></g></g><g fill="#990000" fill-opacity="1"><g transform="translate(110.58774, 56.611047)"><g><path d="M 3.453125 -1.546875 L 1.203125 -1.546875 C 1.234375 -1.242188 1.320312 -1.019531 1.46875 -0.875 C 1.613281 -0.738281 1.816406 -0.671875 2.078125 -0.671875 C 2.273438 -0.671875 2.4375 -0.707031 2.5625 -0.78125 C 2.6875 -0.863281 2.785156 -0.976562 2.859375 -1.125 L 2.921875 -1.125 L 3.515625 -0.75 C 3.398438 -0.507812 3.222656 -0.3125 2.984375 -0.15625 C 2.753906 -0.0078125 2.453125 0.0625 2.078125 0.0625 C 1.710938 0.0625 1.394531 -0.00390625 1.125 -0.140625 C 0.863281 -0.273438 0.660156 -0.476562 0.515625 -0.75 C 0.378906 -1.019531 0.3125 -1.351562 0.3125 -1.75 C 0.3125 -2.144531 0.382812 -2.476562 0.53125 -2.75 C 0.6875 -3.019531 0.890625 -3.222656 1.140625 -3.359375 C 1.398438 -3.492188 1.6875 -3.5625 2 -3.5625 C 2.5 -3.5625 2.878906 -3.429688 3.140625 -3.171875 C 3.398438 -2.910156 3.53125 -2.523438 3.53125 -2.015625 C 3.53125 -1.828125 3.523438 -1.6875 3.515625 -1.59375 Z M 2.703125 -2.109375 C 2.691406 -2.378906 2.628906 -2.570312 2.515625 -2.6875 C 2.398438 -2.8125 2.226562 -2.875 2 -2.875 C 1.5625 -2.875 1.300781 -2.617188 1.21875 -2.109375 Z M 2.703125 -2.109375 "/></g></g></g><g fill="#990000" fill-opacity="1"><g transform="translate(114.379236, 56.611047)"><g><path d="M 1.71875 0.0625 C 1.445312 0.0625 1.203125 0 0.984375 -0.125 C 0.773438 -0.257812 0.609375 -0.460938 0.484375 -0.734375 C 0.367188 -1.015625 0.3125 -1.351562 0.3125 -1.75 C 0.3125 -2.144531 0.375 -2.476562 0.5 -2.75 C 0.625 -3.019531 0.796875 -3.222656 1.015625 -3.359375 C 1.234375 -3.492188 1.484375 -3.5625 1.765625 -3.5625 C 1.984375 -3.5625 2.171875 -3.519531 2.328125 -3.4375 C 2.492188 -3.363281 2.628906 -3.25 2.734375 -3.09375 L 2.8125 -3.109375 L 2.8125 -4.890625 L 3.6875 -4.890625 L 3.6875 0 L 2.8125 0 L 2.8125 -0.453125 L 2.734375 -0.46875 C 2.640625 -0.300781 2.507812 -0.171875 2.34375 -0.078125 C 2.175781 0.015625 1.96875 0.0625 1.71875 0.0625 Z M 2.015625 -0.671875 C 2.253906 -0.671875 2.445312 -0.757812 2.59375 -0.9375 C 2.738281 -1.113281 2.8125 -1.382812 2.8125 -1.75 C 2.8125 -2.101562 2.738281 -2.367188 2.59375 -2.546875 C 2.445312 -2.722656 2.253906 -2.8125 2.015625 -2.8125 C 1.753906 -2.8125 1.554688 -2.722656 1.421875 -2.546875 C 1.285156 -2.378906 1.21875 -2.113281 1.21875 -1.75 C 1.21875 -1.375 1.285156 -1.097656 1.421875 -0.921875 C 1.554688 -0.753906 1.753906 -0.671875 2.015625 -0.671875 Z M 2.015625 -0.671875 "/></g></g></g><g fill="#990000" fill-opacity="1"><g transform="translate(118.559682, 56.611047)"><g/></g></g><g fill="#990000" fill-opacity="1"><g transform="translate(120.087033, 56.611047)"><g><path d="M 2.4375 0.0625 C 1.988281 0.0625 1.660156 -0.101562 1.453125 -0.4375 L 1.375 -0.421875 L 1.375 0 L 0.5 0 L 0.5 -4.890625 L 1.375 -4.890625 L 1.375 -3.078125 L 1.453125 -3.0625 C 1.566406 -3.226562 1.707031 -3.351562 1.875 -3.4375 C 2.039062 -3.519531 2.234375 -3.5625 2.453125 -3.5625 C 2.742188 -3.5625 2.992188 -3.492188 3.203125 -3.359375 C 3.410156 -3.222656 3.570312 -3.019531 3.6875 -2.75 C 3.8125 -2.476562 3.875 -2.144531 3.875 -1.75 C 3.875 -1.351562 3.8125 -1.015625 3.6875 -0.734375 C 3.5625 -0.460938 3.390625 -0.257812 3.171875 -0.125 C 2.960938 0 2.71875 0.0625 2.4375 0.0625 Z M 2.171875 -0.671875 C 2.429688 -0.671875 2.628906 -0.753906 2.765625 -0.921875 C 2.898438 -1.097656 2.96875 -1.375 2.96875 -1.75 C 2.96875 -2.113281 2.898438 -2.378906 2.765625 -2.546875 C 2.628906 -2.722656 2.429688 -2.8125 2.171875 -2.8125 C 1.929688 -2.8125 1.738281 -2.722656 1.59375 -2.546875 C 1.445312 -2.367188 1.375 -2.101562 1.375 -1.75 C 1.375 -1.382812 1.445312 -1.113281 1.59375 -0.9375 C 1.738281 -0.757812 1.929688 -0.671875 2.171875 -0.671875 Z M 2.171875 -0.671875 "/></g></g></g><g fill="#990000" fill-opacity="1"><g transform="translate(124.264319, 56.611047)"><g><path d="M 0.765625 1.484375 C 0.617188 1.484375 0.484375 1.46875 0.359375 1.4375 C 0.242188 1.414062 0.144531 1.390625 0.0625 1.359375 L 0.203125 0.640625 L 0.265625 0.625 C 0.316406 0.65625 0.378906 0.675781 0.453125 0.6875 C 0.535156 0.707031 0.617188 0.71875 0.703125 0.71875 C 0.847656 0.71875 0.96875 0.695312 1.0625 0.65625 C 1.15625 0.625 1.234375 0.5625 1.296875 0.46875 C 1.359375 0.382812 1.414062 0.269531 1.46875 0.125 L 0.078125 -3.5 L 1 -3.5 L 1.859375 -1.0625 L 1.9375 -1.0625 L 2.78125 -3.5 L 3.671875 -3.5 L 2.265625 0.21875 C 2.160156 0.519531 2.039062 0.757812 1.90625 0.9375 C 1.769531 1.125 1.609375 1.257812 1.421875 1.34375 C 1.242188 1.4375 1.023438 1.484375 0.765625 1.484375 Z M 0.765625 1.484375 "/></g></g></g><g fill="#990000" fill-opacity="1"><g transform="translate(128.008379, 56.611047)"><g/></g></g><g fill="#990000" fill-opacity="1"><g transform="translate(129.535731, 56.611047)"><g><path d="M 4.4375 0 L 3.484375 0 L 3.125 -1.0625 L 1.359375 -1.0625 L 1.015625 0 L 0.0625 0 L 1.671875 -4.625 L 2.84375 -4.625 Z M 2.203125 -3.65625 L 1.609375 -1.84375 L 2.875 -1.84375 L 2.28125 -3.65625 Z M 2.203125 -3.65625 "/></g></g></g><g fill="#990000" fill-opacity="1"><g transform="translate(134.041887, 56.611047)"><g><path d="M 0.5 0 L 0.5 -3.5 L 1.359375 -3.5 L 1.359375 -2.96875 L 1.421875 -2.953125 C 1.503906 -3.148438 1.613281 -3.296875 1.75 -3.390625 C 1.882812 -3.484375 2.050781 -3.53125 2.25 -3.53125 C 2.445312 -3.53125 2.597656 -3.492188 2.703125 -3.421875 L 2.5625 -2.671875 L 2.484375 -2.65625 C 2.429688 -2.675781 2.378906 -2.691406 2.328125 -2.703125 C 2.273438 -2.710938 2.210938 -2.71875 2.140625 -2.71875 C 1.890625 -2.71875 1.695312 -2.628906 1.5625 -2.453125 C 1.4375 -2.285156 1.375 -2.015625 1.375 -1.640625 L 1.375 0 Z M 0.5 0 "/></g></g></g><g fill="#990000" fill-opacity="1"><g transform="translate(136.777203, 56.611047)"><g><path d="M 2.40625 -0.828125 L 2.640625 -0.1875 C 2.546875 -0.101562 2.425781 -0.0390625 2.28125 0 C 2.132812 0.0390625 1.972656 0.0625 1.796875 0.0625 C 1.410156 0.0625 1.117188 -0.0351562 0.921875 -0.234375 C 0.734375 -0.441406 0.640625 -0.742188 0.640625 -1.140625 L 0.640625 -2.796875 L 0.109375 -2.796875 L 0.109375 -3.5 L 0.640625 -3.5 L 0.640625 -4.171875 L 1.515625 -4.3125 L 1.515625 -3.5 L 2.5 -3.5 L 2.5 -2.796875 L 1.515625 -2.796875 L 1.515625 -1.203125 C 1.515625 -1.023438 1.550781 -0.894531 1.625 -0.8125 C 1.695312 -0.738281 1.800781 -0.703125 1.9375 -0.703125 C 2.09375 -0.703125 2.226562 -0.742188 2.34375 -0.828125 Z M 2.40625 -0.828125 "/></g></g></g><g fill="#990000" fill-opacity="1"><g transform="translate(139.487222, 56.611047)"><g><path d="M 0.9375 -3.90625 C 0.78125 -3.90625 0.648438 -3.953125 0.546875 -4.046875 C 0.453125 -4.148438 0.40625 -4.273438 0.40625 -4.421875 C 0.40625 -4.578125 0.453125 -4.703125 0.546875 -4.796875 C 0.648438 -4.890625 0.78125 -4.9375 0.9375 -4.9375 C 1.039062 -4.9375 1.132812 -4.914062 1.21875 -4.875 C 1.300781 -4.832031 1.363281 -4.769531 1.40625 -4.6875 C 1.457031 -4.613281 1.484375 -4.523438 1.484375 -4.421875 C 1.484375 -4.328125 1.457031 -4.238281 1.40625 -4.15625 C 1.363281 -4.082031 1.300781 -4.019531 1.21875 -3.96875 C 1.132812 -3.925781 1.039062 -3.90625 0.9375 -3.90625 Z M 0.5 0 L 0.5 -3.5 L 1.375 -3.5 L 1.375 0 Z M 0.5 0 "/></g></g></g><g fill="#990000" fill-opacity="1"><g transform="translate(141.365577, 56.611047)"><g><path d="M 0.609375 0 L 0.609375 -2.796875 L 0.109375 -2.796875 L 0.109375 -3.5 L 0.609375 -3.5 C 0.578125 -3.644531 0.5625 -3.78125 0.5625 -3.90625 C 0.5625 -4.132812 0.609375 -4.328125 0.703125 -4.484375 C 0.804688 -4.640625 0.953125 -4.757812 1.140625 -4.84375 C 1.335938 -4.925781 1.566406 -4.96875 1.828125 -4.96875 C 2.210938 -4.96875 2.5 -4.898438 2.6875 -4.765625 L 2.484375 -4.109375 L 2.421875 -4.109375 C 2.285156 -4.203125 2.113281 -4.25 1.90625 -4.25 C 1.75 -4.25 1.628906 -4.207031 1.546875 -4.125 C 1.472656 -4.050781 1.4375 -3.945312 1.4375 -3.8125 C 1.4375 -3.757812 1.4375 -3.707031 1.4375 -3.65625 C 1.445312 -3.601562 1.460938 -3.550781 1.484375 -3.5 L 2.484375 -3.5 L 2.484375 -2.796875 L 1.484375 -2.796875 L 1.484375 0 Z M 0.609375 0 "/></g></g></g><g fill="#990000" fill-opacity="1"><g transform="translate(143.882699, 56.611047)"><g><path d="M 0.9375 -3.90625 C 0.78125 -3.90625 0.648438 -3.953125 0.546875 -4.046875 C 0.453125 -4.148438 0.40625 -4.273438 0.40625 -4.421875 C 0.40625 -4.578125 0.453125 -4.703125 0.546875 -4.796875 C 0.648438 -4.890625 0.78125 -4.9375 0.9375 -4.9375 C 1.039062 -4.9375 1.132812 -4.914062 1.21875 -4.875 C 1.300781 -4.832031 1.363281 -4.769531 1.40625 -4.6875 C 1.457031 -4.613281 1.484375 -4.523438 1.484375 -4.421875 C 1.484375 -4.328125 1.457031 -4.238281 1.40625 -4.15625 C 1.363281 -4.082031 1.300781 -4.019531 1.21875 -3.96875 C 1.132812 -3.925781 1.039062 -3.90625 0.9375 -3.90625 Z M 0.5 0 L 0.5 -3.5 L 1.375 -3.5 L 1.375 0 Z M 0.5 0 "/></g></g></g><g fill="#990000" fill-opacity="1"><g transform="translate(145.761053, 56.611047)"><g><path d="M 2.03125 0.0625 C 1.695312 0.0625 1.398438 -0.00390625 1.140625 -0.140625 C 0.878906 -0.285156 0.675781 -0.492188 0.53125 -0.765625 C 0.382812 -1.035156 0.3125 -1.363281 0.3125 -1.75 C 0.3125 -2.132812 0.382812 -2.460938 0.53125 -2.734375 C 0.675781 -3.003906 0.875 -3.207031 1.125 -3.34375 C 1.382812 -3.488281 1.679688 -3.5625 2.015625 -3.5625 C 2.753906 -3.5625 3.226562 -3.289062 3.4375 -2.75 L 2.828125 -2.328125 L 2.765625 -2.328125 C 2.691406 -2.492188 2.597656 -2.613281 2.484375 -2.6875 C 2.367188 -2.769531 2.210938 -2.8125 2.015625 -2.8125 C 1.765625 -2.8125 1.566406 -2.722656 1.421875 -2.546875 C 1.285156 -2.378906 1.21875 -2.113281 1.21875 -1.75 C 1.21875 -1.382812 1.285156 -1.113281 1.421875 -0.9375 C 1.566406 -0.757812 1.769531 -0.671875 2.03125 -0.671875 C 2.226562 -0.671875 2.390625 -0.722656 2.515625 -0.828125 C 2.648438 -0.929688 2.742188 -1.078125 2.796875 -1.265625 L 2.875 -1.28125 L 3.5 -0.9375 C 3.40625 -0.644531 3.238281 -0.40625 3 -0.21875 C 2.757812 -0.03125 2.4375 0.0625 2.03125 0.0625 Z M 2.03125 0.0625 "/></g></g></g><g fill="#990000" fill-opacity="1"><g transform="translate(149.356492, 56.611047)"><g><path d="M 0.9375 -3.90625 C 0.78125 -3.90625 0.648438 -3.953125 0.546875 -4.046875 C 0.453125 -4.148438 0.40625 -4.273438 0.40625 -4.421875 C 0.40625 -4.578125 0.453125 -4.703125 0.546875 -4.796875 C 0.648438 -4.890625 0.78125 -4.9375 0.9375 -4.9375 C 1.039062 -4.9375 1.132812 -4.914062 1.21875 -4.875 C 1.300781 -4.832031 1.363281 -4.769531 1.40625 -4.6875 C 1.457031 -4.613281 1.484375 -4.523438 1.484375 -4.421875 C 1.484375 -4.328125 1.457031 -4.238281 1.40625 -4.15625 C 1.363281 -4.082031 1.300781 -4.019531 1.21875 -3.96875 C 1.132812 -3.925781 1.039062 -3.90625 0.9375 -3.90625 Z M 0.5 0 L 0.5 -3.5 L 1.375 -3.5 L 1.375 0 Z M 0.5 0 "/></g></g></g><g fill="#990000" fill-opacity="1"><g transform="translate(151.234846, 56.611047)"><g><path d="M 1.359375 0.0625 C 1.140625 0.0625 0.945312 0.0195312 0.78125 -0.0625 C 0.613281 -0.144531 0.484375 -0.265625 0.390625 -0.421875 C 0.304688 -0.578125 0.265625 -0.769531 0.265625 -1 C 0.265625 -1.195312 0.304688 -1.363281 0.390625 -1.5 C 0.484375 -1.644531 0.625 -1.765625 0.8125 -1.859375 C 1 -1.953125 1.238281 -2.019531 1.53125 -2.0625 C 1.75 -2.101562 1.910156 -2.140625 2.015625 -2.171875 C 2.117188 -2.210938 2.191406 -2.257812 2.234375 -2.3125 C 2.273438 -2.363281 2.296875 -2.425781 2.296875 -2.5 C 2.296875 -2.613281 2.253906 -2.703125 2.171875 -2.765625 C 2.097656 -2.828125 1.96875 -2.859375 1.78125 -2.859375 C 1.59375 -2.859375 1.410156 -2.8125 1.234375 -2.71875 C 1.054688 -2.632812 0.90625 -2.519531 0.78125 -2.375 L 0.71875 -2.375 L 0.34375 -2.9375 C 0.519531 -3.132812 0.734375 -3.285156 0.984375 -3.390625 C 1.242188 -3.503906 1.523438 -3.5625 1.828125 -3.5625 C 2.296875 -3.5625 2.628906 -3.460938 2.828125 -3.265625 C 3.035156 -3.066406 3.140625 -2.785156 3.140625 -2.421875 L 3.140625 -0.90625 C 3.140625 -0.75 3.207031 -0.671875 3.34375 -0.671875 C 3.394531 -0.671875 3.445312 -0.679688 3.5 -0.703125 L 3.546875 -0.6875 L 3.609375 -0.078125 C 3.566406 -0.046875 3.5 -0.0195312 3.40625 0 C 3.320312 0.0195312 3.226562 0.03125 3.125 0.03125 C 2.914062 0.03125 2.75 -0.0078125 2.625 -0.09375 C 2.507812 -0.175781 2.429688 -0.300781 2.390625 -0.46875 L 2.3125 -0.484375 C 2.144531 -0.117188 1.828125 0.0625 1.359375 0.0625 Z M 1.640625 -0.59375 C 1.835938 -0.59375 2 -0.660156 2.125 -0.796875 C 2.25 -0.929688 2.3125 -1.117188 2.3125 -1.359375 L 2.3125 -1.71875 L 2.25 -1.734375 C 2.195312 -1.691406 2.125 -1.65625 2.03125 -1.625 C 1.945312 -1.59375 1.828125 -1.5625 1.671875 -1.53125 C 1.484375 -1.5 1.347656 -1.445312 1.265625 -1.375 C 1.179688 -1.300781 1.140625 -1.191406 1.140625 -1.046875 C 1.140625 -0.898438 1.179688 -0.785156 1.265625 -0.703125 C 1.359375 -0.628906 1.484375 -0.59375 1.640625 -0.59375 Z M 1.640625 -0.59375 "/></g></g></g><g fill="#990000" fill-opacity="1"><g transform="translate(154.912503, 56.611047)"><g><path d="M 1.453125 0.0625 C 1.140625 0.0625 0.898438 -0.0195312 0.734375 -0.1875 C 0.566406 -0.351562 0.484375 -0.613281 0.484375 -0.96875 L 0.484375 -4.890625 L 1.359375 -4.890625 L 1.359375 -1 C 1.359375 -0.78125 1.445312 -0.671875 1.625 -0.671875 C 1.675781 -0.671875 1.726562 -0.679688 1.78125 -0.703125 L 1.828125 -0.6875 L 1.90625 -0.015625 C 1.863281 0.00390625 1.800781 0.0195312 1.71875 0.03125 C 1.632812 0.0507812 1.546875 0.0625 1.453125 0.0625 Z M 1.453125 0.0625 "/></g></g></g><g fill="#990000" fill-opacity="1"><g transform="translate(80.720625, 62.987625)"><g><path d="M 1.515625 0 L 0.609375 0 L 0.609375 -4.625 L 1.515625 -4.625 Z M 1.515625 0 "/></g></g></g><g fill="#990000" fill-opacity="1"><g transform="translate(82.839308, 62.987625)"><g><path d="M 0.5 0 L 0.5 -3.5 L 1.34375 -3.5 L 1.34375 -2.984375 L 1.40625 -2.96875 C 1.625 -3.363281 1.976562 -3.5625 2.46875 -3.5625 C 2.875 -3.5625 3.171875 -3.453125 3.359375 -3.234375 C 3.546875 -3.015625 3.640625 -2.691406 3.640625 -2.265625 L 3.640625 0 L 2.765625 0 L 2.765625 -2.15625 C 2.765625 -2.394531 2.71875 -2.5625 2.625 -2.65625 C 2.53125 -2.757812 2.378906 -2.8125 2.171875 -2.8125 C 1.921875 -2.8125 1.722656 -2.726562 1.578125 -2.5625 C 1.441406 -2.40625 1.375 -2.15625 1.375 -1.8125 L 1.375 0 Z M 0.5 0 "/></g></g></g><g fill="#990000" fill-opacity="1"><g transform="translate(86.924888, 62.987625)"><g><path d="M 2.40625 -0.828125 L 2.640625 -0.1875 C 2.546875 -0.101562 2.425781 -0.0390625 2.28125 0 C 2.132812 0.0390625 1.972656 0.0625 1.796875 0.0625 C 1.410156 0.0625 1.117188 -0.0351562 0.921875 -0.234375 C 0.734375 -0.441406 0.640625 -0.742188 0.640625 -1.140625 L 0.640625 -2.796875 L 0.109375 -2.796875 L 0.109375 -3.5 L 0.640625 -3.5 L 0.640625 -4.171875 L 1.515625 -4.3125 L 1.515625 -3.5 L 2.5 -3.5 L 2.5 -2.796875 L 1.515625 -2.796875 L 1.515625 -1.203125 C 1.515625 -1.023438 1.550781 -0.894531 1.625 -0.8125 C 1.695312 -0.738281 1.800781 -0.703125 1.9375 -0.703125 C 2.09375 -0.703125 2.226562 -0.742188 2.34375 -0.828125 Z M 2.40625 -0.828125 "/></g></g></g><g fill="#990000" fill-opacity="1"><g transform="translate(89.634907, 62.987625)"><g><path d="M 3.453125 -1.546875 L 1.203125 -1.546875 C 1.234375 -1.242188 1.320312 -1.019531 1.46875 -0.875 C 1.613281 -0.738281 1.816406 -0.671875 2.078125 -0.671875 C 2.273438 -0.671875 2.4375 -0.707031 2.5625 -0.78125 C 2.6875 -0.863281 2.785156 -0.976562 2.859375 -1.125 L 2.921875 -1.125 L 3.515625 -0.75 C 3.398438 -0.507812 3.222656 -0.3125 2.984375 -0.15625 C 2.753906 -0.0078125 2.453125 0.0625 2.078125 0.0625 C 1.710938 0.0625 1.394531 -0.00390625 1.125 -0.140625 C 0.863281 -0.273438 0.660156 -0.476562 0.515625 -0.75 C 0.378906 -1.019531 0.3125 -1.351562 0.3125 -1.75 C 0.3125 -2.144531 0.382812 -2.476562 0.53125 -2.75 C 0.6875 -3.019531 0.890625 -3.222656 1.140625 -3.359375 C 1.398438 -3.492188 1.6875 -3.5625 2 -3.5625 C 2.5 -3.5625 2.878906 -3.429688 3.140625 -3.171875 C 3.398438 -2.910156 3.53125 -2.523438 3.53125 -2.015625 C 3.53125 -1.828125 3.523438 -1.6875 3.515625 -1.59375 Z M 2.703125 -2.109375 C 2.691406 -2.378906 2.628906 -2.570312 2.515625 -2.6875 C 2.398438 -2.8125 2.226562 -2.875 2 -2.875 C 1.5625 -2.875 1.300781 -2.617188 1.21875 -2.109375 Z M 2.703125 -2.109375 "/></g></g></g><g fill="#990000" fill-opacity="1"><g transform="translate(93.426402, 62.987625)"><g><path d="M 1.453125 0.0625 C 1.140625 0.0625 0.898438 -0.0195312 0.734375 -0.1875 C 0.566406 -0.351562 0.484375 -0.613281 0.484375 -0.96875 L 0.484375 -4.890625 L 1.359375 -4.890625 L 1.359375 -1 C 1.359375 -0.78125 1.445312 -0.671875 1.625 -0.671875 C 1.675781 -0.671875 1.726562 -0.679688 1.78125 -0.703125 L 1.828125 -0.6875 L 1.90625 -0.015625 C 1.863281 0.00390625 1.800781 0.0195312 1.71875 0.03125 C 1.632812 0.0507812 1.546875 0.0625 1.453125 0.0625 Z M 1.453125 0.0625 "/></g></g></g><g fill="#990000" fill-opacity="1"><g transform="translate(95.431246, 62.987625)"><g><path d="M 1.453125 0.0625 C 1.140625 0.0625 0.898438 -0.0195312 0.734375 -0.1875 C 0.566406 -0.351562 0.484375 -0.613281 0.484375 -0.96875 L 0.484375 -4.890625 L 1.359375 -4.890625 L 1.359375 -1 C 1.359375 -0.78125 1.445312 -0.671875 1.625 -0.671875 C 1.675781 -0.671875 1.726562 -0.679688 1.78125 -0.703125 L 1.828125 -0.6875 L 1.90625 -0.015625 C 1.863281 0.00390625 1.800781 0.0195312 1.71875 0.03125 C 1.632812 0.0507812 1.546875 0.0625 1.453125 0.0625 Z M 1.453125 0.0625 "/></g></g></g><g fill="#990000" fill-opacity="1"><g transform="translate(97.436089, 62.987625)"><g><path d="M 0.9375 -3.90625 C 0.78125 -3.90625 0.648438 -3.953125 0.546875 -4.046875 C 0.453125 -4.148438 0.40625 -4.273438 0.40625 -4.421875 C 0.40625 -4.578125 0.453125 -4.703125 0.546875 -4.796875 C 0.648438 -4.890625 0.78125 -4.9375 0.9375 -4.9375 C 1.039062 -4.9375 1.132812 -4.914062 1.21875 -4.875 C 1.300781 -4.832031 1.363281 -4.769531 1.40625 -4.6875 C 1.457031 -4.613281 1.484375 -4.523438 1.484375 -4.421875 C 1.484375 -4.328125 1.457031 -4.238281 1.40625 -4.15625 C 1.363281 -4.082031 1.300781 -4.019531 1.21875 -3.96875 C 1.132812 -3.925781 1.039062 -3.90625 0.9375 -3.90625 Z M 0.5 0 L 0.5 -3.5 L 1.375 -3.5 L 1.375 0 Z M 0.5 0 "/></g></g></g><g fill="#990000" fill-opacity="1"><g transform="translate(99.314443, 62.987625)"><g><path d="M 1.8125 1.484375 C 1.238281 1.484375 0.8125 1.394531 0.53125 1.21875 C 0.257812 1.050781 0.125 0.816406 0.125 0.515625 C 0.125 0.335938 0.179688 0.1875 0.296875 0.0625 C 0.410156 -0.0507812 0.578125 -0.128906 0.796875 -0.171875 L 0.796875 -0.234375 C 0.679688 -0.304688 0.597656 -0.382812 0.546875 -0.46875 C 0.492188 -0.5625 0.46875 -0.664062 0.46875 -0.78125 C 0.46875 -1.0625 0.648438 -1.25 1.015625 -1.34375 L 1.015625 -1.40625 C 0.828125 -1.519531 0.6875 -1.65625 0.59375 -1.8125 C 0.5 -1.96875 0.453125 -2.160156 0.453125 -2.390625 C 0.453125 -2.617188 0.503906 -2.820312 0.609375 -3 C 0.710938 -3.175781 0.867188 -3.3125 1.078125 -3.40625 C 1.285156 -3.507812 1.535156 -3.5625 1.828125 -3.5625 C 2.109375 -3.5625 2.335938 -3.507812 2.515625 -3.40625 C 2.617188 -3.5625 2.679688 -3.742188 2.703125 -3.953125 L 2.765625 -3.984375 L 3.40625 -3.828125 C 3.382812 -3.660156 3.332031 -3.519531 3.25 -3.40625 C 3.175781 -3.300781 3.054688 -3.203125 2.890625 -3.109375 L 2.890625 -3.046875 C 3.085938 -2.867188 3.1875 -2.625 3.1875 -2.3125 C 3.1875 -2.101562 3.128906 -1.910156 3.015625 -1.734375 C 2.910156 -1.566406 2.753906 -1.429688 2.546875 -1.328125 C 2.347656 -1.234375 2.109375 -1.1875 1.828125 -1.1875 L 1.6875 -1.1875 C 1.601562 -1.1875 1.546875 -1.1875 1.515625 -1.1875 C 1.429688 -1.1875 1.363281 -1.164062 1.3125 -1.125 C 1.269531 -1.082031 1.25 -1.03125 1.25 -0.96875 C 1.25 -0.894531 1.28125 -0.835938 1.34375 -0.796875 C 1.40625 -0.753906 1.492188 -0.726562 1.609375 -0.71875 L 2.390625 -0.6875 C 3.160156 -0.664062 3.546875 -0.335938 3.546875 0.296875 C 3.546875 0.523438 3.488281 0.726562 3.375 0.90625 C 3.257812 1.082031 3.070312 1.222656 2.8125 1.328125 C 2.550781 1.429688 2.21875 1.484375 1.8125 1.484375 Z M 1.828125 -1.796875 C 1.992188 -1.796875 2.125 -1.84375 2.21875 -1.9375 C 2.3125 -2.039062 2.359375 -2.1875 2.359375 -2.375 C 2.359375 -2.550781 2.3125 -2.6875 2.21875 -2.78125 C 2.125 -2.882812 1.992188 -2.9375 1.828125 -2.9375 C 1.648438 -2.9375 1.515625 -2.882812 1.421875 -2.78125 C 1.328125 -2.6875 1.28125 -2.550781 1.28125 -2.375 C 1.28125 -2.1875 1.328125 -2.039062 1.421875 -1.9375 C 1.515625 -1.84375 1.648438 -1.796875 1.828125 -1.796875 Z M 1.8125 0.84375 C 2.113281 0.84375 2.332031 0.800781 2.46875 0.71875 C 2.601562 0.632812 2.671875 0.523438 2.671875 0.390625 C 2.671875 0.273438 2.632812 0.191406 2.5625 0.140625 C 2.488281 0.0859375 2.378906 0.0625 2.234375 0.0625 L 1.546875 0.03125 C 1.515625 0.03125 1.488281 0.03125 1.46875 0.03125 C 1.457031 0.03125 1.441406 0.03125 1.421875 0.03125 C 1.273438 0.03125 1.160156 0.0625 1.078125 0.125 C 1.003906 0.1875 0.96875 0.273438 0.96875 0.390625 C 0.96875 0.535156 1.035156 0.644531 1.171875 0.71875 C 1.316406 0.800781 1.53125 0.84375 1.8125 0.84375 Z M 1.8125 0.84375 "/></g></g></g><g fill="#990000" fill-opacity="1"><g transform="translate(102.941504, 62.987625)"><g><path d="M 3.453125 -1.546875 L 1.203125 -1.546875 C 1.234375 -1.242188 1.320312 -1.019531 1.46875 -0.875 C 1.613281 -0.738281 1.816406 -0.671875 2.078125 -0.671875 C 2.273438 -0.671875 2.4375 -0.707031 2.5625 -0.78125 C 2.6875 -0.863281 2.785156 -0.976562 2.859375 -1.125 L 2.921875 -1.125 L 3.515625 -0.75 C 3.398438 -0.507812 3.222656 -0.3125 2.984375 -0.15625 C 2.753906 -0.0078125 2.453125 0.0625 2.078125 0.0625 C 1.710938 0.0625 1.394531 -0.00390625 1.125 -0.140625 C 0.863281 -0.273438 0.660156 -0.476562 0.515625 -0.75 C 0.378906 -1.019531 0.3125 -1.351562 0.3125 -1.75 C 0.3125 -2.144531 0.382812 -2.476562 0.53125 -2.75 C 0.6875 -3.019531 0.890625 -3.222656 1.140625 -3.359375 C 1.398438 -3.492188 1.6875 -3.5625 2 -3.5625 C 2.5 -3.5625 2.878906 -3.429688 3.140625 -3.171875 C 3.398438 -2.910156 3.53125 -2.523438 3.53125 -2.015625 C 3.53125 -1.828125 3.523438 -1.6875 3.515625 -1.59375 Z M 2.703125 -2.109375 C 2.691406 -2.378906 2.628906 -2.570312 2.515625 -2.6875 C 2.398438 -2.8125 2.226562 -2.875 2 -2.875 C 1.5625 -2.875 1.300781 -2.617188 1.21875 -2.109375 Z M 2.703125 -2.109375 "/></g></g></g><g fill="#990000" fill-opacity="1"><g transform="translate(106.733, 62.987625)"><g><path d="M 0.5 0 L 0.5 -3.5 L 1.34375 -3.5 L 1.34375 -2.984375 L 1.40625 -2.96875 C 1.625 -3.363281 1.976562 -3.5625 2.46875 -3.5625 C 2.875 -3.5625 3.171875 -3.453125 3.359375 -3.234375 C 3.546875 -3.015625 3.640625 -2.691406 3.640625 -2.265625 L 3.640625 0 L 2.765625 0 L 2.765625 -2.15625 C 2.765625 -2.394531 2.71875 -2.5625 2.625 -2.65625 C 2.53125 -2.757812 2.378906 -2.8125 2.171875 -2.8125 C 1.921875 -2.8125 1.722656 -2.726562 1.578125 -2.5625 C 1.441406 -2.40625 1.375 -2.15625 1.375 -1.8125 L 1.375 0 Z M 0.5 0 "/></g></g></g><g fill="#990000" fill-opacity="1"><g transform="translate(110.818579, 62.987625)"><g><path d="M 2.03125 0.0625 C 1.695312 0.0625 1.398438 -0.00390625 1.140625 -0.140625 C 0.878906 -0.285156 0.675781 -0.492188 0.53125 -0.765625 C 0.382812 -1.035156 0.3125 -1.363281 0.3125 -1.75 C 0.3125 -2.132812 0.382812 -2.460938 0.53125 -2.734375 C 0.675781 -3.003906 0.875 -3.207031 1.125 -3.34375 C 1.382812 -3.488281 1.679688 -3.5625 2.015625 -3.5625 C 2.753906 -3.5625 3.226562 -3.289062 3.4375 -2.75 L 2.828125 -2.328125 L 2.765625 -2.328125 C 2.691406 -2.492188 2.597656 -2.613281 2.484375 -2.6875 C 2.367188 -2.769531 2.210938 -2.8125 2.015625 -2.8125 C 1.765625 -2.8125 1.566406 -2.722656 1.421875 -2.546875 C 1.285156 -2.378906 1.21875 -2.113281 1.21875 -1.75 C 1.21875 -1.382812 1.285156 -1.113281 1.421875 -0.9375 C 1.566406 -0.757812 1.769531 -0.671875 2.03125 -0.671875 C 2.226562 -0.671875 2.390625 -0.722656 2.515625 -0.828125 C 2.648438 -0.929688 2.742188 -1.078125 2.796875 -1.265625 L 2.875 -1.28125 L 3.5 -0.9375 C 3.40625 -0.644531 3.238281 -0.40625 3 -0.21875 C 2.757812 -0.03125 2.4375 0.0625 2.03125 0.0625 Z M 2.03125 0.0625 "/></g></g></g><g fill="#990000" fill-opacity="1"><g transform="translate(114.414018, 62.987625)"><g><path d="M 3.453125 -1.546875 L 1.203125 -1.546875 C 1.234375 -1.242188 1.320312 -1.019531 1.46875 -0.875 C 1.613281 -0.738281 1.816406 -0.671875 2.078125 -0.671875 C 2.273438 -0.671875 2.4375 -0.707031 2.5625 -0.78125 C 2.6875 -0.863281 2.785156 -0.976562 2.859375 -1.125 L 2.921875 -1.125 L 3.515625 -0.75 C 3.398438 -0.507812 3.222656 -0.3125 2.984375 -0.15625 C 2.753906 -0.0078125 2.453125 0.0625 2.078125 0.0625 C 1.710938 0.0625 1.394531 -0.00390625 1.125 -0.140625 C 0.863281 -0.273438 0.660156 -0.476562 0.515625 -0.75 C 0.378906 -1.019531 0.3125 -1.351562 0.3125 -1.75 C 0.3125 -2.144531 0.382812 -2.476562 0.53125 -2.75 C 0.6875 -3.019531 0.890625 -3.222656 1.140625 -3.359375 C 1.398438 -3.492188 1.6875 -3.5625 2 -3.5625 C 2.5 -3.5625 2.878906 -3.429688 3.140625 -3.171875 C 3.398438 -2.910156 3.53125 -2.523438 3.53125 -2.015625 C 3.53125 -1.828125 3.523438 -1.6875 3.515625 -1.59375 Z M 2.703125 -2.109375 C 2.691406 -2.378906 2.628906 -2.570312 2.515625 -2.6875 C 2.398438 -2.8125 2.226562 -2.875 2 -2.875 C 1.5625 -2.875 1.300781 -2.617188 1.21875 -2.109375 Z M 2.703125 -2.109375 "/></g></g></g></svg>